{"glyphs":{"0":{"ha":1011,"x_min":65,"x_max":946,"o":"m 335 544 l 335 413 q 382 252 335 306 q 506 199 429 199 q 631 252 583 199 q 678 413 678 306 l 678 544 q 631 700 678 647 q 508 753 585 753 q 383 701 432 753 q 335 544 335 649 m 65 413 l 65 546 q 190 877 65 769 q 508 985 314 985 q 824 874 703 985 q 946 546 946 764 l 946 414 q 823 83 946 193 q 511 -26 700 -26 q 344 -2 421 -26 q 203 73 267 22 q 102 210 139 124 q 65 413 65 297 z "},"1":{"ha":658,"x_min":67,"x_max":625,"o":"m 67 0 l 67 207 l 222 207 l 222 669 l 75 626 l 75 842 l 481 989 l 481 207 l 625 207 l 625 0 l 67 0 z "},"2":{"ha":958,"x_min":64,"x_max":892,"o":"m 349 665 l 81 665 q 197 906 82 825 q 489 986 313 986 q 777 907 663 986 q 892 679 892 828 q 485 357 892 357 q 326 233 326 357 l 885 233 l 885 0 l 64 0 l 64 226 q 485 574 64 574 q 578 598 536 574 q 621 675 621 622 q 583 745 621 722 q 489 768 544 768 q 349 665 358 768 z "},"3":{"ha":967,"x_min":54,"x_max":908,"o":"m 488 399 l 311 399 l 311 593 l 475 593 q 611 674 608 593 q 574 737 611 711 q 475 763 536 763 q 374 739 415 763 q 332 667 333 715 l 68 667 q 94 792 69 736 q 158 883 118 847 q 250 944 197 919 q 359 978 303 968 q 475 989 415 989 q 619 972 550 989 q 750 922 689 956 q 849 826 811 888 q 886 685 886 765 q 851 575 886 628 q 757 497 815 522 q 908 283 908 442 q 868 141 908 203 q 761 47 828 79 q 622 -2 694 14 q 474 -18 550 -18 q 355 -7 413 -18 q 242 30 297 4 q 145 94 186 56 q 79 190 104 132 q 54 321 54 249 l 324 321 q 372 232 325 260 q 488 204 418 204 q 582 230 542 204 q 622 300 622 256 q 619 326 622 314 q 603 358 615 339 q 562 388 592 376 q 488 399 532 399 z "},"4":{"ha":960,"x_min":26,"x_max":903,"o":"m 544 972 l 799 972 l 799 385 l 903 385 l 903 168 l 799 168 l 799 0 l 540 0 l 540 168 l 44 168 l 26 396 l 544 972 m 310 385 l 540 385 l 540 639 l 310 385 z "},"5":{"ha":924,"x_min":65,"x_max":872,"o":"m 821 971 l 821 747 l 336 747 l 336 632 l 467 632 q 622 618 554 632 q 749 571 689 604 q 840 472 808 538 q 872 311 872 406 q 836 160 872 225 q 740 59 800 96 q 613 5 681 22 q 472 -12 544 -12 q 176 67 285 -12 q 65 322 67 147 l 333 322 q 375 237 333 265 q 469 208 417 208 q 508 213 488 208 q 551 227 528 217 q 590 259 575 238 q 604 311 604 281 q 591 367 604 344 q 554 400 578 390 q 510 413 531 410 q 467 417 490 417 l 82 417 l 82 971 l 821 971 z "},"6":{"ha":981,"x_min":75,"x_max":928,"o":"m 906 690 l 643 690 q 599 753 639 732 q 497 775 558 775 q 390 743 436 775 q 344 658 344 711 l 344 567 q 569 633 433 633 q 828 551 729 633 q 928 318 928 468 q 892 165 928 232 q 796 60 857 99 q 661 3 735 22 q 504 -17 588 -17 q 299 16 393 -17 q 140 128 206 49 q 75 321 75 207 l 75 658 q 137 845 75 768 q 291 956 199 922 q 496 989 383 989 q 653 974 582 989 q 782 925 724 958 q 873 832 840 892 q 906 690 906 772 m 504 208 q 612 238 569 208 q 654 318 654 268 q 614 405 654 374 q 506 436 574 436 q 388 403 429 436 q 347 319 347 371 q 389 241 347 274 q 504 208 431 208 z "},"7":{"ha":824,"x_min":40,"x_max":814,"o":"m 396 0 l 99 0 l 467 747 l 40 747 l 40 974 l 807 974 l 814 850 l 396 0 z "},"8":{"ha":1001,"x_min":56,"x_max":944,"o":"m 614 377 q 594 391 614 377 q 501 406 574 406 q 386 378 429 406 q 343 303 343 351 q 388 227 343 254 q 500 200 433 200 q 610 226 565 200 q 654 301 656 253 q 614 377 654 349 m 58 303 q 92 411 60 351 q 188 504 125 471 q 88 697 90 574 q 199 917 88 840 q 489 993 311 993 q 794 916 671 993 q 917 700 917 839 q 891 594 918 643 q 814 514 864 544 q 911 417 882 476 q 942 303 940 357 q 824 57 944 135 q 500 -21 704 -21 q 272 9 368 -21 q 115 113 175 39 q 58 303 56 188 m 494 586 q 581 606 546 586 q 624 656 615 626 q 624 715 632 685 q 582 765 617 744 q 496 785 547 785 q 410 765 444 785 q 367 715 375 744 q 367 656 358 686 q 410 606 375 626 q 494 586 444 586 z "},"9":{"ha":983,"x_min":56,"x_max":908,"o":"m 68 282 l 331 282 q 375 219 335 240 q 476 197 415 197 q 590 231 540 197 q 639 322 639 264 l 639 406 q 414 339 556 339 q 155 422 254 339 q 56 654 56 504 q 91 807 56 740 q 188 912 126 874 q 322 969 249 950 q 479 989 396 989 q 684 956 590 989 q 843 844 778 924 q 908 651 908 765 l 908 324 q 872 168 908 236 q 774 61 836 100 q 637 3 711 22 q 479 -17 563 -17 q 352 -8 411 -17 q 240 24 293 1 q 149 79 186 46 q 90 165 113 113 q 68 282 68 217 m 479 764 q 372 734 414 764 q 329 654 329 704 q 369 567 329 599 q 478 536 410 536 q 595 569 554 536 q 636 653 636 601 q 594 731 636 699 q 479 764 553 764 z "}," ":{"ha":315,"x_min":0,"x_max":0,"o":""},"!":{"ha":446,"x_min":74,"x_max":371,"o":"m 353 319 l 93 319 l 89 972 l 358 972 l 353 319 m 221 -7 q 113 35 151 -7 q 74 129 74 78 q 113 223 74 181 q 221 265 151 265 q 331 223 290 265 q 371 129 371 181 q 331 35 371 78 q 221 -7 292 -7 z "},"\"":{"ha":654,"x_min":81,"x_max":574,"o":"m 81 974 l 289 974 l 289 594 l 81 594 l 81 974 m 365 974 l 574 974 l 574 594 l 365 594 l 365 974 z "},"#":{"ha":1026,"x_min":50,"x_max":975,"o":"m 339 972 l 572 972 l 522 774 l 651 774 l 700 972 l 936 972 l 886 774 l 975 774 l 975 578 l 838 578 l 785 376 l 885 376 l 885 179 l 740 179 l 697 0 l 463 0 l 506 179 l 378 179 l 333 0 l 101 0 l 144 179 l 50 179 l 50 376 l 194 376 l 243 579 l 140 579 l 140 774 l 292 774 l 339 972 m 607 590 l 478 590 l 422 368 l 551 368 l 607 590 z "},"$":{"ha":951,"x_min":44,"x_max":906,"o":"m 360 -153 l 360 -22 q 44 143 179 -1 l 196 317 q 481 207 308 207 q 592 230 550 207 q 633 293 633 253 q 471 382 633 367 q 318 406 382 390 q 195 456 254 422 q 106 549 136 489 q 75 697 75 610 q 154 885 75 814 q 360 981 233 957 l 360 1107 l 593 1107 l 593 983 q 846 876 736 963 l 710 703 q 482 769 621 769 q 388 751 426 769 q 350 697 350 733 q 388 635 350 651 q 511 611 425 619 q 656 583 590 603 q 780 526 721 563 q 872 430 839 490 q 906 289 906 369 q 818 83 906 160 q 592 -18 731 6 l 593 -18 l 593 -153 l 360 -153 z "},"%":{"ha":1250,"x_min":46,"x_max":1204,"o":"m 109 917 q 141 952 109 917 q 293 986 172 986 q 478 917 414 986 q 542 753 542 849 q 478 588 542 656 q 293 521 414 521 q 109 588 172 521 q 46 753 46 656 q 109 917 46 849 m 817 971 l 1067 971 l 431 0 l 176 0 l 817 971 m 244 710 q 253 701 244 710 q 293 692 261 692 q 342 710 325 692 q 358 753 358 728 q 342 796 358 778 q 293 814 325 814 q 244 796 261 814 q 228 753 228 778 q 244 710 228 728 m 772 385 q 803 420 772 385 q 956 454 835 454 q 1140 385 1076 454 q 1204 221 1204 317 q 1140 56 1204 124 q 956 -11 1076 -11 q 772 56 835 -11 q 708 221 708 124 q 772 385 708 317 m 907 178 q 915 169 907 178 q 956 160 924 160 q 1004 178 988 160 q 1021 221 1021 196 q 1004 264 1021 246 q 956 282 988 282 q 907 264 924 282 q 890 221 890 246 q 907 178 890 196 z "},"&":{"ha":1032,"x_min":57,"x_max":971,"o":"m 328 299 q 367 228 328 251 q 463 206 406 206 q 573 238 526 206 q 619 326 619 271 l 619 392 l 471 392 q 328 299 328 392 m 871 692 l 621 692 q 557 776 619 753 q 432 776 494 800 q 369 694 369 751 q 406 617 369 644 q 486 590 442 590 l 965 590 l 965 396 l 867 396 l 867 321 q 894 255 867 279 q 971 239 922 231 l 971 -1 q 728 103 783 -37 q 429 -15 617 -15 q 292 -1 354 -15 q 174 46 229 14 q 88 138 119 78 q 57 283 57 199 q 96 400 57 340 q 197 496 135 460 q 117 581 143 524 q 90 689 90 638 q 128 834 90 772 q 229 928 167 896 q 358 976 292 961 q 494 990 424 990 q 765 919 658 990 q 871 692 871 847 z "},"'":{"ha":369,"x_min":81,"x_max":289,"o":"m 81 974 l 289 974 l 289 594 l 81 594 l 81 974 z "},"(":{"ha":519,"x_min":39,"x_max":511,"o":"m 394 1107 l 511 971 q 335 740 400 879 q 269 442 269 600 q 331 150 269 293 q 497 -79 393 7 l 388 -226 q 127 60 215 -111 q 39 442 39 232 q 135 817 39 642 q 394 1107 232 993 z "},")":{"ha":519,"x_min":8,"x_max":481,"o":"m 8 971 l 125 1107 q 384 817 288 993 q 481 442 481 642 q 392 60 481 232 q 132 -226 304 -111 l 22 -79 q 188 150 126 7 q 250 442 250 293 q 185 740 250 600 q 8 971 119 879 z "},"*":{"ha":601,"x_min":51,"x_max":550,"o":"m 513 643 l 365 533 l 301 642 l 239 532 l 88 628 l 174 719 l 51 744 l 103 908 l 221 861 l 211 981 l 396 981 l 376 860 l 503 913 l 550 744 l 429 722 l 513 643 z "},"+":{"ha":719,"x_min":56,"x_max":664,"o":"m 56 556 l 244 556 l 244 739 l 474 739 l 474 556 l 664 556 l 664 343 l 474 343 l 474 158 l 244 158 l 244 343 l 56 343 l 56 556 z "},",":{"ha":382,"x_min":61,"x_max":319,"o":"m 319 85 q 239 -150 319 15 l 106 -150 l 135 -7 q 61 86 61 7 q 101 169 61 139 q 196 199 140 199 q 283 169 247 199 q 319 85 319 139 z "},"-":{"ha":708,"x_min":75,"x_max":633,"o":"m 75 301 l 75 504 l 633 504 l 633 301 l 75 301 z "},".":{"ha":393,"x_min":57,"x_max":338,"o":"m 196 -11 q 94 28 132 -11 q 57 115 57 68 q 94 201 57 161 q 196 240 131 240 q 285 215 249 240 q 329 152 321 189 q 329 78 338 115 q 285 15 321 40 q 196 -11 249 -11 z "},"/":{"ha":739,"x_min":33,"x_max":707,"o":"m 467 1044 l 707 1044 l 271 -107 l 33 -107 l 467 1044 z "},":":{"ha":436,"x_min":79,"x_max":357,"o":"m 120 24 q 100 41 120 24 q 79 115 79 57 q 120 206 79 174 q 217 239 161 239 q 315 206 274 239 q 357 115 357 174 q 315 24 357 57 q 217 -8 274 -8 q 120 24 161 -8 m 119 401 q 99 417 119 401 q 79 492 79 433 q 119 582 79 550 q 217 614 160 614 q 315 582 274 614 q 357 492 357 550 q 315 401 357 433 q 217 368 274 368 q 119 401 160 368 z "},";":{"ha":411,"x_min":75,"x_max":335,"o":"m 75 492 q 113 576 75 546 q 203 606 150 606 q 294 576 256 606 q 333 492 333 546 q 294 406 333 436 q 203 376 256 376 q 113 406 150 376 q 75 492 75 436 m 335 85 q 254 -150 335 15 l 121 -150 l 150 -7 q 76 86 76 7 q 116 169 76 139 q 211 199 156 199 q 299 169 263 199 q 335 85 335 139 z "},"<":{"ha":613,"x_min":43,"x_max":542,"o":"m 340 429 l 540 240 l 381 78 l 43 422 l 43 439 l 383 782 l 542 619 l 340 429 z "},"=":{"ha":774,"x_min":83,"x_max":690,"o":"m 83 176 l 83 376 l 690 376 l 690 176 l 83 176 m 83 474 l 83 675 l 690 675 l 690 474 l 83 474 z "},">":{"ha":615,"x_min":71,"x_max":572,"o":"m 74 228 l 281 429 l 71 632 l 232 788 l 572 440 l 572 421 l 232 74 l 74 228 z "},"?":{"ha":835,"x_min":36,"x_max":790,"o":"m 531 319 l 261 319 q 278 417 264 374 q 305 485 292 461 q 349 535 318 510 q 392 569 379 561 q 440 599 404 578 q 507 678 506 638 q 482 737 508 713 q 406 761 456 761 q 290 658 290 761 l 46 658 q 86 837 36 761 q 219 948 136 913 q 406 983 303 983 q 679 907 568 983 q 789 681 790 831 q 763 584 789 625 q 699 517 736 543 q 624 466 661 490 q 559 405 586 442 q 531 319 532 368 m 399 -7 q 290 35 329 -7 q 251 129 251 78 q 290 223 251 181 q 399 265 329 265 q 508 223 468 265 q 549 129 549 181 q 509 35 549 78 q 399 -7 469 -7 z "},"@":{"ha":1281,"x_min":57,"x_max":1233,"o":"m 819 -26 l 882 -153 q 639 -218 771 -218 q 469 -199 551 -218 q 310 -135 386 -179 q 179 -28 235 -92 q 90 130 124 36 q 57 338 57 224 q 108 581 57 471 q 243 761 158 692 q 433 868 328 831 q 649 906 538 906 q 878 872 774 906 q 1063 774 982 839 q 1188 599 1143 708 q 1233 349 1233 490 q 1160 85 1233 183 q 964 -14 1088 -14 q 824 96 857 -14 q 617 -4 763 -4 q 378 86 468 -4 q 288 338 288 176 q 385 586 288 496 q 617 676 483 676 q 733 652 681 676 q 808 586 785 628 l 817 654 l 965 631 l 965 185 q 976 153 965 163 q 996 144 986 144 q 1057 196 1035 144 q 1079 344 1079 247 q 969 660 1079 563 q 649 758 858 758 q 345 642 472 758 q 218 338 218 525 q 253 150 218 231 q 348 22 288 69 q 483 -48 408 -25 q 643 -71 557 -71 q 819 -26 746 -71 m 758 459 q 738 482 758 459 q 639 504 717 504 q 521 456 561 504 q 481 339 481 407 q 522 224 481 271 q 640 176 563 176 q 758 224 717 176 q 800 346 800 272 q 758 459 800 414 z "},"A":{"ha":1107,"x_min":-21,"x_max":1128,"o":"m 833 0 l 769 160 l 335 160 l 271 0 l -21 0 l 415 972 l 693 972 l 1128 0 l 833 0 m 676 390 l 553 700 l 428 390 l 676 390 z "},"B":{"ha":1026,"x_min":99,"x_max":976,"o":"m 369 399 l 369 214 l 601 214 q 678 239 651 214 q 704 306 704 264 q 678 373 704 347 q 601 399 651 399 l 369 399 m 369 750 l 369 601 l 589 601 q 653 621 631 601 q 676 674 676 640 q 653 728 676 707 q 592 750 631 750 l 369 750 m 99 972 l 596 972 q 849 903 750 972 q 949 700 949 833 q 842 511 949 560 q 942 415 907 476 q 976 285 976 353 q 944 149 976 207 q 854 60 911 92 q 735 15 797 29 q 600 0 672 0 l 99 0 l 99 972 z "},"C":{"ha":982,"x_min":46,"x_max":968,"o":"m 807 307 l 968 126 q 578 -25 815 -25 q 334 16 439 -25 q 168 128 229 57 q 76 288 107 200 q 46 479 46 376 q 78 665 46 575 q 174 830 111 756 q 341 949 236 904 q 578 994 446 994 q 954 839 794 994 l 785 672 q 578 757 696 757 q 383 672 449 757 q 318 478 317 586 q 383 288 319 368 q 578 208 446 208 q 695 233 632 208 q 807 307 758 257 z "},"D":{"ha":1071,"x_min":99,"x_max":1024,"o":"m 99 972 l 515 972 q 893 838 763 972 q 1024 493 1024 704 q 894 140 1024 279 q 515 0 764 0 l 99 0 l 99 972 m 371 743 l 371 232 l 515 232 q 694 308 638 232 q 751 496 751 383 q 693 674 751 604 q 515 743 635 743 l 371 743 z "},"E":{"ha":933,"x_min":99,"x_max":876,"o":"m 876 232 l 876 0 l 99 0 l 99 972 l 857 972 l 857 742 l 369 742 l 369 603 l 829 603 l 829 379 l 369 379 l 369 232 l 876 232 z "},"F":{"ha":890,"x_min":99,"x_max":844,"o":"m 371 0 l 99 0 l 99 972 l 844 972 l 844 742 l 371 742 l 371 560 l 815 560 l 815 335 l 371 335 l 371 0 z "},"G":{"ha":1050,"x_min":44,"x_max":993,"o":"m 958 843 l 799 685 q 576 769 708 769 q 385 697 454 769 q 315 485 315 624 q 338 356 315 415 q 423 251 361 296 q 576 206 485 206 q 764 256 694 206 l 764 381 l 518 381 l 518 596 l 993 596 l 993 164 q 834 24 949 74 q 575 -26 719 -26 q 331 17 436 -26 q 165 135 225 61 q 74 297 104 208 q 44 485 44 385 q 77 673 44 583 q 173 837 110 763 q 340 956 236 911 q 576 1000 444 1000 q 779 967 689 1000 q 958 843 869 933 z "},"H":{"ha":1094,"x_min":99,"x_max":996,"o":"m 996 -1 l 724 -1 l 724 367 l 374 367 l 374 -1 l 99 -1 l 99 971 l 374 971 l 374 601 l 724 601 l 724 971 l 996 971 l 996 -1 z "},"I":{"ha":471,"x_min":99,"x_max":372,"o":"m 372 0 l 99 0 l 99 972 l 372 972 l 372 0 z "},"J":{"ha":1011,"x_min":21,"x_max":926,"o":"m 21 419 l 289 419 q 340 267 290 317 q 468 218 390 218 q 603 270 556 218 q 651 421 651 322 l 651 742 l 393 742 l 393 972 l 926 972 l 926 419 q 805 101 926 222 q 465 -21 683 -21 q 21 419 21 -21 z "},"K":{"ha":976,"x_min":99,"x_max":992,"o":"m 958 972 l 958 956 l 564 496 q 992 17 808 226 l 992 0 l 651 0 l 374 324 l 374 0 l 99 0 l 99 972 l 374 972 l 374 653 q 629 972 425 717 l 958 972 z "},"L":{"ha":861,"x_min":99,"x_max":839,"o":"m 99 972 l 374 972 l 374 233 l 839 233 l 839 0 l 99 0 l 99 972 z "},"M":{"ha":1282,"x_min":99,"x_max":1183,"o":"m 911 0 l 911 579 l 663 285 l 614 285 l 371 578 l 371 0 l 99 0 l 99 972 l 386 972 l 642 643 l 897 972 l 1183 972 l 1183 0 l 911 0 z "},"N":{"ha":1110,"x_min":99,"x_max":1011,"o":"m 332 972 l 743 440 q 735 639 740 483 l 735 972 l 1011 972 l 1011 0 l 778 0 l 372 524 l 376 311 l 376 0 l 99 0 l 99 972 l 332 972 z "},"O":{"ha":1169,"x_min":44,"x_max":1125,"o":"m 977 860 q 1051 793 977 860 q 1125 486 1125 725 q 977 112 1125 247 q 585 -24 829 -24 q 193 112 342 -24 q 44 486 44 247 q 194 859 44 722 q 585 996 343 996 q 977 860 829 996 m 850 486 q 778 686 850 611 q 585 761 706 761 q 393 684 467 761 q 319 486 319 607 q 394 288 319 364 q 585 211 468 211 q 777 288 704 211 q 850 486 850 364 z "},"P":{"ha":985,"x_min":99,"x_max":961,"o":"m 374 736 l 374 494 l 571 494 q 656 528 625 494 q 686 614 686 563 q 656 701 686 665 q 571 736 625 736 l 374 736 m 571 263 l 374 263 l 374 0 l 99 0 l 99 972 l 571 972 q 860 871 758 972 q 961 618 961 769 q 860 363 961 463 q 571 263 758 264 z "},"Q":{"ha":1165,"x_min":44,"x_max":1147,"o":"m 1119 488 q 1038 199 1119 326 l 1147 86 l 964 -94 l 842 31 q 582 -22 731 -22 q 192 115 340 -22 q 44 488 44 251 q 192 860 44 724 q 582 996 340 996 q 972 860 825 996 q 1119 488 1119 724 m 844 488 q 773 686 844 610 q 582 763 701 763 q 391 685 465 763 q 317 488 317 608 q 390 288 317 363 q 582 213 464 213 q 774 285 703 213 q 844 488 844 358 z "},"R":{"ha":1024,"x_min":99,"x_max":999,"o":"m 999 17 l 999 0 l 696 0 l 469 315 l 374 315 l 374 0 l 99 0 l 99 972 l 574 972 q 851 875 751 972 q 951 638 951 778 q 906 467 951 539 q 746 344 861 396 l 999 17 m 574 753 l 374 753 l 374 519 l 576 519 q 654 552 628 519 q 681 632 681 585 q 653 717 681 682 q 574 753 625 753 z "},"S":{"ha":925,"x_min":32,"x_max":893,"o":"m 833 876 l 697 703 q 469 769 608 769 q 376 751 414 769 q 338 697 338 733 q 375 635 338 651 q 499 611 413 619 q 643 583 578 603 q 767 526 708 563 q 860 430 826 490 q 893 289 893 369 q 831 110 893 183 q 674 5 768 36 q 467 -28 581 -26 q 226 6 325 -29 q 32 143 128 42 l 183 317 q 468 207 296 207 q 579 230 538 207 q 621 293 621 253 q 458 382 621 367 q 306 406 369 390 q 183 456 242 422 q 93 549 124 489 q 63 697 63 610 q 181 917 63 842 q 469 992 300 992 q 833 876 686 992 z "},"T":{"ha":883,"x_min":21,"x_max":863,"o":"m 304 0 l 304 746 l 21 746 l 21 972 l 863 972 l 863 746 l 578 746 l 578 0 l 304 0 z "},"U":{"ha":1086,"x_min":85,"x_max":1003,"o":"m 728 971 l 1001 971 l 1001 428 q 881 97 1003 214 q 543 -21 758 -21 q 206 95 326 -21 q 85 431 85 211 l 85 971 l 358 971 l 358 431 q 407 267 358 319 q 543 214 456 214 q 678 267 629 214 q 728 428 728 321 l 728 971 z "},"V":{"ha":1040,"x_min":-18,"x_max":1058,"o":"m 1058 972 l 654 -4 l 386 -4 l -18 972 l 286 972 l 397 681 l 519 321 l 643 681 l 754 972 l 1058 972 z "},"W":{"ha":1481,"x_min":-12,"x_max":1489,"o":"m 1489 972 l 1135 1 l 911 1 l 739 467 l 572 1 l 350 1 l -12 972 l 288 972 l 413 631 q 464 406 433 567 l 643 972 l 833 972 l 1018 406 q 1072 638 1039 518 l 1189 972 l 1489 972 z "},"X":{"ha":992,"x_min":-1,"x_max":993,"o":"m 406 824 l 496 651 l 588 826 l 676 972 l 972 972 l 972 957 l 667 489 l 993 11 l 993 0 l 694 0 l 604 135 l 496 315 l 386 132 l 297 0 l -1 0 l -1 11 l 325 489 l 19 957 l 19 972 l 315 972 l 406 824 z "},"Y":{"ha":1003,"x_min":-8,"x_max":1022,"o":"m 301 972 l 503 639 l 713 972 l 1022 972 l 1022 960 l 636 388 l 636 0 l 361 0 l 361 388 l -8 961 l -8 972 l 301 972 z "},"Z":{"ha":893,"x_min":35,"x_max":849,"o":"m 58 750 l 58 972 l 838 972 l 838 894 l 413 238 l 849 238 l 849 0 l 35 0 l 35 86 l 469 750 l 58 750 z "},"[":{"ha":517,"x_min":92,"x_max":468,"o":"m 468 -218 l 92 -218 l 92 976 l 468 976 l 468 775 l 321 775 l 321 -17 l 468 -17 l 468 -218 z "},"\\":{"ha":740,"x_min":32,"x_max":707,"o":"m 32 1044 l 271 1044 l 707 -107 l 467 -107 l 32 1044 z "},"]":{"ha":519,"x_min":49,"x_max":428,"o":"m 428 -218 l 49 -218 l 49 -17 l 196 -17 l 196 775 l 49 775 l 49 976 l 428 976 l 428 -218 z "},"^":{"ha":886,"x_min":50,"x_max":836,"o":"m 50 460 l 50 478 l 363 960 l 510 960 l 836 479 l 836 460 l 590 460 l 435 686 l 289 460 l 50 460 z "},"_":{"ha":710,"x_min":13,"x_max":697,"o":"m 13 -199 l 13 4 l 697 4 l 697 -199 l 13 -199 z "},"`":{"ha":400,"x_min":-4,"x_max":371,"o":"m -4 963 l -4 974 l 264 974 l 371 750 l 371 742 l 147 742 l -4 963 z "},"a":{"ha":900,"x_min":38,"x_max":825,"o":"m 572 613 l 585 686 l 825 686 l 825 0 l 589 0 l 578 74 q 475 6 536 26 q 351 -12 414 -15 q 120 94 203 -3 q 38 343 38 190 q 130 599 38 497 q 371 701 222 701 q 572 613 514 701 m 429 494 q 331 453 369 494 q 292 343 292 413 q 331 233 292 274 q 429 193 369 193 q 531 237 492 193 q 571 343 571 281 q 533 453 571 413 q 429 494 496 494 z "},"b":{"ha":893,"x_min":75,"x_max":854,"o":"m 331 972 l 331 628 q 521 701 390 701 q 762 601 669 701 q 854 343 854 501 q 773 89 854 181 q 540 -12 692 -3 q 417 6 478 -15 q 314 74 356 26 l 303 0 l 75 0 l 75 972 l 331 972 m 463 494 q 361 449 397 494 q 325 336 325 403 q 363 236 325 279 q 463 193 401 193 q 561 233 522 193 q 600 343 600 274 q 561 453 600 413 q 463 494 522 494 z "},"c":{"ha":721,"x_min":38,"x_max":710,"o":"m 564 256 l 710 103 q 426 -14 579 -14 q 281 6 349 -14 q 157 67 213 26 q 69 178 101 108 q 38 342 38 249 q 70 503 38 432 q 158 616 103 574 q 280 680 213 658 q 422 701 347 701 q 692 594 585 701 l 556 447 q 438 497 507 497 q 327 453 367 497 q 288 340 288 408 q 327 240 288 281 q 436 199 367 199 q 564 256 511 199 z "},"d":{"ha":893,"x_min":39,"x_max":818,"o":"m 563 628 l 563 972 l 818 972 l 818 0 l 590 0 l 579 74 q 476 6 538 26 q 353 -12 415 -15 q 120 89 201 -3 q 39 343 39 181 q 131 601 39 501 q 372 701 224 701 q 563 628 503 701 m 431 494 q 332 453 371 494 q 293 343 293 413 q 332 233 293 274 q 431 193 371 193 q 530 236 492 193 q 568 336 568 279 q 532 449 568 403 q 431 494 496 494 z "},"e":{"ha":819,"x_min":38,"x_max":818,"o":"m 297 435 l 546 435 q 485 508 543 486 q 366 508 426 529 q 297 435 306 488 m 419 703 q 713 585 608 703 q 775 271 818 468 l 296 271 q 354 206 308 229 q 449 183 400 183 q 625 239 551 183 l 750 99 q 438 -15 628 -15 q 150 74 263 -15 q 38 342 38 164 q 151 610 38 517 q 419 703 265 703 z "},"f":{"ha":594,"x_min":25,"x_max":644,"o":"m 397 0 l 142 0 l 142 476 l 25 476 l 25 674 l 142 674 l 142 707 q 230 917 142 847 q 438 988 318 988 q 644 913 567 988 l 567 758 q 474 792 528 792 q 419 770 440 792 q 397 707 397 749 l 397 674 l 575 674 l 575 476 l 397 476 l 397 0 z "},"g":{"ha":854,"x_min":36,"x_max":819,"o":"m 47 -49 l 288 -49 q 417 -179 285 -179 q 507 -153 471 -179 q 543 -81 543 -128 q 419 11 543 11 q 142 105 246 11 q 38 357 38 199 q 147 612 38 515 q 419 708 256 708 q 561 682 489 708 q 597 727 571 694 q 635 776 622 760 l 819 644 l 731 539 q 796 354 800 461 q 671 126 793 215 q 806 -81 806 50 q 773 -222 806 -161 q 684 -317 740 -282 q 560 -369 628 -351 q 417 -386 493 -386 q 135 -297 233 -386 q 47 -49 36 -207 m 419 499 q 324 461 361 499 q 286 357 286 424 q 324 260 286 297 q 419 222 363 222 q 511 257 474 222 q 549 357 549 292 q 512 458 549 417 q 419 499 475 499 z "},"h":{"ha":851,"x_min":75,"x_max":786,"o":"m 75 972 l 333 972 l 333 613 q 517 701 403 701 q 709 622 632 701 q 786 381 786 543 l 786 0 l 532 0 l 532 379 q 439 481 528 481 q 365 450 397 481 q 332 363 333 419 l 332 0 l 75 0 l 75 972 z "},"i":{"ha":407,"x_min":60,"x_max":347,"o":"m 60 863 q 103 958 60 924 q 204 992 146 992 q 305 958 263 992 q 347 863 347 924 q 304 769 347 803 q 204 735 261 735 q 103 769 146 735 q 60 863 60 803 m 75 0 l 332 0 l 332 675 l 75 675 l 75 0 z "},"j":{"ha":406,"x_min":-97,"x_max":347,"o":"m 60 863 q 103 958 60 924 q 204 992 146 992 q 305 958 263 992 q 347 863 347 924 q 304 769 347 803 q 204 735 261 735 q 103 769 146 735 q 60 863 60 803 m -49 -100 l -97 -279 q 63 -323 -15 -319 q 199 -297 140 -326 q 294 -198 258 -267 q 331 -32 331 -129 l 331 675 l 75 675 l 75 -32 q 42 -114 75 -96 q -49 -100 8 -132 z "},"k":{"ha":790,"x_min":75,"x_max":799,"o":"m 75 972 l 332 972 l 332 485 l 475 686 l 760 686 l 760 675 l 519 364 l 799 15 l 799 0 l 510 0 l 332 239 l 332 0 l 75 0 l 75 972 z "},"l":{"ha":403,"x_min":75,"x_max":328,"o":"m 75 974 l 328 974 l 328 0 l 75 0 l 75 974 z "},"m":{"ha":1225,"x_min":75,"x_max":1158,"o":"m 743 0 l 492 0 l 492 381 q 419 486 492 486 q 357 458 383 486 q 329 376 331 429 l 329 0 l 75 0 l 75 686 l 290 686 l 308 613 q 390 678 339 656 q 497 700 442 701 q 668 603 617 697 q 896 701 747 701 q 1087 623 1015 701 q 1158 382 1158 544 l 1158 0 l 903 0 l 903 381 q 883 457 903 432 q 832 482 863 482 q 769 456 796 482 q 743 378 743 431 l 743 0 z "},"n":{"ha":864,"x_min":75,"x_max":797,"o":"m 797 0 l 542 0 l 542 379 q 514 465 542 438 q 446 493 486 493 q 362 459 396 493 q 328 361 328 425 l 328 0 l 75 0 l 75 686 l 301 686 l 313 611 q 529 703 393 706 q 724 626 650 701 q 797 381 797 551 l 797 0 z "},"o":{"ha":858,"x_min":38,"x_max":821,"o":"m 429 701 q 708 610 594 701 q 821 342 821 518 q 705 75 821 167 q 429 -17 589 -17 q 284 5 353 -17 q 160 68 215 26 q 71 181 104 110 q 38 342 38 251 q 95 547 38 463 q 239 666 153 631 q 429 701 325 701 m 429 193 q 532 235 493 193 q 571 342 571 278 q 533 448 571 404 q 429 492 494 492 q 326 448 364 492 q 288 342 288 404 q 326 236 288 279 q 429 193 364 193 z "},"p":{"ha":893,"x_min":75,"x_max":854,"o":"m 331 58 l 331 -286 l 75 -286 l 75 686 l 303 686 l 314 613 q 417 681 356 660 q 540 699 478 701 q 773 597 692 689 q 854 343 854 506 q 762 85 854 185 q 521 -15 669 -15 q 331 58 390 -15 m 463 192 q 561 233 522 192 q 600 343 600 274 q 561 453 600 413 q 463 493 522 493 q 363 450 401 493 q 325 350 325 407 q 361 238 325 283 q 463 192 397 192 z "},"q":{"ha":893,"x_min":39,"x_max":818,"o":"m 563 -286 l 563 58 q 372 -15 503 -15 q 131 85 224 -15 q 39 343 39 185 q 120 597 39 506 q 353 699 201 689 q 476 681 415 701 q 579 613 538 660 l 590 686 l 818 686 l 818 -286 l 563 -286 m 431 192 q 532 238 496 192 q 568 350 568 283 q 530 450 568 407 q 431 493 492 493 q 332 453 371 493 q 293 343 293 413 q 332 233 293 274 q 431 192 371 192 z "},"r":{"ha":656,"x_min":75,"x_max":667,"o":"m 75 686 l 304 686 l 319 611 q 486 703 371 703 q 667 629 597 703 l 564 444 q 449 486 511 486 q 364 453 397 486 q 331 357 331 421 l 331 0 l 75 0 l 75 686 z "},"s":{"ha":710,"x_min":26,"x_max":678,"o":"m 26 72 l 110 258 q 353 182 217 189 q 422 215 422 182 q 350 253 422 247 q 247 267 296 254 q 153 304 199 279 q 82 374 108 329 q 56 478 56 418 q 147 648 56 593 q 372 703 238 703 q 653 619 542 703 l 544 467 q 465 497 517 485 q 372 508 414 510 q 311 475 311 508 q 363 442 311 443 q 678 215 678 432 q 631 81 678 135 q 515 4 585 26 q 358 -18 446 -18 q 175 6 267 -18 q 26 72 83 31 z "},"t":{"ha":600,"x_min":26,"x_max":588,"o":"m 136 853 l 390 881 l 390 682 l 544 682 l 544 486 l 389 486 l 389 261 q 457 194 390 194 q 532 218 497 194 l 588 29 q 390 -17 507 -17 q 204 47 275 -17 q 136 261 133 111 l 136 486 l 26 486 l 26 682 l 136 682 l 136 853 z "},"u":{"ha":864,"x_min":67,"x_max":789,"o":"m 67 686 l 322 686 l 322 307 q 350 221 322 249 q 418 193 378 193 q 502 225 468 193 q 536 321 536 257 l 536 686 l 789 686 l 789 0 l 563 0 l 551 75 q 335 -17 471 -19 q 140 60 214 -15 q 67 306 67 135 l 67 686 z "},"v":{"ha":818,"x_min":-11,"x_max":822,"o":"m 260 686 l 335 494 l 408 272 l 478 494 l 551 686 l 822 686 l 539 -4 l 285 -4 l -11 686 l 260 686 z "},"w":{"ha":1161,"x_min":-1,"x_max":1163,"o":"m 504 686 l 658 686 l 779 304 l 831 499 l 894 686 l 1163 686 l 911 -4 l 676 -4 l 581 256 l 486 -4 l 249 -4 l -1 686 l 265 686 l 331 497 l 383 304 l 504 686 z "},"x":{"ha":786,"x_min":0,"x_max":786,"o":"m 460 76 l 393 193 l 326 76 l 282 0 l 0 0 l 231 344 l 22 674 l 22 686 l 297 686 l 344 603 l 393 506 l 442 601 l 489 686 l 764 686 l 764 674 l 557 346 l 786 0 l 504 0 l 460 76 z "},"y":{"ha":808,"x_min":-4,"x_max":821,"o":"m 547 686 l 821 686 l 396 -290 l 129 -290 l 268 31 l -4 686 l 267 686 l 325 522 l 400 285 l 483 524 l 547 686 z "},"z":{"ha":688,"x_min":32,"x_max":644,"o":"m 58 686 l 632 686 l 632 600 l 371 219 l 644 219 l 644 0 l 32 0 l 32 79 l 306 483 l 58 483 l 58 686 z "},"{":{"ha":536,"x_min":38,"x_max":486,"o":"m 486 -19 l 486 -203 q 357 -217 413 -217 q 125 26 125 -217 l 125 222 q 122 249 125 238 q 111 272 119 260 q 84 292 103 285 q 38 299 65 299 l 38 476 q 108 498 90 476 q 125 554 125 519 l 125 739 q 179 929 125 864 q 357 994 233 994 q 486 982 415 994 l 486 813 q 365 729 365 838 l 365 535 q 365 488 365 503 q 358 451 364 474 q 338 414 353 429 q 300 385 324 399 q 353 328 340 363 q 365 240 365 294 l 365 51 q 383 -7 365 11 q 428 -24 401 -25 q 486 -19 456 -22 z "},"|":{"ha":432,"x_min":92,"x_max":340,"o":"m 340 1042 l 340 -97 l 92 -97 l 92 1042 l 340 1042 z "},"}":{"ha":536,"x_min":50,"x_max":499,"o":"m 50 -203 l 50 -19 q 108 -24 81 -22 q 153 -7 135 -25 q 171 51 171 11 l 171 240 q 183 328 171 294 q 236 385 196 363 q 198 414 213 399 q 178 451 183 429 q 172 488 172 474 q 171 535 171 503 l 171 729 q 50 813 171 838 l 50 982 q 179 994 121 994 q 357 929 303 994 q 411 739 411 864 l 411 554 q 416 517 411 532 q 441 490 421 503 q 499 476 461 476 l 499 299 q 428 277 446 299 q 411 222 411 256 l 411 26 q 179 -217 411 -217 q 50 -203 124 -217 z "},"~":{"ha":860,"x_min":65,"x_max":797,"o":"m 236 289 l 65 351 q 140 509 79 450 q 300 567 201 568 q 383 547 338 565 q 461 510 428 529 q 527 481 494 492 q 585 485 560 469 q 626 549 610 500 l 797 486 q 722 328 783 388 q 563 271 661 269 q 466 299 518 272 q 381 346 414 325 q 309 358 349 367 q 236 289 269 349 z "},"¡":{"ha":421,"x_min":61,"x_max":358,"o":"m 339 374 l 79 374 l 74 -279 l 343 -279 l 339 374 m 211 700 q 319 658 281 700 q 358 564 358 615 q 319 470 358 513 q 211 428 281 428 q 101 470 142 428 q 61 564 61 513 q 101 658 61 615 q 211 700 140 700 z "},"¢":{"ha":779,"x_min":60,"x_max":732,"o":"m 586 256 l 732 103 q 532 -4 639 18 l 532 -110 l 308 -110 l 308 4 q 127 119 194 36 q 60 342 60 203 q 128 563 60 478 q 308 682 197 649 l 308 800 l 532 800 l 532 692 q 714 594 636 669 l 578 447 q 460 497 529 497 q 349 453 389 497 q 310 340 310 408 q 349 240 310 281 q 458 199 389 199 q 586 256 533 199 z "},"£":{"ha":929,"x_min":69,"x_max":869,"o":"m 404 656 q 418 560 404 613 l 681 560 l 681 371 l 450 371 q 443 288 456 335 q 407 218 431 242 l 869 218 l 869 0 l 69 0 l 69 217 q 163 267 131 218 q 190 371 194 315 l 69 371 l 69 560 l 153 560 q 139 654 142 608 q 228 894 132 803 q 501 986 325 986 q 761 906 667 986 q 849 671 856 826 l 606 671 q 578 746 604 721 q 510 771 553 771 q 433 742 461 771 q 404 656 404 713 z "},"¤":{"ha":878,"x_min":63,"x_max":813,"o":"m 362 351 q 376 338 362 351 q 439 324 390 324 q 516 351 488 324 q 544 429 544 379 q 516 507 544 479 q 439 535 488 535 q 362 507 390 535 q 333 429 333 479 q 362 351 333 379 m 439 722 q 550 708 490 722 l 644 804 l 813 636 l 735 558 q 760 429 760 504 q 735 300 760 360 l 811 225 l 643 57 l 550 150 q 439 135 493 135 q 326 149 378 135 l 235 56 l 67 224 l 143 301 q 119 429 119 357 q 143 556 119 500 l 63 636 l 231 804 l 328 708 q 439 722 378 722 z "},"¥":{"ha":1107,"x_min":39,"x_max":1069,"o":"m 193 153 l 193 318 l 411 318 l 411 375 l 193 375 l 193 551 l 304 551 l 39 961 l 39 972 l 344 972 l 447 801 l 550 607 l 656 800 l 764 972 l 1069 972 l 1069 960 l 792 551 l 903 551 l 903 375 l 681 375 l 681 318 l 903 318 l 903 153 l 681 153 l 681 0 l 411 0 l 411 153 l 193 153 z "},"¦":{"ha":442,"x_min":92,"x_max":350,"o":"m 350 471 l 92 471 l 92 971 l 350 971 l 350 471 m 92 389 l 350 389 l 350 -119 l 92 -119 l 92 389 z "},"§":{"ha":888,"x_min":51,"x_max":828,"o":"m 51 96 l 161 258 q 443 171 290 171 q 575 214 575 171 q 542 243 575 232 q 449 253 508 254 q 315 263 379 251 q 195 301 250 275 q 108 374 140 326 q 81 482 76 421 q 110 553 82 514 q 179 608 138 592 q 89 749 89 657 q 124 864 89 815 q 217 938 158 913 q 337 975 275 964 q 465 986 399 986 q 640 965 563 986 q 793 878 718 944 l 658 744 q 465 794 593 794 q 340 754 340 794 q 457 718 340 718 q 560 713 511 718 q 660 692 608 708 q 749 652 713 676 q 806 585 785 628 q 824 485 828 542 q 796 417 819 453 q 738 360 772 382 q 800 294 778 333 q 822 217 822 256 q 794 111 822 157 q 726 40 767 65 q 630 0 685 15 q 530 -20 575 -15 q 438 -25 485 -25 q 224 0 317 -25 q 51 96 131 25 m 585 488 q 457 542 585 542 q 318 489 318 542 q 352 450 318 464 q 440 436 386 436 q 585 488 585 436 z "},"¨":{"ha":785,"x_min":53,"x_max":718,"o":"m 53 869 q 91 957 53 925 q 182 989 129 989 q 274 957 235 989 q 314 869 314 925 q 274 785 314 817 q 182 754 235 754 q 91 785 129 754 q 53 869 53 817 m 456 869 q 494 957 456 925 q 588 989 533 989 q 678 957 639 989 q 718 869 718 925 q 678 785 718 817 q 588 754 639 754 q 494 785 533 754 q 456 869 456 817 z "},"©":{"ha":1136,"x_min":54,"x_max":1081,"o":"m 574 1001 q 946 860 811 1001 q 1081 494 1081 718 q 946 128 1081 269 q 574 -12 811 -12 q 196 130 338 -12 q 54 494 54 272 q 197 856 54 711 q 574 1001 339 1001 m 313 489 q 392 297 313 367 q 585 226 472 226 q 803 317 711 226 l 708 411 q 597 365 663 365 q 500 398 540 365 q 460 489 460 431 q 499 588 460 554 q 597 622 539 622 q 706 581 658 622 l 799 672 q 590 760 710 760 q 398 688 476 760 q 313 489 319 617 m 207 494 q 308 225 207 328 q 574 122 408 122 q 835 223 740 122 q 929 494 929 324 q 835 765 929 665 q 574 865 740 865 q 308 762 410 865 q 207 494 207 658 z "},"ª":{"ha":608,"x_min":22,"x_max":547,"o":"m 381 906 l 399 964 l 547 964 l 547 503 l 390 503 l 379 564 q 238 492 342 492 q 81 558 140 497 q 22 733 22 619 q 84 910 22 847 q 243 974 146 974 q 381 906 336 974 m 276 817 q 218 794 240 817 q 196 733 196 772 q 218 671 196 693 q 276 649 240 649 q 335 674 314 649 q 357 733 357 699 q 335 792 357 767 q 276 817 314 817 m 50 286 l 50 433 l 543 433 l 543 286 l 50 286 z "},"«":{"ha":775,"x_min":40,"x_max":733,"o":"m 40 413 l 233 721 l 446 721 l 446 722 l 253 413 q 446 103 389 188 l 233 103 l 40 413 m 326 413 l 519 721 l 733 721 l 733 722 l 540 413 l 733 103 l 519 103 l 326 413 z "},"¬":{"ha":774,"x_min":81,"x_max":682,"o":"m 682 547 l 682 188 l 468 188 l 468 361 l 81 361 l 81 547 l 682 547 z "},"®":{"ha":1136,"x_min":54,"x_max":1081,"o":"m 810 236 l 694 415 q 771 467 742 429 q 801 549 800 504 q 785 638 803 594 q 718 710 767 681 q 601 739 669 739 l 371 739 l 371 236 l 514 236 l 514 386 l 572 386 l 656 236 l 810 236 m 511 615 l 607 615 q 640 603 626 615 q 658 575 654 592 q 658 542 661 558 q 642 515 656 526 q 608 503 628 503 l 511 503 l 511 615 m 574 1001 q 946 860 811 1001 q 1081 494 1081 718 q 946 128 1081 269 q 574 -12 811 -12 q 196 130 338 -12 q 54 494 54 272 q 197 856 54 711 q 574 1001 339 1001 m 207 494 q 308 225 207 328 q 574 122 408 122 q 835 223 740 122 q 929 494 929 324 q 835 765 929 665 q 574 865 740 865 q 308 762 410 865 q 207 494 207 658 z "},"¯":{"ha":629,"x_min":63,"x_max":549,"o":"m 63 779 l 63 974 l 549 974 l 549 779 l 63 779 z "},"°":{"ha":540,"x_min":47,"x_max":493,"o":"m 271 983 q 434 923 375 983 q 493 782 493 863 q 434 641 493 700 q 268 582 375 582 q 105 640 163 582 q 47 781 47 699 q 106 922 47 861 q 271 983 165 983 m 269 843 q 222 825 239 843 q 206 782 206 807 q 223 740 206 757 q 269 722 240 722 q 316 740 299 722 q 333 782 333 757 q 317 825 333 807 q 269 843 301 843 z "},"±":{"ha":782,"x_min":81,"x_max":701,"o":"m 83 456 l 83 672 l 274 672 l 274 858 l 510 858 l 510 672 l 699 672 l 699 456 l 510 456 l 510 269 l 274 269 l 274 456 l 83 456 m 81 -3 l 81 201 l 701 201 l 701 -3 l 81 -3 z "},"²":{"ha":525,"x_min":49,"x_max":478,"o":"m 197 883 l 51 883 q 113 1010 53 964 q 260 1057 174 1057 q 416 1011 354 1057 q 478 882 478 965 q 464 818 478 846 q 434 774 450 790 q 385 745 418 758 q 334 728 353 732 q 279 715 315 724 q 192 667 196 697 l 474 667 l 474 525 l 49 525 l 49 663 q 64 738 49 707 q 112 786 79 768 q 167 812 144 804 q 232 829 189 819 q 269 839 258 836 q 296 849 279 842 q 319 863 313 856 q 325 882 325 871 q 261 925 325 925 q 197 883 206 925 z "},"³":{"ha":533,"x_min":38,"x_max":490,"o":"m 263 735 l 176 735 l 176 846 l 257 846 q 326 889 326 846 q 256 928 326 928 q 181 889 189 928 l 47 889 q 112 1014 47 971 q 260 1057 176 1057 q 411 1015 346 1057 q 476 888 476 972 q 460 831 476 858 q 417 790 444 803 q 490 679 490 761 q 452 577 490 617 q 367 526 414 538 q 261 514 319 514 q 104 557 169 514 q 38 686 39 600 l 193 686 q 260 647 199 647 q 310 658 289 647 q 331 692 331 669 q 263 735 331 735 z "},"´":{"ha":400,"x_min":8,"x_max":383,"o":"m 383 974 l 383 963 l 232 742 l 8 742 l 8 750 l 115 974 l 383 974 z "},"µ":{"ha":890,"x_min":88,"x_max":829,"o":"m 829 0 l 622 0 l 597 88 q 528 10 578 35 q 421 -2 478 -15 q 326 61 364 11 l 326 -285 l 88 -285 l 88 686 l 336 686 l 336 360 q 373 257 336 289 q 461 225 410 225 q 549 259 514 225 q 585 361 583 293 l 585 686 l 829 686 l 829 0 z "},"¶":{"ha":1238,"x_min":25,"x_max":1182,"o":"m 633 739 l 633 -278 l 386 -278 l 386 267 q 110 404 208 267 q 47 674 26 524 q 196 913 68 832 q 421 972 289 972 l 1182 972 l 1182 739 l 1056 739 l 1056 -278 l 803 -278 l 803 739 l 633 739 z "},"·":{"ha":414,"x_min":60,"x_max":351,"o":"m 313 317 q 293 297 313 317 q 206 276 274 276 q 99 317 138 276 q 60 408 60 358 q 99 499 60 458 q 206 540 138 540 q 313 499 274 540 q 351 408 351 458 q 313 317 351 358 z "},"¸":{"ha":506,"x_min":58,"x_max":497,"o":"m 58 -276 l 146 -185 q 230 -223 179 -218 q 296 -187 281 -228 q 260 -134 306 -151 q 178 -142 214 -117 l 139 -112 l 197 40 l 361 40 l 335 -33 q 460 -101 424 -43 q 474 -232 497 -158 q 365 -344 447 -311 q 192 -358 282 -378 q 58 -276 103 -337 z "},"¹":{"ha":397,"x_min":46,"x_max":367,"o":"m 46 526 l 46 658 l 131 658 l 131 878 q 95 870 121 876 q 60 863 69 864 l 60 992 l 279 1050 l 279 658 l 367 658 l 367 526 l 46 526 z "},"º":{"ha":590,"x_min":24,"x_max":565,"o":"m 49 251 l 49 424 l 543 424 l 543 251 l 49 251 m 490 544 q 453 511 490 544 q 294 478 415 478 q 99 544 174 478 q 24 736 24 611 q 98 924 24 860 q 294 989 172 989 q 492 924 418 989 q 565 736 565 860 q 490 544 565 611 m 294 651 q 354 674 331 651 q 378 736 378 696 q 354 798 378 775 q 294 821 331 821 q 235 798 260 821 q 211 736 211 775 q 235 674 211 696 q 294 651 260 651 z "},"»":{"ha":774,"x_min":44,"x_max":735,"o":"m 542 724 l 735 415 l 542 107 l 328 107 l 521 415 l 328 725 l 328 724 l 542 724 m 257 724 l 450 415 l 257 107 l 44 107 l 238 415 l 44 725 l 44 724 l 257 724 z "},"¼":{"ha":1108,"x_min":58,"x_max":1061,"o":"m 811 517 l 1000 517 l 1000 215 l 1061 215 l 1061 83 l 1000 83 l 1000 0 l 856 0 l 856 83 l 588 83 l 582 210 l 811 517 m 856 215 l 856 360 q 801 290 838 338 q 742 215 765 243 l 856 215 m 354 -1 l 186 -1 l 725 978 l 896 978 l 354 -1 m 58 449 l 58 583 l 143 583 l 143 800 q 71 786 81 788 l 71 914 l 293 972 l 293 583 l 379 583 l 379 449 l 58 449 z "},"½":{"ha":1128,"x_min":54,"x_max":1078,"o":"m 344 -3 l 179 -3 l 718 978 l 886 978 l 344 -3 m 54 447 l 54 582 l 139 582 l 139 799 q 98 790 126 796 q 68 785 69 785 l 68 914 l 289 972 l 289 582 l 376 582 l 376 447 l 54 447 m 797 351 l 651 351 q 714 477 653 431 q 860 524 775 524 q 1017 479 957 524 q 1078 350 1078 435 q 1061 274 1078 306 q 1010 223 1044 242 q 951 196 976 204 q 882 178 925 188 q 792 138 800 163 l 1074 138 l 1074 -7 l 649 -7 l 649 131 q 664 204 649 174 q 710 253 679 235 q 765 279 742 271 q 831 297 789 288 q 879 309 864 304 q 910 324 894 314 q 925 350 925 335 q 907 380 925 369 q 864 390 889 390 q 797 351 806 390 z "},"¾":{"ha":1169,"x_min":49,"x_max":1122,"o":"m 424 -8 l 254 -8 l 797 978 l 968 978 l 424 -8 m 874 517 l 1061 517 l 1061 215 l 1122 215 l 1122 83 l 1061 83 l 1061 0 l 917 0 l 917 83 l 649 83 l 643 210 l 874 517 m 917 215 l 917 360 l 804 215 l 917 215 m 267 674 l 183 674 l 183 781 l 261 781 q 328 822 328 781 q 260 860 328 860 q 188 822 194 860 l 58 822 q 121 943 58 901 q 264 985 183 985 q 409 944 346 985 q 472 821 472 903 q 415 726 472 756 q 486 619 486 699 q 421 496 486 532 q 265 460 356 460 q 113 501 176 460 q 49 626 50 543 l 199 626 q 264 589 204 589 q 332 632 332 589 q 267 674 332 674 z "},"¿":{"ha":825,"x_min":43,"x_max":794,"o":"m 569 376 l 300 376 q 272 290 299 328 q 208 225 246 251 q 133 171 171 199 q 69 101 96 143 q 43 3 43 58 q 74 -133 43 -75 q 159 -223 104 -190 q 281 -272 214 -256 q 425 -287 347 -287 q 611 -252 528 -287 q 744 -141 694 -217 q 785 38 794 -65 l 540 38 q 425 -65 540 -65 q 349 -41 375 -65 q 324 18 322 -17 q 390 97 325 58 q 439 126 426 118 q 482 160 451 135 q 526 210 513 186 q 553 278 539 235 q 569 376 567 322 m 432 703 q 540 660 501 703 q 579 567 579 618 q 540 473 579 515 q 432 431 501 431 q 322 473 363 431 q 282 567 282 515 q 322 660 282 618 q 432 703 361 703 z "},"À":{"ha":1107,"x_min":-21,"x_max":1128,"o":"m 833 0 l 769 160 l 335 160 l 271 0 l -21 0 l 415 972 l 693 972 l 1128 0 l 833 0 m 676 390 l 553 700 l 428 390 l 676 390 m 294 1265 l 294 1276 l 563 1276 l 669 1053 l 669 1044 l 446 1044 l 294 1265 z "},"Á":{"ha":1107,"x_min":-21,"x_max":1128,"o":"m 769 160 l 833 0 l 1128 0 l 693 972 l 415 972 l -21 0 l 271 0 l 335 160 l 769 160 m 553 700 l 676 390 l 428 390 l 553 700 m 821 1276 l 821 1265 l 669 1044 l 446 1044 l 446 1053 l 553 1276 l 821 1276 z "},"Â":{"ha":1107,"x_min":-21,"x_max":1128,"o":"m 769 160 l 833 0 l 1128 0 l 693 972 l 415 972 l -21 0 l 271 0 l 335 160 l 769 160 m 553 700 l 676 390 l 428 390 l 553 700 m 472 1271 l 631 1271 l 842 1053 l 842 1042 l 622 1042 l 551 1107 l 481 1042 l 261 1042 l 261 1053 l 472 1271 z "},"Ã":{"ha":1107,"x_min":-21,"x_max":1128,"o":"m 833 0 l 769 160 l 335 160 l 271 0 l -21 0 l 415 972 l 693 972 l 1128 0 l 833 0 m 676 390 l 553 700 l 428 390 l 676 390 m 543 1071 q 397 1051 433 1131 l 257 1140 q 383 1262 292 1233 q 556 1243 475 1290 q 704 1267 657 1188 l 839 1179 q 722 1053 801 1083 q 543 1071 643 1022 z "},"Ä":{"ha":1107,"x_min":-21,"x_max":1128,"o":"m 769 160 l 833 0 l 1128 0 l 693 972 l 415 972 l -21 0 l 271 0 l 335 160 l 769 160 m 553 700 l 676 390 l 428 390 l 553 700 m 219 1153 q 258 1240 219 1208 q 349 1272 296 1272 q 441 1240 401 1272 q 481 1153 481 1208 q 441 1069 481 1100 q 349 1038 401 1038 q 258 1069 296 1038 q 219 1153 219 1100 m 622 1153 q 661 1240 622 1208 q 754 1272 700 1272 q 845 1240 806 1272 q 885 1153 885 1208 q 845 1069 885 1100 q 754 1038 806 1038 q 661 1069 700 1038 q 622 1153 622 1100 z "},"Å":{"ha":1107,"x_min":-21,"x_max":1128,"o":"m 426 1187 q 453 1204 426 1187 q 554 1221 479 1221 q 683 1186 629 1221 q 757 1102 738 1151 q 769 997 776 1053 q 725 900 763 942 l 1128 0 l 833 0 l 769 160 l 335 160 l 271 0 l -21 0 l 385 903 q 342 1000 349 944 q 354 1104 335 1056 q 426 1187 374 1153 m 619 533 l 553 736 l 485 533 l 428 390 l 676 390 l 619 533 m 557 1082 q 500 1053 517 1082 q 500 994 483 1024 q 557 965 517 965 q 612 994 596 965 q 612 1053 628 1024 q 557 1082 596 1082 z "},"Æ":{"ha":1285,"x_min":-36,"x_max":1228,"o":"m -36 0 l -36 15 l 540 972 l 1207 972 l 1207 753 l 869 753 l 869 600 l 1183 600 l 1183 388 l 869 388 l 869 218 l 1228 218 l 1228 0 l 617 0 l 617 146 l 328 146 l 240 0 l -36 0 m 465 386 l 617 386 l 621 547 l 638 719 l 465 386 z "},"Ç":{"ha":983,"x_min":47,"x_max":969,"o":"m 301 -307 l 392 -218 q 478 -255 426 -250 q 546 -221 531 -260 q 509 -169 556 -186 q 425 -176 463 -153 l 385 -147 l 439 -12 q 145 158 242 24 q 47 479 49 293 q 80 665 47 575 q 175 830 113 756 q 342 949 238 904 q 579 994 447 994 q 956 839 796 994 l 786 672 q 579 757 697 757 q 384 672 450 757 q 319 478 318 586 q 384 288 321 368 q 579 208 447 208 q 697 233 633 208 q 808 307 760 257 l 969 126 q 603 -25 825 -17 l 586 -71 q 715 -136 676 -81 q 729 -264 753 -192 q 617 -372 703 -340 q 439 -385 531 -404 q 301 -307 347 -365 z "},"È":{"ha":933,"x_min":99,"x_max":876,"o":"m 876 232 l 876 0 l 99 0 l 99 972 l 857 972 l 857 742 l 369 742 l 369 603 l 829 603 l 829 379 l 369 379 l 369 232 l 876 232 m 246 1264 l 246 1275 l 514 1275 l 621 1051 l 621 1043 l 397 1043 l 246 1264 z "},"É":{"ha":933,"x_min":99,"x_max":876,"o":"m 876 0 l 876 232 l 369 232 l 369 379 l 829 379 l 829 603 l 369 603 l 369 742 l 857 742 l 857 972 l 99 972 l 99 0 l 876 0 m 736 1275 l 736 1264 l 585 1043 l 361 1043 l 361 1051 l 468 1275 l 736 1275 z "},"Ê":{"ha":933,"x_min":99,"x_max":876,"o":"m 876 0 l 876 232 l 369 232 l 369 379 l 829 379 l 829 603 l 369 603 l 369 742 l 857 742 l 857 972 l 99 972 l 99 0 l 876 0 m 411 1267 l 569 1267 l 781 1049 l 781 1038 l 561 1038 l 490 1103 l 419 1038 l 200 1038 l 200 1049 l 411 1267 z "},"Ë":{"ha":933,"x_min":99,"x_max":876,"o":"m 876 0 l 876 232 l 369 232 l 369 379 l 829 379 l 829 603 l 369 603 l 369 742 l 857 742 l 857 972 l 99 972 l 99 0 l 876 0 m 156 1161 q 194 1249 156 1217 q 285 1281 232 1281 q 377 1249 338 1281 q 417 1161 417 1217 q 377 1077 417 1108 q 285 1046 338 1046 q 194 1077 232 1046 q 156 1161 156 1108 m 558 1161 q 597 1249 558 1217 q 690 1281 636 1281 q 781 1249 742 1281 q 821 1161 821 1217 q 781 1077 821 1108 q 690 1046 742 1046 q 597 1077 636 1046 q 558 1161 558 1108 z "},"Ì":{"ha":471,"x_min":-12,"x_max":372,"o":"m 372 0 l 99 0 l 99 972 l 372 972 l 372 0 m -12 1264 l -12 1275 l 256 1275 l 363 1051 l 363 1043 l 139 1043 l -12 1264 z "},"Í":{"ha":471,"x_min":99,"x_max":486,"o":"m 99 0 l 372 0 l 372 972 l 99 972 l 99 0 m 486 1272 l 486 1261 l 335 1040 l 111 1040 l 111 1049 l 218 1272 l 486 1272 z "},"Î":{"ha":471,"x_min":-51,"x_max":529,"o":"m 99 0 l 372 0 l 372 972 l 99 972 l 99 0 m 160 1271 l 318 1271 l 529 1053 l 529 1042 l 310 1042 l 239 1107 l 168 1042 l -51 1042 l -51 1053 l 160 1271 z "},"Ï":{"ha":471,"x_min":-69,"x_max":558,"o":"m -69 1176 q -31 1264 -69 1232 q 60 1296 7 1296 q 152 1264 113 1296 q 192 1176 192 1232 q 152 1092 192 1124 q 60 1061 113 1061 q -31 1092 7 1061 q -69 1176 -69 1124 m 296 1176 q 335 1264 296 1232 q 428 1296 374 1296 q 519 1264 479 1296 q 558 1176 558 1232 q 519 1092 558 1124 q 428 1061 479 1061 q 335 1092 374 1061 q 296 1176 296 1124 m 99 0 l 372 0 l 372 972 l 99 972 l 99 0 z "},"Ð":{"ha":1074,"x_min":10,"x_max":1026,"o":"m 10 390 l 10 588 l 118 588 l 118 972 l 506 972 q 888 840 750 972 q 1026 501 1026 707 q 893 142 1026 283 q 506 0 760 0 l 118 0 l 118 390 l 10 390 m 383 390 l 383 225 l 506 225 q 691 297 629 225 q 754 501 753 369 q 692 690 756 626 q 506 753 628 753 l 383 753 l 383 588 l 551 588 l 551 390 l 383 390 z "},"Ñ":{"ha":1110,"x_min":99,"x_max":1011,"o":"m 332 972 l 743 440 q 735 639 740 483 l 735 972 l 1011 972 l 1011 0 l 778 0 l 372 524 l 376 311 l 376 0 l 99 0 l 99 972 l 332 972 m 538 1090 q 383 1069 422 1156 l 235 1164 q 369 1292 271 1263 q 551 1274 467 1322 q 710 1299 658 1214 l 853 1206 q 728 1071 813 1103 q 538 1090 644 1039 z "},"Ò":{"ha":1169,"x_min":44,"x_max":1125,"o":"m 977 860 q 1051 793 977 860 q 1125 486 1125 725 q 977 112 1125 247 q 585 -24 829 -24 q 193 112 342 -24 q 44 486 44 247 q 194 859 44 722 q 585 996 343 996 q 977 860 829 996 m 850 486 q 778 686 850 611 q 585 761 706 761 q 393 684 467 761 q 319 486 319 607 q 394 288 319 364 q 585 211 468 211 q 777 288 704 211 q 850 486 850 364 m 343 1289 l 343 1300 l 611 1300 l 718 1076 l 718 1068 l 494 1068 l 343 1289 z "},"Ó":{"ha":1169,"x_min":44,"x_max":1125,"o":"m 977 112 q 1051 180 977 112 q 1125 486 1125 247 q 977 860 1125 725 q 585 996 829 996 q 194 859 343 996 q 44 486 44 722 q 193 112 44 247 q 585 -24 342 -24 q 977 112 829 -24 m 850 486 q 777 288 850 364 q 585 211 704 211 q 394 288 468 211 q 319 486 319 364 q 393 684 319 607 q 585 761 467 761 q 778 686 706 761 q 850 486 850 611 m 836 1300 l 836 1289 l 685 1068 l 461 1068 l 461 1076 l 568 1300 l 836 1300 z "},"Ô":{"ha":1169,"x_min":44,"x_max":1125,"o":"m 977 112 q 1051 180 977 112 q 1125 486 1125 247 q 977 860 1125 725 q 585 996 829 996 q 194 859 343 996 q 44 486 44 722 q 193 112 44 247 q 585 -24 342 -24 q 977 112 829 -24 m 850 486 q 777 288 850 364 q 585 211 704 211 q 394 288 468 211 q 319 486 319 364 q 393 684 319 607 q 585 761 467 761 q 778 686 706 761 q 850 486 850 611 m 510 1289 l 668 1289 l 879 1071 l 879 1060 l 660 1060 l 589 1125 l 518 1060 l 299 1060 l 299 1071 l 510 1289 z "},"Õ":{"ha":1169,"x_min":44,"x_max":1125,"o":"m 977 860 q 1051 793 977 860 q 1125 486 1125 725 q 977 112 1125 247 q 585 -24 829 -24 q 193 112 342 -24 q 44 486 44 247 q 194 859 44 722 q 585 996 343 996 q 977 860 829 996 m 850 486 q 778 686 850 611 q 585 761 706 761 q 393 684 467 761 q 319 486 319 607 q 394 288 319 364 q 585 211 468 211 q 777 288 704 211 q 850 486 850 364 m 582 1094 q 429 1075 468 1158 l 282 1168 q 415 1294 318 1265 q 596 1275 511 1324 q 682 1250 642 1246 q 751 1300 722 1254 l 892 1208 q 771 1076 854 1108 q 582 1094 688 1044 z "},"Ö":{"ha":1169,"x_min":44,"x_max":1125,"o":"m 977 112 q 1051 180 977 112 q 1125 486 1125 247 q 977 860 1125 725 q 585 996 829 996 q 194 859 343 996 q 44 486 44 722 q 193 112 44 247 q 585 -24 342 -24 q 977 112 829 -24 m 850 486 q 777 288 850 364 q 585 211 704 211 q 394 288 468 211 q 319 486 319 364 q 393 684 319 607 q 585 761 467 761 q 778 686 706 761 q 850 486 850 611 m 256 1171 q 294 1258 256 1226 q 385 1290 332 1290 q 477 1258 438 1290 q 517 1171 517 1226 q 477 1087 517 1118 q 385 1056 438 1056 q 294 1087 332 1056 q 256 1171 256 1118 m 658 1171 q 697 1258 658 1226 q 790 1290 736 1290 q 881 1258 842 1290 q 921 1171 921 1226 q 881 1087 921 1118 q 790 1056 842 1056 q 697 1087 736 1056 q 658 1171 658 1118 z "},"×":{"ha":661,"x_min":57,"x_max":603,"o":"m 224 706 l 333 589 l 449 707 l 603 553 l 482 429 l 603 308 l 446 161 l 331 278 q 218 160 243 188 l 57 318 l 174 433 l 61 549 l 224 706 z "},"Ø":{"ha":1169,"x_min":44,"x_max":1125,"o":"m 847 1068 l 1088 1068 l 961 874 q 1125 486 1125 736 q 977 112 1125 247 q 585 -24 829 -24 q 396 0 486 -24 l 329 -103 l 92 -103 l 217 90 q 44 486 44 229 q 194 859 44 722 q 585 996 343 996 q 782 968 690 996 l 847 1068 m 585 761 q 393 684 467 761 q 319 486 319 607 q 365 322 319 392 l 646 756 q 585 761 607 761 m 850 486 q 811 642 850 575 l 535 215 q 585 211 560 211 q 777 288 704 211 q 850 486 850 364 z "},"Ù":{"ha":1083,"x_min":83,"x_max":1001,"o":"m 726 971 l 1000 971 l 1000 428 q 879 97 1001 214 q 542 -21 757 -21 q 204 95 325 -21 q 83 431 83 211 l 83 971 l 357 971 l 357 431 q 406 267 357 319 q 542 214 454 214 q 677 267 628 214 q 726 428 726 321 l 726 971 m 300 1274 l 300 1285 l 568 1285 l 675 1061 l 675 1053 l 451 1053 l 300 1274 z "},"Ú":{"ha":1083,"x_min":83,"x_max":1001,"o":"m 1000 971 l 726 971 l 726 428 q 677 267 726 321 q 542 214 628 214 q 406 267 454 214 q 357 431 357 319 l 357 971 l 83 971 l 83 431 q 204 95 83 211 q 542 -21 325 -21 q 879 97 757 -21 q 1000 428 1001 214 l 1000 971 m 788 1283 l 788 1272 l 636 1051 l 413 1051 l 413 1060 l 519 1283 l 788 1283 z "},"Û":{"ha":1083,"x_min":83,"x_max":1001,"o":"m 1000 971 l 726 971 l 726 428 q 677 267 726 321 q 542 214 628 214 q 406 267 454 214 q 357 431 357 319 l 357 971 l 83 971 l 83 431 q 204 95 83 211 q 542 -21 325 -21 q 879 97 757 -21 q 1000 428 1001 214 l 1000 971 m 467 1290 l 625 1290 l 836 1072 l 836 1061 l 617 1061 l 546 1126 l 475 1061 l 256 1061 l 256 1072 l 467 1290 z "},"Ü":{"ha":1083,"x_min":83,"x_max":1001,"o":"m 1000 971 l 726 971 l 726 428 q 677 267 726 321 q 542 214 628 214 q 406 267 454 214 q 357 431 357 319 l 357 971 l 83 971 l 83 431 q 204 95 83 211 q 542 -21 325 -21 q 879 97 757 -21 q 1000 428 1001 214 l 1000 971 m 206 1178 q 244 1265 206 1233 q 335 1297 282 1297 q 427 1265 388 1297 q 467 1178 467 1233 q 427 1094 467 1125 q 335 1063 388 1063 q 244 1094 282 1063 q 206 1178 206 1125 m 608 1178 q 647 1265 608 1233 q 740 1297 686 1297 q 831 1265 792 1297 q 871 1178 871 1233 q 831 1094 871 1125 q 740 1063 792 1063 q 647 1094 686 1063 q 608 1178 608 1125 z "},"Ý":{"ha":1003,"x_min":-8,"x_max":1022,"o":"m 503 639 l 301 972 l -8 972 l -8 961 l 361 388 l 361 0 l 636 0 l 636 388 l 1022 960 l 1022 972 l 713 972 l 503 639 m 757 1283 l 757 1272 l 606 1051 l 382 1051 l 382 1060 l 489 1283 l 757 1283 z "},"Þ":{"ha":967,"x_min":97,"x_max":946,"o":"m 97 0 l 99 972 l 371 972 l 371 822 l 557 822 q 844 723 742 822 q 946 488 946 624 q 844 252 946 351 q 557 153 742 153 l 371 153 l 371 0 l 97 0 m 371 593 l 371 378 l 557 378 q 643 410 613 378 q 674 485 674 442 q 643 560 674 528 q 557 593 613 593 l 371 593 z "},"ß":{"ha":881,"x_min":75,"x_max":844,"o":"m 403 -7 l 403 196 q 461 188 442 188 q 579 311 579 188 q 541 394 579 372 q 439 415 503 415 l 403 415 l 403 639 l 425 639 q 492 657 468 639 q 515 707 515 675 q 491 757 515 739 q 435 775 467 775 q 369 755 393 775 q 343 700 344 735 l 343 0 l 75 0 l 75 704 q 183 911 75 835 q 436 988 292 988 q 680 920 579 988 q 781 715 781 853 q 658 539 781 596 q 844 293 844 471 q 749 65 844 144 q 501 -14 653 -14 q 403 -7 446 -14 z "},"à":{"ha":900,"x_min":38,"x_max":825,"o":"m 572 613 l 585 686 l 825 686 l 825 0 l 589 0 l 578 74 q 475 6 536 26 q 351 -12 414 -15 q 120 94 203 -3 q 38 343 38 190 q 130 599 38 497 q 371 701 222 701 q 572 613 514 701 m 429 494 q 331 453 369 494 q 292 343 292 413 q 331 233 292 274 q 429 193 369 193 q 531 237 492 193 q 571 343 571 281 q 533 453 571 413 q 429 494 496 494 m 229 983 l 229 993 l 492 993 l 597 774 l 597 765 l 378 765 l 229 983 z "},"á":{"ha":900,"x_min":38,"x_max":825,"o":"m 585 686 l 572 613 q 371 701 514 701 q 130 599 222 701 q 38 343 38 497 q 120 94 38 190 q 351 -12 203 -3 q 475 6 414 -15 q 578 74 536 26 l 589 0 l 825 0 l 825 686 l 585 686 m 429 494 q 533 453 496 494 q 571 343 571 413 q 531 237 571 281 q 429 193 492 193 q 331 233 369 193 q 292 343 292 274 q 331 453 292 413 q 429 494 369 494 m 692 992 l 692 981 l 543 765 l 325 765 l 325 774 l 429 992 l 692 992 z "},"â":{"ha":900,"x_min":38,"x_max":825,"o":"m 585 686 l 572 613 q 371 701 514 701 q 130 599 222 701 q 38 343 38 497 q 120 94 38 190 q 351 -12 203 -3 q 475 6 414 -15 q 578 74 536 26 l 589 0 l 825 0 l 825 686 l 585 686 m 429 494 q 533 453 496 494 q 571 343 571 413 q 531 237 571 281 q 429 193 492 193 q 331 233 369 193 q 292 343 292 274 q 331 453 292 413 q 429 494 369 494 m 381 993 l 539 993 l 750 775 l 750 764 l 531 764 l 460 829 l 389 764 l 169 764 l 169 775 l 381 993 z "},"ã":{"ha":900,"x_min":38,"x_max":825,"o":"m 572 613 l 585 686 l 825 686 l 825 0 l 589 0 l 578 74 q 475 6 536 26 q 351 -12 414 -15 q 120 94 203 -3 q 38 343 38 190 q 130 599 38 497 q 371 701 222 701 q 572 613 514 701 m 429 494 q 331 453 369 494 q 292 343 292 413 q 331 233 292 274 q 429 193 369 193 q 531 237 492 193 q 571 343 571 281 q 533 453 571 413 q 429 494 496 494 m 449 796 q 308 776 343 858 l 174 868 q 245 966 196 931 q 350 1001 294 1001 q 461 972 406 1000 q 604 997 558 917 l 733 907 q 621 777 697 808 q 449 796 544 746 z "},"ä":{"ha":900,"x_min":38,"x_max":825,"o":"m 169 882 q 208 969 169 938 q 299 1001 246 1001 q 391 969 351 1001 q 431 882 431 938 q 391 798 431 829 q 299 767 351 767 q 208 798 246 767 q 169 882 169 829 m 525 882 q 564 969 525 938 q 657 1001 603 1001 q 748 969 708 1001 q 788 882 788 938 q 748 798 788 829 q 657 767 708 767 q 564 798 603 767 q 525 882 525 829 m 585 686 l 572 613 q 371 701 514 701 q 130 599 222 701 q 38 343 38 497 q 120 94 38 190 q 351 -12 203 -3 q 475 6 414 -15 q 578 74 536 26 l 589 0 l 825 0 l 825 686 l 585 686 m 429 494 q 533 453 496 494 q 571 343 571 413 q 531 237 571 281 q 429 193 492 193 q 331 233 369 193 q 292 343 292 274 q 331 453 292 413 q 429 494 369 494 z "},"å":{"ha":900,"x_min":38,"x_max":825,"o":"m 572 613 l 585 686 l 825 686 l 825 0 l 589 0 l 578 74 q 475 6 536 26 q 351 -12 414 -15 q 120 94 203 -3 q 38 343 38 190 q 130 599 38 497 q 371 701 222 701 q 572 613 514 701 m 429 494 q 331 453 369 494 q 292 343 292 413 q 331 233 292 274 q 429 193 369 193 q 531 237 492 193 q 571 343 571 281 q 533 453 571 413 q 429 494 496 494 m 447 1094 q 563 1069 514 1094 q 633 1006 611 1044 q 656 924 656 968 q 634 842 656 881 q 563 779 613 804 q 447 754 514 754 q 334 779 382 754 q 264 842 286 804 q 242 924 242 881 q 263 1006 242 968 q 333 1069 285 1044 q 447 1094 382 1094 m 499 949 q 492 960 499 949 q 449 972 485 972 q 398 949 413 972 q 398 901 383 925 q 449 878 413 878 q 499 901 485 878 q 499 949 514 925 z "},"æ":{"ha":1314,"x_min":38,"x_max":1307,"o":"m 438 494 q 339 453 378 494 q 300 343 300 413 q 339 233 300 274 q 438 193 378 193 q 542 233 501 193 q 582 336 582 272 q 544 453 582 411 q 438 494 506 494 m 796 435 l 1049 435 q 986 508 1046 486 q 865 508 926 529 q 796 435 804 488 m 1264 271 l 794 271 q 855 206 807 229 q 951 183 903 183 q 1128 239 1054 183 l 1253 99 q 940 -15 1131 -15 q 750 63 810 -15 l 746 0 l 589 0 l 578 74 q 475 6 536 26 q 351 -12 414 -15 q 120 94 203 -3 q 38 343 38 190 q 130 599 38 497 q 371 701 222 701 q 572 613 514 701 l 585 686 l 746 686 l 750 629 q 956 699 838 701 q 1212 581 1117 697 q 1264 271 1307 465 z "},"ç":{"ha":722,"x_min":38,"x_max":710,"o":"m 564 256 l 710 103 q 460 -12 593 0 l 438 -71 q 565 -133 528 -81 q 581 -251 603 -185 q 470 -360 554 -326 q 295 -374 386 -393 q 158 -296 204 -356 l 247 -211 q 332 -247 281 -242 q 399 -214 383 -251 q 384 -176 404 -192 q 335 -158 364 -160 q 279 -171 307 -157 l 240 -144 l 300 0 q 109 114 181 29 q 38 342 38 199 q 70 503 38 432 q 158 616 103 574 q 280 680 213 658 q 422 701 347 701 q 692 594 585 701 l 556 447 q 438 497 507 497 q 327 453 367 497 q 288 340 288 408 q 327 240 288 281 q 436 199 367 199 q 564 256 511 199 z "},"è":{"ha":819,"x_min":38,"x_max":818,"o":"m 297 435 l 546 435 q 485 508 543 486 q 366 508 426 529 q 297 435 306 488 m 419 703 q 713 585 608 703 q 775 271 818 468 l 296 271 q 354 206 308 229 q 449 183 400 183 q 625 239 551 183 l 750 99 q 438 -15 628 -15 q 150 74 263 -15 q 38 342 38 164 q 151 610 38 517 q 419 703 265 703 m 199 982 l 199 993 l 458 993 l 563 776 l 563 768 l 346 768 l 199 982 z "},"é":{"ha":819,"x_min":38,"x_max":818,"o":"m 297 435 l 546 435 q 485 508 543 486 q 366 508 426 529 q 297 435 306 488 m 419 703 q 713 585 608 703 q 775 271 818 468 l 296 271 q 354 206 308 229 q 449 183 400 183 q 625 239 551 183 l 750 99 q 438 -15 628 -15 q 150 74 263 -15 q 38 342 38 164 q 151 610 38 517 q 419 703 265 703 m 668 992 l 668 981 l 521 767 l 304 767 l 304 775 l 408 992 l 668 992 z "},"ê":{"ha":819,"x_min":38,"x_max":818,"o":"m 297 435 l 546 435 q 485 508 543 486 q 366 508 426 529 q 297 435 306 488 m 419 703 q 713 585 608 703 q 775 271 818 468 l 296 271 q 354 206 308 229 q 449 183 400 183 q 625 239 551 183 l 750 99 q 438 -15 628 -15 q 150 74 263 -15 q 38 342 38 164 q 151 610 38 517 q 419 703 265 703 m 343 988 l 501 988 l 713 769 l 713 758 l 493 758 l 422 824 l 351 758 l 132 758 l 132 769 l 343 988 z "},"ë":{"ha":819,"x_min":38,"x_max":818,"o":"m 147 882 q 184 965 147 935 q 269 996 221 996 q 357 965 319 996 q 394 882 394 935 q 357 802 394 832 q 269 772 319 772 q 184 802 221 772 q 147 882 147 832 m 486 882 q 523 965 486 935 q 611 996 560 996 q 697 965 660 996 q 735 882 735 935 q 697 802 735 832 q 611 772 660 772 q 523 802 560 772 q 486 882 486 832 m 297 435 l 546 435 q 485 508 543 486 q 366 508 426 529 q 297 435 306 488 m 419 703 q 713 585 608 703 q 775 271 818 468 l 296 271 q 354 206 308 229 q 449 183 400 183 q 625 239 551 183 l 750 99 q 438 -15 628 -15 q 150 74 263 -15 q 38 342 38 164 q 151 610 38 517 q 419 703 265 703 z "},"ì":{"ha":406,"x_min":0,"x_max":331,"o":"m 0 969 l 0 981 l 238 981 l 310 763 l 310 754 l 103 754 l 0 969 m 331 0 l 75 0 l 75 686 l 331 686 l 331 0 z "},"í":{"ha":406,"x_min":75,"x_max":393,"o":"m 393 981 l 393 969 l 290 754 l 76 754 l 76 763 l 156 981 l 393 981 m 75 0 l 331 0 l 331 686 l 75 686 l 75 0 z "},"î":{"ha":406,"x_min":-61,"x_max":453,"o":"m 126 985 l 267 985 l 453 764 l 453 753 l 256 753 l 196 815 l 133 753 l -61 753 l -61 764 l 126 985 m 75 0 l 331 0 l 331 686 l 75 686 l 75 0 z "},"ï":{"ha":406,"x_min":-76,"x_max":478,"o":"m -76 860 q -40 950 -76 917 q 46 983 -4 983 q 133 950 96 983 q 171 860 171 917 q 133 774 171 806 q 46 742 96 742 q -40 774 -4 742 q -76 860 -76 806 m 229 860 q 267 950 229 917 q 354 983 304 983 q 441 950 404 983 q 478 860 478 917 q 441 774 478 806 q 354 742 404 742 q 267 774 304 742 q 229 860 229 806 m 75 0 l 331 0 l 331 686 l 75 686 l 75 0 z "},"ð":{"ha":813,"x_min":38,"x_max":775,"o":"m 408 911 l 482 999 l 625 889 l 565 819 q 726 606 678 732 q 771 347 775 481 q 671 85 761 182 q 404 -11 581 -11 q 134 90 231 -11 q 38 331 38 190 q 133 574 38 479 q 382 669 229 669 q 426 668 411 669 q 153 781 321 760 l 192 963 q 408 911 325 946 m 316 238 q 332 217 316 238 q 404 196 347 196 q 494 238 461 196 q 527 331 526 281 q 495 424 528 382 q 404 467 463 467 q 317 424 349 467 q 285 331 285 382 q 316 238 285 281 z "},"ñ":{"ha":864,"x_min":75,"x_max":797,"o":"m 797 0 l 542 0 l 542 379 q 514 465 542 438 q 446 493 486 493 q 362 459 396 493 q 328 361 328 425 l 328 0 l 75 0 l 75 686 l 301 686 l 313 611 q 529 703 393 706 q 724 626 650 701 q 797 381 797 551 l 797 0 m 438 813 q 307 793 340 875 l 181 883 q 294 1006 213 978 q 449 986 376 1033 q 524 962 489 958 q 583 1011 558 965 l 704 922 q 600 794 671 825 q 438 813 529 764 z "},"ò":{"ha":858,"x_min":38,"x_max":821,"o":"m 429 701 q 708 610 594 701 q 821 342 821 518 q 705 75 821 167 q 429 -17 589 -17 q 284 5 353 -17 q 160 68 215 26 q 71 181 104 110 q 38 342 38 251 q 95 547 38 463 q 239 666 153 631 q 429 701 325 701 m 429 193 q 532 235 493 193 q 571 342 571 278 q 533 448 571 404 q 429 492 494 492 q 326 448 364 492 q 288 342 288 404 q 326 236 288 279 q 429 193 364 193 m 192 985 l 192 994 l 461 994 l 568 782 l 568 774 l 343 774 l 192 985 z "},"ó":{"ha":858,"x_min":38,"x_max":821,"o":"m 429 701 q 239 666 325 701 q 95 547 153 631 q 38 342 38 463 q 71 181 38 251 q 160 68 104 110 q 284 5 215 26 q 429 -17 353 -17 q 705 75 589 -17 q 821 342 821 167 q 708 610 821 518 q 429 701 594 701 m 429 193 q 326 236 364 193 q 288 342 288 279 q 326 448 288 404 q 429 492 364 492 q 533 448 494 492 q 571 342 571 404 q 532 235 571 278 q 429 193 493 193 m 663 990 l 663 979 l 514 767 l 296 767 l 296 775 l 400 990 l 663 990 z "},"ô":{"ha":858,"x_min":38,"x_max":821,"o":"m 429 701 q 239 666 325 701 q 95 547 153 631 q 38 342 38 463 q 71 181 38 251 q 160 68 104 110 q 284 5 215 26 q 429 -17 353 -17 q 705 75 589 -17 q 821 342 821 167 q 708 610 821 518 q 429 701 594 701 m 429 193 q 326 236 364 193 q 288 342 288 279 q 326 448 288 404 q 429 492 364 492 q 533 448 494 492 q 571 342 571 404 q 532 235 571 278 q 429 193 493 193 m 350 986 l 508 986 l 719 768 l 719 757 l 500 757 l 429 822 l 358 757 l 139 757 l 139 768 l 350 986 z "},"õ":{"ha":858,"x_min":38,"x_max":821,"o":"m 429 701 q 708 610 594 701 q 821 342 821 518 q 705 75 821 167 q 429 -17 589 -17 q 284 5 353 -17 q 160 68 215 26 q 71 181 104 110 q 38 342 38 251 q 95 547 38 463 q 239 666 153 631 q 429 701 325 701 m 429 193 q 532 235 493 193 q 571 342 571 278 q 533 448 571 404 q 429 492 494 492 q 326 448 364 492 q 288 342 288 404 q 326 236 288 279 q 429 193 364 193 m 438 790 q 300 771 335 851 l 167 861 q 286 986 199 957 q 450 967 374 1015 q 590 992 544 911 l 717 901 q 608 772 682 803 q 438 790 533 740 z "},"ö":{"ha":858,"x_min":38,"x_max":821,"o":"m 133 886 q 172 974 133 942 q 263 1006 210 1006 q 355 974 315 1006 q 394 886 394 942 q 355 802 394 833 q 263 771 315 771 q 172 802 210 771 q 133 886 133 833 m 467 886 q 506 974 467 942 q 599 1006 544 1006 q 690 974 650 1006 q 729 886 729 942 q 690 802 729 833 q 599 771 650 771 q 506 802 544 771 q 467 886 467 833 m 429 706 q 239 670 325 706 q 95 551 153 635 q 38 346 38 467 q 71 185 38 256 q 160 72 104 114 q 284 9 215 31 q 429 -12 353 -12 q 705 79 589 -12 q 821 346 821 171 q 708 614 821 522 q 429 706 594 706 m 429 197 q 326 240 364 197 q 288 346 288 283 q 326 452 288 408 q 429 496 364 496 q 533 452 494 496 q 571 346 571 408 q 532 240 571 282 q 429 197 493 197 z "},"÷":{"ha":751,"x_min":53,"x_max":699,"o":"m 53 554 l 53 353 l 699 353 l 699 554 l 53 554 m 246 185 q 285 276 246 244 q 382 308 325 308 q 478 276 438 308 q 518 185 518 243 q 478 96 518 128 q 382 64 438 64 q 286 96 326 64 q 246 185 246 128 m 286 633 q 266 649 286 633 q 246 724 246 665 q 285 814 246 782 q 382 846 325 846 q 478 814 438 846 q 518 724 518 782 q 478 633 518 665 q 382 601 438 601 q 286 633 326 601 z "},"ø":{"ha":860,"x_min":39,"x_max":822,"o":"m 330 235 q 348 214 330 235 q 431 193 365 193 q 531 235 496 193 q 567 342 567 276 q 531 449 567 407 q 431 492 496 492 q 330 449 365 492 q 294 342 294 407 q 330 235 294 276 m 431 701 q 515 694 469 701 l 561 771 l 797 771 l 704 618 q 822 342 822 522 q 789 177 822 249 q 699 65 756 106 q 574 3 642 24 q 431 -17 506 -17 q 351 -11 404 -17 l 308 -83 l 71 -83 l 161 65 q 39 342 39 160 q 152 612 39 522 q 431 701 265 701 z "},"ù":{"ha":864,"x_min":67,"x_max":789,"o":"m 67 686 l 322 686 l 322 307 q 350 221 322 249 q 418 193 378 193 q 502 225 468 193 q 536 321 536 257 l 536 686 l 789 686 l 789 0 l 563 0 l 551 75 q 335 -17 471 -19 q 140 60 214 -15 q 67 306 67 135 l 67 686 m 181 974 l 181 985 l 449 985 l 556 769 l 556 763 l 332 763 l 181 974 z "},"ú":{"ha":864,"x_min":67,"x_max":789,"o":"m 322 686 l 67 686 l 67 306 q 140 60 67 135 q 335 -17 214 -15 q 551 75 471 -19 l 563 0 l 789 0 l 789 686 l 536 686 l 536 321 q 502 225 536 257 q 418 193 468 193 q 350 221 378 193 q 322 307 322 249 l 322 686 m 686 990 l 686 979 l 533 764 l 308 764 l 308 772 l 417 990 l 686 990 z "},"û":{"ha":864,"x_min":67,"x_max":789,"o":"m 322 686 l 67 686 l 67 306 q 140 60 67 135 q 335 -17 214 -15 q 551 75 471 -19 l 563 0 l 789 0 l 789 686 l 536 686 l 536 321 q 502 225 536 257 q 418 193 468 193 q 350 221 378 193 q 322 307 322 249 l 322 686 m 344 990 l 507 990 l 722 782 l 722 771 l 499 771 l 426 833 l 354 771 l 129 771 l 129 782 l 344 990 z "},"ü":{"ha":864,"x_min":67,"x_max":789,"o":"m 322 686 l 67 686 l 67 306 q 140 60 67 135 q 335 -17 214 -15 q 551 75 471 -19 l 563 0 l 789 0 l 789 686 l 536 686 l 536 321 q 502 225 536 257 q 418 193 468 193 q 350 221 378 193 q 322 307 322 249 l 322 686 m 103 874 q 141 958 103 926 q 231 989 179 989 q 321 958 282 989 q 360 874 360 926 q 321 792 360 822 q 231 763 282 763 q 141 792 179 763 q 103 874 103 822 m 500 874 q 538 958 500 926 q 629 989 576 989 q 719 958 681 989 q 757 874 757 926 q 718 792 757 822 q 629 763 679 763 q 538 792 576 763 q 500 874 500 822 z "},"ý":{"ha":808,"x_min":-4,"x_max":821,"o":"m 821 686 l 547 686 l 483 524 l 400 285 l 325 522 l 267 686 l -4 686 l 268 31 l 129 -290 l 396 -290 l 821 686 m 663 988 l 663 976 l 511 756 l 288 756 l 288 764 l 394 988 l 663 988 z "},"þ":{"ha":889,"x_min":75,"x_max":851,"o":"m 472 204 q 563 242 526 204 q 599 342 599 279 q 563 442 599 404 q 472 479 526 479 q 385 438 422 479 q 347 342 347 397 q 384 245 347 286 q 472 204 421 204 m 329 -269 l 75 -269 l 75 956 l 329 956 l 329 626 q 540 700 408 700 q 768 597 685 700 q 851 347 851 493 q 768 92 851 197 q 526 -12 685 -12 q 329 58 408 -12 l 329 -269 z "},"ÿ":{"ha":808,"x_min":-4,"x_max":821,"o":"m 821 686 l 547 686 l 483 524 l 400 285 l 325 522 l 267 686 l -4 686 l 268 31 l 129 -290 l 396 -290 l 821 686 m 85 871 q 123 958 85 926 q 214 990 161 990 q 306 958 267 990 q 346 871 346 926 q 306 787 346 818 q 214 756 267 756 q 123 787 161 756 q 85 871 85 818 m 488 871 q 526 958 488 926 q 619 990 565 990 q 710 958 671 990 q 750 871 750 926 q 710 787 750 818 q 619 756 671 756 q 526 787 565 756 q 488 871 488 818 z "},"Ā":{"ha":1107,"x_min":-21,"x_max":1128,"o":"m 833 0 l 769 160 l 335 160 l 271 0 l -21 0 l 415 972 l 693 972 l 1128 0 l 833 0 m 676 390 l 553 700 l 428 390 l 676 390 m 310 1033 l 310 1228 l 796 1228 l 796 1033 l 310 1033 z "},"ā":{"ha":900,"x_min":38,"x_max":825,"o":"m 572 613 l 585 686 l 825 686 l 825 0 l 589 0 l 578 74 q 475 6 536 26 q 351 -12 414 -15 q 120 94 203 -3 q 38 343 38 190 q 130 599 38 497 q 371 701 222 701 q 572 613 514 701 m 429 494 q 331 453 369 494 q 292 343 292 413 q 331 233 292 274 q 429 193 369 193 q 531 237 492 193 q 571 343 571 281 q 533 453 571 413 q 429 494 496 494 m 235 789 l 235 982 l 700 982 l 700 789 l 235 789 z "},"Ă":{"ha":1107,"x_min":-21,"x_max":1128,"o":"m 833 0 l 769 160 l 335 160 l 271 0 l -21 0 l 415 972 l 693 972 l 1128 0 l 833 0 m 676 390 l 553 700 l 428 390 l 676 390 m 299 1256 l 493 1256 q 513 1210 493 1222 q 553 1197 533 1197 q 577 1201 565 1197 q 601 1218 589 1204 q 614 1256 614 1232 l 808 1256 q 741 1092 811 1151 q 553 1032 671 1032 q 366 1092 436 1032 q 299 1256 296 1151 z "},"ă":{"ha":900,"x_min":38,"x_max":825,"o":"m 572 613 l 585 686 l 825 686 l 825 0 l 589 0 l 578 74 q 475 6 536 26 q 351 -12 414 -15 q 120 94 203 -3 q 38 343 38 190 q 130 599 38 497 q 371 701 222 701 q 572 613 514 701 m 429 494 q 331 453 369 494 q 292 343 292 413 q 331 233 292 274 q 429 193 369 193 q 531 237 492 193 q 571 343 571 281 q 533 453 571 413 q 429 494 496 494 m 213 992 l 404 992 q 417 956 404 969 q 441 939 429 942 q 464 936 453 936 q 487 939 475 936 q 511 956 499 942 q 524 992 524 969 l 715 992 q 649 833 718 892 q 464 775 579 775 q 279 833 349 775 q 213 992 210 892 z "},"Ą":{"ha":1107,"x_min":-21,"x_max":1136,"o":"m 807 68 l 769 160 l 335 160 l 271 0 l -21 0 l 415 972 l 693 972 l 1128 0 q 1028 3 1071 6 q 962 -6 985 1 q 924 -25 939 -14 q 910 -49 910 -36 q 913 -74 910 -61 q 970 -102 922 -101 q 1039 -89 1018 -103 l 1136 -212 q 984 -274 1079 -262 q 806 -247 889 -286 q 706 -126 722 -208 q 719 -8 692 -61 q 807 68 747 44 m 676 390 l 553 700 l 428 390 l 676 390 z "},"ą":{"ha":900,"x_min":38,"x_max":889,"o":"m 572 613 l 585 686 l 825 686 l 825 -54 q 740 -53 792 -40 q 697 -108 688 -67 q 725 -130 701 -125 q 773 -131 749 -135 q 811 -119 797 -126 l 889 -226 q 756 -277 836 -268 q 606 -254 675 -286 q 524 -153 538 -222 q 534 -56 513 -99 q 603 7 556 -14 l 583 79 q 481 6 544 28 q 351 -12 417 -17 q 120 94 203 -3 q 38 343 38 190 q 130 599 38 497 q 371 701 222 701 q 572 613 514 701 m 429 494 q 331 453 369 494 q 292 343 292 413 q 331 233 292 274 q 429 193 369 193 q 531 237 492 193 q 571 343 571 281 q 533 453 571 413 q 429 494 496 494 z "},"Ć":{"ha":982,"x_min":46,"x_max":968,"o":"m 968 126 l 807 307 q 695 233 758 257 q 578 208 632 208 q 383 288 446 208 q 318 478 319 368 q 383 672 317 586 q 578 757 449 757 q 785 672 696 757 l 954 839 q 578 994 794 994 q 341 949 446 994 q 174 830 236 904 q 78 665 111 756 q 46 479 46 575 q 76 288 46 376 q 168 128 107 200 q 334 16 229 57 q 578 -25 439 -25 q 968 126 815 -25 m 786 1276 l 786 1265 l 643 1056 l 431 1056 l 431 1064 l 532 1276 l 786 1276 z "},"ć":{"ha":721,"x_min":38,"x_max":710,"o":"m 710 103 l 564 256 q 436 199 511 199 q 327 240 367 199 q 288 340 288 281 q 327 453 288 408 q 438 497 367 497 q 556 447 507 497 l 692 594 q 422 701 585 701 q 280 680 347 701 q 158 616 213 658 q 70 503 103 574 q 38 342 38 432 q 69 178 38 249 q 157 67 101 108 q 281 6 213 26 q 426 -14 349 -14 q 710 103 579 -14 m 618 972 l 618 963 l 482 763 l 278 763 l 278 769 l 375 972 l 618 972 z "},"Ĉ":{"ha":982,"x_min":46,"x_max":968,"o":"m 968 126 l 807 307 q 695 233 758 257 q 578 208 632 208 q 383 288 446 208 q 318 478 319 368 q 383 672 317 586 q 578 757 449 757 q 785 672 696 757 l 954 839 q 578 994 794 994 q 341 949 446 994 q 174 830 236 904 q 78 665 111 756 q 46 479 46 575 q 76 288 46 376 q 168 128 107 200 q 334 16 229 57 q 578 -25 439 -25 q 968 126 815 -25 m 486 1306 l 644 1306 l 856 1088 l 856 1076 l 636 1076 l 565 1142 l 494 1076 l 275 1076 l 275 1088 l 486 1306 z "},"ĉ":{"ha":721,"x_min":38,"x_max":710,"o":"m 710 103 l 564 256 q 436 199 511 199 q 327 240 367 199 q 288 340 288 281 q 327 453 288 408 q 438 497 367 497 q 556 447 507 497 l 692 594 q 422 701 585 701 q 280 680 347 701 q 158 616 213 658 q 70 503 103 574 q 38 342 38 432 q 69 178 38 249 q 157 67 101 108 q 281 6 213 26 q 426 -14 349 -14 q 710 103 579 -14 m 342 976 l 489 976 l 685 774 l 685 764 l 481 764 l 415 824 l 350 764 l 147 764 l 147 774 l 342 976 z "},"Ċ":{"ha":982,"x_min":46,"x_max":968,"o":"m 968 126 l 807 307 q 695 233 758 257 q 578 208 632 208 q 383 288 446 208 q 318 478 319 368 q 383 672 317 586 q 578 757 449 757 q 785 672 696 757 l 954 839 q 578 994 794 994 q 341 949 446 994 q 174 830 236 904 q 78 665 111 756 q 46 479 46 575 q 76 288 46 376 q 168 128 107 200 q 334 16 229 57 q 578 -25 439 -25 q 968 126 815 -25 m 473 1107 q 452 1122 473 1107 q 432 1192 432 1138 q 473 1276 432 1246 q 569 1307 514 1307 q 666 1276 625 1307 q 707 1192 707 1246 q 666 1107 707 1138 q 569 1076 625 1076 q 473 1107 514 1076 z "},"ċ":{"ha":721,"x_min":38,"x_max":710,"o":"m 710 103 l 564 256 q 436 199 511 199 q 327 240 367 199 q 288 340 288 281 q 327 453 288 408 q 438 497 367 497 q 556 447 507 497 l 692 594 q 422 701 585 701 q 280 680 347 701 q 158 616 213 658 q 70 503 103 574 q 38 342 38 432 q 69 178 38 249 q 157 67 101 108 q 281 6 213 26 q 426 -14 349 -14 q 710 103 579 -14 m 292 886 q 328 967 292 939 q 417 996 365 996 q 505 967 468 996 q 542 886 542 939 q 504 806 542 835 q 417 776 467 776 q 329 806 367 776 q 292 886 292 835 z "},"Č":{"ha":982,"x_min":46,"x_max":968,"o":"m 968 126 l 807 307 q 695 233 758 257 q 578 208 632 208 q 383 288 446 208 q 318 478 319 368 q 383 672 317 586 q 578 757 449 757 q 785 672 696 757 l 954 839 q 578 994 794 994 q 341 949 446 994 q 174 830 236 904 q 78 665 111 756 q 46 479 46 575 q 76 288 46 376 q 168 128 107 200 q 334 16 229 57 q 578 -25 439 -25 q 968 126 815 -25 m 651 1057 l 492 1057 l 281 1260 l 281 1269 l 500 1269 l 572 1210 l 643 1269 l 863 1269 l 863 1260 l 651 1057 z "},"č":{"ha":721,"x_min":38,"x_max":710,"o":"m 710 103 l 564 256 q 436 199 511 199 q 327 240 367 199 q 288 340 288 281 q 327 453 288 408 q 438 497 367 497 q 556 447 507 497 l 692 594 q 422 701 585 701 q 280 680 347 701 q 158 616 213 658 q 70 503 103 574 q 38 342 38 432 q 69 178 38 249 q 157 67 101 108 q 281 6 213 26 q 426 -14 349 -14 q 710 103 579 -14 m 483 767 l 336 767 l 139 961 l 139 971 l 343 971 l 410 913 l 475 971 l 681 971 l 681 961 l 483 767 z "},"Ď":{"ha":1071,"x_min":99,"x_max":1024,"o":"m 515 972 l 99 972 l 99 0 l 515 0 q 894 140 764 0 q 1024 493 1024 279 q 893 838 1024 704 q 515 972 763 972 m 371 232 l 371 743 l 515 743 q 693 674 635 743 q 751 496 751 604 q 694 308 751 383 q 515 232 638 232 l 371 232 m 553 1061 l 381 1061 l 151 1263 l 151 1272 l 390 1272 l 467 1213 l 543 1272 l 781 1272 l 781 1263 l 553 1061 z "},"ď":{"ha":1003,"x_min":39,"x_max":1124,"o":"m 563 628 l 563 972 l 818 972 l 818 0 l 590 0 l 579 74 q 476 6 538 26 q 353 -12 415 -15 q 120 89 201 -3 q 39 343 39 181 q 131 601 39 501 q 372 701 224 701 q 563 628 503 701 m 431 494 q 332 453 371 494 q 293 343 293 413 q 332 233 293 274 q 431 193 371 193 q 530 236 492 193 q 568 336 568 279 q 532 449 568 403 q 431 494 496 494 m 853 667 l 914 974 l 1124 974 l 1017 667 l 853 667 z "},"Đ":{"ha":1065,"x_min":24,"x_max":1019,"o":"m 24 396 l 24 588 l 106 588 l 106 972 l 522 972 q 743 931 646 972 q 899 820 840 890 q 987 666 957 750 q 1018 489 1017 582 q 990 308 1019 394 q 903 153 961 222 q 747 42 844 83 q 522 0 649 0 l 106 0 l 106 396 l 24 396 m 374 396 l 374 232 l 522 232 q 694 308 639 232 q 746 492 750 385 q 687 667 742 594 q 522 740 632 740 l 374 740 l 374 588 l 508 588 l 508 396 l 374 396 z "},"đ":{"ha":893,"x_min":39,"x_max":904,"o":"m 446 754 l 446 907 l 563 907 l 563 972 l 818 972 l 818 907 l 904 907 l 904 754 l 818 754 l 818 0 l 590 0 l 579 74 q 476 6 538 26 q 353 -12 415 -15 q 120 89 201 -3 q 39 343 39 181 q 131 601 39 501 q 372 701 224 701 q 563 628 503 701 l 563 754 l 446 754 m 431 494 q 332 453 371 494 q 293 343 293 413 q 332 233 293 274 q 431 193 371 193 q 530 236 492 193 q 568 336 568 279 q 532 449 568 403 q 431 494 496 494 z "},"Ē":{"ha":933,"x_min":99,"x_max":876,"o":"m 876 232 l 876 0 l 99 0 l 99 972 l 857 972 l 857 742 l 369 742 l 369 603 l 829 603 l 829 379 l 369 379 l 369 232 l 876 232 m 265 1051 l 265 1238 l 731 1238 l 731 1051 l 265 1051 z "},"ē":{"ha":819,"x_min":38,"x_max":818,"o":"m 297 435 l 546 435 q 485 508 543 486 q 366 508 426 529 q 297 435 306 488 m 419 703 q 713 585 608 703 q 775 271 818 468 l 296 271 q 354 206 308 229 q 449 183 400 183 q 625 239 551 183 l 750 99 q 438 -15 628 -15 q 150 74 263 -15 q 38 342 38 164 q 151 610 38 517 q 419 703 265 703 m 214 783 l 214 963 l 647 963 l 647 783 l 214 783 z "},"Ĕ":{"ha":933,"x_min":99,"x_max":876,"o":"m 876 232 l 876 0 l 99 0 l 99 972 l 857 972 l 857 742 l 369 742 l 369 603 l 829 603 l 829 379 l 369 379 l 369 232 l 876 232 m 242 1251 l 429 1251 q 442 1217 429 1231 q 465 1201 454 1204 q 488 1197 476 1197 q 510 1201 499 1197 q 533 1217 521 1204 q 546 1251 546 1231 l 733 1251 q 669 1098 736 1154 q 488 1042 601 1042 q 307 1098 375 1042 q 242 1251 239 1154 z "},"ĕ":{"ha":819,"x_min":38,"x_max":818,"o":"m 297 435 l 546 435 q 485 508 543 486 q 366 508 426 529 q 297 435 306 488 m 419 703 q 713 585 608 703 q 775 271 818 468 l 296 271 q 354 206 308 229 q 449 183 400 183 q 625 239 551 183 l 750 99 q 438 -15 628 -15 q 150 74 263 -15 q 38 342 38 164 q 151 610 38 517 q 419 703 265 703 m 192 986 l 381 986 q 440 931 381 931 q 499 986 499 931 l 689 986 q 623 826 692 885 q 440 768 554 768 q 256 826 325 768 q 192 986 188 885 z "},"Ė":{"ha":933,"x_min":99,"x_max":876,"o":"m 876 0 l 876 232 l 369 232 l 369 379 l 829 379 l 829 603 l 369 603 l 369 742 l 857 742 l 857 972 l 99 972 l 99 0 l 876 0 m 400 1087 q 378 1102 400 1087 q 357 1174 357 1118 q 400 1260 357 1229 q 503 1292 443 1292 q 605 1260 561 1292 q 649 1174 649 1229 q 605 1087 649 1118 q 503 1056 561 1056 q 400 1087 443 1056 z "},"ė":{"ha":819,"x_min":38,"x_max":818,"o":"m 297 435 l 546 435 q 485 508 543 486 q 366 508 426 529 q 297 435 306 488 m 419 703 q 713 585 608 703 q 775 271 818 468 l 296 271 q 354 206 308 229 q 449 183 400 183 q 625 239 551 183 l 750 99 q 438 -15 628 -15 q 150 74 263 -15 q 38 342 38 164 q 151 610 38 517 q 419 703 265 703 m 331 790 q 310 805 331 790 q 289 876 289 821 q 331 964 289 932 q 429 996 372 996 q 528 964 486 996 q 569 876 569 932 q 528 790 569 821 q 429 758 486 758 q 331 790 372 758 z "},"Ę":{"ha":933,"x_min":99,"x_max":944,"o":"m 876 232 l 876 0 q 809 1 839 4 q 763 -9 779 -1 q 735 -27 746 -17 q 726 -49 725 -37 q 731 -71 726 -60 q 764 -90 739 -86 q 812 -88 789 -93 q 850 -75 835 -83 l 944 -192 q 819 -254 896 -233 q 665 -262 743 -275 q 547 -197 588 -249 q 525 -92 513 -151 q 590 0 538 -32 l 99 0 l 99 972 l 857 972 l 857 742 l 369 742 l 369 603 l 829 603 l 829 379 l 369 379 l 369 232 l 876 232 z "},"ę":{"ha":821,"x_min":38,"x_max":818,"o":"m 419 703 q 713 585 608 703 q 775 271 818 468 l 296 271 q 354 206 308 229 q 449 183 400 183 q 625 239 551 183 l 750 99 q 564 0 671 25 q 525 -54 517 -17 q 581 -85 533 -83 q 658 -61 629 -86 l 746 -172 q 626 -240 706 -222 q 469 -235 546 -258 q 360 -156 392 -212 q 350 -77 340 -117 q 396 -14 360 -37 q 137 86 236 -3 q 38 342 38 175 q 151 610 38 517 q 419 703 265 703 m 297 435 l 546 435 q 485 508 543 486 q 366 508 426 529 q 297 435 306 488 z "},"Ě":{"ha":933,"x_min":99,"x_max":876,"o":"m 876 0 l 876 232 l 369 232 l 369 379 l 829 379 l 829 603 l 369 603 l 369 742 l 857 742 l 857 972 l 99 972 l 99 0 l 876 0 m 574 1042 l 414 1042 l 201 1240 l 201 1251 l 422 1251 l 494 1192 l 565 1251 l 786 1251 l 786 1240 l 574 1042 z "},"ě":{"ha":819,"x_min":38,"x_max":818,"o":"m 297 435 l 546 435 q 485 508 543 486 q 366 508 426 529 q 297 435 306 488 m 419 703 q 713 585 608 703 q 775 271 818 468 l 296 271 q 354 206 308 229 q 449 183 400 183 q 625 239 551 183 l 750 99 q 438 -15 628 -15 q 150 74 263 -15 q 38 342 38 164 q 151 610 38 517 q 419 703 265 703 m 507 764 l 350 764 l 139 961 l 139 971 l 358 971 l 428 911 l 499 971 l 718 971 l 718 961 l 507 764 z "},"Ĝ":{"ha":1050,"x_min":44,"x_max":993,"o":"m 799 685 l 958 843 q 779 967 869 933 q 576 1000 689 1000 q 340 956 444 1000 q 173 837 236 911 q 77 673 110 763 q 44 485 44 583 q 74 297 44 385 q 165 135 104 208 q 331 17 225 61 q 575 -26 436 -26 q 834 24 719 -26 q 993 164 949 74 l 993 596 l 518 596 l 518 381 l 764 381 l 764 256 q 576 206 694 206 q 423 251 485 206 q 338 356 361 296 q 315 485 315 415 q 385 697 315 624 q 576 769 454 769 q 799 685 708 769 m 482 1283 l 646 1283 l 865 1075 l 865 1065 l 638 1065 l 564 1128 l 490 1065 l 263 1065 l 263 1075 l 482 1283 z "},"ĝ":{"ha":847,"x_min":36,"x_max":806,"o":"m 47 -49 l 288 -49 q 417 -179 285 -179 q 507 -153 471 -179 q 543 -81 543 -128 q 419 11 543 11 q 142 105 246 11 q 38 357 38 199 q 147 612 38 515 q 419 708 256 708 q 561 682 489 708 l 621 763 l 804 628 l 731 539 q 796 354 800 461 q 671 126 793 215 q 806 -81 806 50 q 773 -222 806 -161 q 684 -317 740 -282 q 560 -369 628 -351 q 417 -386 493 -386 q 135 -297 233 -386 q 47 -49 36 -207 m 419 499 q 324 461 361 499 q 286 357 286 424 q 324 260 286 297 q 419 222 363 222 q 511 257 474 222 q 549 357 549 292 q 512 458 549 417 q 419 499 475 499 m 351 1015 l 522 1015 l 750 803 l 750 793 l 514 793 l 436 856 l 360 793 l 122 793 l 122 803 l 351 1015 z "},"Ğ":{"ha":1050,"x_min":44,"x_max":993,"o":"m 958 843 l 799 685 q 576 769 708 769 q 385 697 454 769 q 315 485 315 624 q 338 356 315 415 q 423 251 361 296 q 576 206 485 206 q 764 256 694 206 l 764 381 l 518 381 l 518 596 l 993 596 l 993 164 q 834 24 949 74 q 575 -26 719 -26 q 331 17 436 -26 q 165 135 225 61 q 74 297 104 208 q 44 485 44 385 q 77 673 44 583 q 173 837 110 763 q 340 956 236 911 q 576 1000 444 1000 q 779 967 689 1000 q 958 843 869 933 m 307 1288 l 503 1288 q 523 1242 503 1254 q 564 1229 543 1229 q 587 1233 575 1229 q 612 1250 599 1236 q 625 1288 625 1264 l 821 1288 q 753 1124 824 1183 q 564 1065 682 1065 q 374 1125 444 1065 q 307 1288 303 1185 z "},"ğ":{"ha":854,"x_min":36,"x_max":819,"o":"m 47 -49 l 288 -49 q 417 -179 285 -179 q 507 -153 471 -179 q 543 -81 543 -128 q 419 11 543 11 q 142 105 246 11 q 38 357 38 199 q 147 612 38 515 q 419 708 256 708 q 561 682 489 708 q 597 727 571 694 q 635 776 622 760 l 819 644 l 731 539 q 796 354 800 461 q 671 126 793 215 q 806 -81 806 50 q 773 -222 806 -161 q 684 -317 740 -282 q 560 -369 628 -351 q 417 -386 493 -386 q 135 -297 233 -386 q 47 -49 36 -207 m 419 499 q 324 461 361 499 q 286 357 286 424 q 324 260 286 297 q 419 222 363 222 q 511 257 474 222 q 549 357 549 292 q 512 458 549 417 q 419 499 475 499 m 160 1000 l 356 1000 q 368 964 356 978 q 393 947 381 950 q 417 943 406 943 q 440 947 428 943 q 465 964 451 950 q 478 1000 478 978 l 674 1000 q 606 839 676 897 q 417 781 535 781 q 226 839 297 781 q 160 1000 156 897 z "},"Ġ":{"ha":1050,"x_min":44,"x_max":993,"o":"m 799 685 l 958 843 q 779 967 869 933 q 576 1000 689 1000 q 340 956 444 1000 q 173 837 236 911 q 77 673 110 763 q 44 485 44 583 q 74 297 44 385 q 165 135 104 208 q 331 17 225 61 q 575 -26 436 -26 q 834 24 719 -26 q 993 164 949 74 l 993 596 l 518 596 l 518 381 l 764 381 l 764 256 q 576 206 694 206 q 423 251 485 206 q 338 356 361 296 q 315 485 315 415 q 385 697 315 624 q 576 769 454 769 q 799 685 708 769 m 471 1101 q 449 1117 471 1101 q 428 1192 428 1133 q 471 1283 428 1250 q 574 1315 514 1315 q 675 1283 632 1315 q 718 1192 718 1250 q 675 1101 718 1133 q 574 1068 632 1068 q 471 1101 514 1068 z "},"ġ":{"ha":854,"x_min":36,"x_max":819,"o":"m 47 -49 l 288 -49 q 417 -179 285 -179 q 507 -153 471 -179 q 543 -81 543 -128 q 419 11 543 11 q 142 105 246 11 q 38 357 38 199 q 147 612 38 515 q 419 708 256 708 q 561 682 489 708 q 597 727 571 694 q 635 776 622 760 l 819 644 l 731 539 q 796 354 800 461 q 671 126 793 215 q 806 -81 806 50 q 773 -222 806 -161 q 684 -317 740 -282 q 560 -369 628 -351 q 417 -386 493 -386 q 135 -297 233 -386 q 47 -49 36 -207 m 419 499 q 324 461 361 499 q 286 357 286 424 q 324 260 286 297 q 419 222 363 222 q 511 257 474 222 q 549 357 549 292 q 512 458 549 417 q 419 499 475 499 m 324 812 q 302 828 324 812 q 281 903 281 844 q 324 994 281 961 q 425 1026 367 1026 q 526 994 483 1026 q 569 903 569 961 q 526 812 569 844 q 425 779 483 779 q 324 812 367 779 z "},"Ģ":{"ha":1050,"x_min":44,"x_max":993,"o":"m 958 843 l 799 685 q 576 769 708 769 q 385 697 454 769 q 315 485 315 624 q 338 356 315 415 q 423 251 361 296 q 576 206 485 206 q 764 256 694 206 l 764 381 l 518 381 l 518 596 l 993 596 l 993 164 q 834 24 949 74 q 575 -26 719 -26 q 331 17 436 -26 q 165 135 225 61 q 74 297 104 208 q 44 485 44 385 q 77 673 44 583 q 173 837 110 763 q 340 956 236 911 q 576 1000 444 1000 q 779 967 689 1000 q 958 843 869 933 m 694 -196 q 614 -424 694 -262 l 479 -424 l 510 -285 q 435 -194 435 -271 q 475 -114 435 -143 q 571 -85 515 -85 q 658 -114 622 -85 q 694 -196 694 -143 z "},"ģ":{"ha":854,"x_min":36,"x_max":819,"o":"m 290 906 q 299 958 292 929 q 315 1006 307 988 q 340 1060 324 1025 q 363 1108 357 1094 l 525 1108 l 501 986 q 569 908 571 965 q 527 825 568 854 q 431 796 486 796 q 332 826 375 796 q 290 906 289 856 m 47 -49 l 288 -49 q 417 -179 285 -179 q 507 -153 471 -179 q 543 -81 543 -128 q 419 11 543 11 q 142 105 246 11 q 38 357 38 199 q 147 612 38 515 q 419 708 256 708 q 561 682 489 708 q 597 727 571 694 q 635 776 622 760 l 819 644 l 731 539 q 796 354 800 461 q 671 126 793 215 q 806 -81 806 50 q 773 -222 806 -161 q 684 -317 740 -282 q 560 -369 628 -351 q 417 -386 493 -386 q 135 -297 233 -386 q 47 -49 36 -207 m 419 499 q 324 461 361 499 q 286 357 286 424 q 324 260 286 297 q 419 222 363 222 q 511 257 474 222 q 549 357 549 292 q 512 458 549 417 q 419 499 475 499 z "},"Ĥ":{"ha":1094,"x_min":99,"x_max":996,"o":"m 724 0 l 996 0 l 996 972 l 724 972 l 724 603 l 374 603 l 374 972 l 99 972 l 99 0 l 374 0 l 374 368 l 724 368 l 724 0 m 457 1286 l 624 1286 l 846 1069 l 846 1058 l 615 1058 l 540 1122 l 467 1058 l 235 1058 l 235 1069 l 457 1286 z "},"ĥ":{"ha":851,"x_min":75,"x_max":786,"o":"m 333 972 l 75 972 l 75 0 l 332 0 l 332 363 q 365 450 333 419 q 439 481 397 481 q 532 379 528 481 l 532 0 l 786 0 l 786 381 q 709 622 786 543 q 517 701 632 701 q 333 613 403 701 l 333 972 m 344 1265 l 496 1265 l 699 1054 l 699 1044 l 488 1044 l 419 1107 l 351 1044 l 142 1044 l 142 1054 l 344 1265 z "},"Ħ":{"ha":1108,"x_min":24,"x_max":1089,"o":"m 1003 -1 l 731 -1 l 731 360 l 381 360 l 381 -1 l 106 -1 l 106 696 l 24 696 l 24 853 l 106 853 l 106 971 l 381 971 l 381 853 l 731 853 l 731 971 l 1003 971 l 1003 853 l 1089 853 l 1089 696 l 1003 696 l 1003 -1 m 381 593 l 731 593 l 731 696 l 381 696 l 381 593 z "},"ħ":{"ha":851,"x_min":-1,"x_max":786,"o":"m -1 749 l -1 903 l 75 903 l 75 972 l 333 972 l 333 903 l 446 903 l 446 749 l 333 749 l 333 613 q 517 701 403 701 q 709 622 632 701 q 786 381 786 543 l 786 0 l 532 0 l 532 379 q 439 481 528 481 q 365 450 397 481 q 332 363 333 419 l 332 0 l 75 0 l 75 749 l -1 749 z "},"Ĩ":{"ha":471,"x_min":-47,"x_max":519,"o":"m 372 0 l 99 0 l 99 972 l 372 972 l 372 0 m 232 1086 q 90 1067 125 1146 l -47 1157 q 76 1279 -14 1250 q 244 1261 167 1308 q 389 1285 342 1204 l 519 1196 q 406 1067 483 1099 q 232 1086 329 1036 z "},"ĩ":{"ha":406,"x_min":-21,"x_max":432,"o":"m 331 0 l 75 0 l 75 686 l 331 686 l 331 0 m 203 790 q 89 771 117 850 l -21 858 q 38 953 -3 919 q 123 987 78 988 q 213 960 168 986 q 328 983 292 907 l 432 897 q 342 773 403 803 q 203 790 281 743 z "},"Ī":{"ha":471,"x_min":24,"x_max":442,"o":"m 372 0 l 99 0 l 99 972 l 372 972 l 372 0 m 24 1057 l 24 1257 l 442 1257 l 442 1057 l 24 1057 z "},"ī":{"ha":406,"x_min":22,"x_max":388,"o":"m 331 0 l 75 0 l 75 686 l 331 686 l 331 0 m 22 782 l 22 968 l 388 968 l 388 782 l 22 782 z "},"Ĭ":{"ha":471,"x_min":-12,"x_max":482,"o":"m 372 0 l 99 0 l 99 972 l 372 972 l 372 0 m -10 1282 l 176 1282 q 189 1242 176 1257 q 213 1224 201 1228 q 235 1221 224 1221 q 257 1224 246 1221 q 281 1242 268 1228 q 293 1282 293 1257 l 479 1282 q 415 1109 482 1172 q 235 1046 347 1046 q 55 1109 122 1046 q -10 1282 -12 1172 z "},"ĭ":{"ha":406,"x_min":-12,"x_max":422,"o":"m 331 0 l 75 0 l 75 686 l 331 686 l 331 0 m -10 974 l 154 974 q 165 936 154 950 q 185 919 175 922 q 206 917 196 917 q 225 919 215 917 q 246 936 235 922 q 257 974 257 950 l 421 974 q 363 810 422 869 q 206 751 304 751 q 47 810 106 751 q -10 974 -12 869 z "},"Į":{"ha":471,"x_min":42,"x_max":449,"o":"m 250 -62 q 300 -89 257 -89 q 363 -76 343 -89 l 449 -192 q 322 -254 401 -235 q 167 -253 243 -274 q 61 -168 90 -232 q 53 -74 42 -122 q 99 4 64 -26 l 99 972 l 372 972 l 372 0 l 317 0 q 263 -20 283 -3 q 250 -62 243 -37 z "},"į":{"ha":408,"x_min":10,"x_max":397,"o":"m 61 863 q 104 958 61 924 q 206 992 147 992 q 306 958 264 992 q 349 863 349 924 q 306 769 349 803 q 206 735 263 735 q 104 769 147 735 q 61 863 61 803 m 335 -21 l 333 0 l 333 675 l 76 675 l 76 14 q 24 -128 10 -40 q 108 -236 35 -203 q 265 -257 182 -269 q 397 -201 349 -244 l 321 -87 q 251 -106 296 -107 q 200 -78 207 -104 q 238 -24 190 -37 q 335 -21 286 -10 z "},"İ":{"ha":471,"x_min":79,"x_max":382,"o":"m 99 0 l 372 0 l 372 972 l 99 972 l 99 0 m 79 1160 q 124 1249 79 1217 q 231 1281 168 1281 q 337 1249 292 1281 q 382 1160 382 1217 q 337 1069 382 1101 q 231 1038 292 1038 q 124 1069 168 1038 q 79 1160 79 1101 z "},"ı":{"ha":406,"x_min":75,"x_max":331,"o":"m 331 0 l 75 0 l 75 686 l 331 686 l 331 0 z "},"Ĳ":{"ha":1482,"x_min":99,"x_max":1397,"o":"m 372 0 l 99 0 l 99 972 l 372 972 l 372 0 m 492 419 l 760 419 q 811 267 761 317 q 939 218 861 218 q 1074 270 1026 218 q 1122 421 1122 322 l 1122 742 l 864 742 l 864 972 l 1397 972 l 1397 419 q 1276 101 1397 222 q 936 -21 1154 -21 q 492 419 492 -21 z "},"ĳ":{"ha":813,"x_min":60,"x_max":754,"o":"m 60 863 q 103 958 60 924 q 204 992 146 992 q 305 958 263 992 q 347 863 347 924 q 304 769 347 803 q 204 735 261 735 q 103 769 146 735 q 60 863 60 803 m 75 0 l 332 0 l 332 675 l 75 675 l 75 0 m 467 863 q 510 958 467 924 q 611 992 553 992 q 712 958 669 992 q 754 863 754 924 q 711 769 754 803 q 611 735 668 735 q 510 769 553 735 q 467 863 467 803 m 358 -100 l 310 -279 q 469 -323 392 -319 q 606 -297 547 -326 q 701 -198 665 -267 q 738 -32 738 -129 l 738 675 l 482 675 l 482 -32 q 448 -114 482 -96 q 358 -100 414 -132 z "},"Ĵ":{"ha":1011,"x_min":21,"x_max":926,"o":"m 289 419 l 21 419 q 465 -21 21 -21 q 805 101 683 -21 q 926 419 926 222 l 926 972 l 393 972 l 393 742 l 651 742 l 651 421 q 603 270 651 322 q 468 218 556 218 q 340 267 390 218 q 289 419 290 317 m 521 1283 l 686 1283 l 906 1056 l 906 1043 l 678 1043 l 604 1111 l 531 1043 l 301 1043 l 301 1056 l 521 1283 z "},"ĵ":{"ha":406,"x_min":-97,"x_max":428,"o":"m 100 1004 l 240 1004 l 428 765 l 428 753 l 233 753 l 169 825 l 107 753 l -89 753 l -89 765 l 100 1004 m -49 -100 l -97 -279 q 63 -323 -15 -319 q 199 -297 140 -326 q 294 -198 258 -267 q 331 -32 331 -129 l 331 675 l 75 675 l 75 -32 q 42 -114 75 -96 q -49 -100 8 -132 z "},"Ķ":{"ha":976,"x_min":99,"x_max":992,"o":"m 958 972 l 958 956 l 564 496 q 992 17 808 226 l 992 0 l 651 0 l 374 324 l 374 0 l 99 0 l 99 972 l 374 972 l 374 653 q 629 972 425 717 l 958 972 m 624 -175 q 540 -400 624 -239 l 400 -400 l 431 -262 q 353 -174 353 -249 q 394 -94 353 -124 q 494 -65 436 -65 q 586 -94 549 -65 q 624 -175 624 -122 z "},"ķ":{"ha":790,"x_min":75,"x_max":799,"o":"m 75 972 l 332 972 l 332 485 l 475 686 l 760 686 l 760 675 l 519 364 l 799 15 l 799 0 l 510 0 l 332 239 l 332 0 l 75 0 l 75 972 m 538 -174 q 457 -401 538 -240 l 324 -401 l 353 -262 q 279 -172 279 -249 q 319 -92 279 -121 q 414 -62 358 -62 q 501 -92 465 -62 q 538 -174 538 -121 z "},"ĸ":{"ha":790,"x_min":75,"x_max":799,"o":"m 75 688 l 332 688 l 332 485 l 475 686 l 760 686 l 760 675 l 519 364 l 799 15 l 799 0 l 510 0 l 332 239 l 332 0 l 75 0 l 75 688 z "},"Ĺ":{"ha":861,"x_min":99,"x_max":839,"o":"m 374 972 l 99 972 l 99 0 l 839 0 l 839 233 l 374 233 l 374 972 m 492 1264 l 492 1254 l 339 1051 l 113 1051 l 113 1060 l 221 1264 l 492 1264 z "},"ĺ":{"ha":403,"x_min":75,"x_max":444,"o":"m 328 974 l 75 974 l 75 0 l 328 0 l 328 974 m 444 1258 l 444 1249 l 300 1051 l 88 1051 l 88 1058 l 189 1258 l 444 1258 z "},"Ļ":{"ha":861,"x_min":99,"x_max":839,"o":"m 99 972 l 374 972 l 374 233 l 839 233 l 839 0 l 99 0 l 99 972 m 597 -176 q 517 -411 597 -246 l 383 -411 l 413 -268 q 339 -175 339 -254 q 378 -92 339 -122 q 474 -62 418 -62 q 561 -92 525 -62 q 597 -176 597 -122 z "},"ļ":{"ha":403,"x_min":69,"x_max":328,"o":"m 75 974 l 328 974 l 328 0 l 75 0 l 75 974 m 328 -183 q 247 -418 328 -253 l 114 -418 l 143 -275 q 69 -182 69 -261 q 109 -99 69 -129 q 204 -69 149 -69 q 292 -99 256 -69 q 328 -183 328 -129 z "},"Ľ":{"ha":864,"x_min":99,"x_max":839,"o":"m 99 972 l 374 972 l 374 233 l 839 233 l 839 0 l 99 0 l 99 972 m 526 649 l 592 975 l 815 975 l 701 649 l 526 649 z "},"ľ":{"ha":532,"x_min":75,"x_max":651,"o":"m 75 975 l 328 975 l 328 0 l 75 0 l 75 975 m 363 644 l 428 972 l 651 972 l 538 644 l 363 644 z "},"Ŀ":{"ha":861,"x_min":99,"x_max":839,"o":"m 99 972 l 374 972 l 374 233 l 839 233 l 839 0 l 99 0 l 99 972 m 726 423 q 707 402 726 423 q 619 382 688 382 q 513 423 551 382 q 474 514 474 464 q 513 605 474 564 q 619 646 551 646 q 726 605 688 646 q 765 514 765 564 q 726 423 765 464 z "},"ŀ":{"ha":668,"x_min":75,"x_max":682,"o":"m 75 974 l 328 974 l 328 0 l 75 0 l 75 974 m 643 381 q 624 361 643 381 q 536 340 604 340 q 429 381 468 340 q 390 472 390 422 q 429 563 390 522 q 536 604 468 604 q 643 563 604 604 q 682 472 682 522 q 643 381 682 422 z "},"Ł":{"ha":872,"x_min":15,"x_max":851,"o":"m 385 629 l 522 701 l 522 494 l 385 425 l 385 231 l 851 231 l 851 0 l 111 0 l 111 290 l 15 242 l 15 443 l 111 492 l 111 972 l 385 972 l 385 629 z "},"ł":{"ha":460,"x_min":18,"x_max":440,"o":"m 440 653 l 440 471 l 351 426 l 351 0 l 99 0 l 99 299 l 18 254 l 18 442 l 99 483 l 99 954 l 351 954 l 351 610 l 440 653 z "},"Ń":{"ha":1110,"x_min":99,"x_max":1011,"o":"m 743 440 l 332 972 l 99 972 l 99 0 l 376 0 l 376 311 l 372 524 l 778 0 l 1011 0 l 1011 972 l 735 972 l 735 639 q 743 440 740 483 m 796 1276 l 796 1265 l 636 1050 l 400 1050 l 400 1058 l 513 1276 l 796 1276 z "},"ń":{"ha":864,"x_min":75,"x_max":797,"o":"m 542 0 l 797 0 l 797 381 q 724 626 797 551 q 529 703 650 701 q 313 611 393 706 l 301 686 l 75 686 l 75 0 l 328 0 l 328 361 q 362 459 328 425 q 446 493 396 493 q 514 465 486 493 q 542 379 542 438 l 542 0 m 664 989 l 664 979 l 521 771 l 311 771 l 311 779 l 411 989 l 664 989 z "},"Ņ":{"ha":1110,"x_min":99,"x_max":1011,"o":"m 332 972 l 743 440 q 735 639 740 483 l 735 972 l 1011 972 l 1011 0 l 778 0 l 372 524 l 376 311 l 376 0 l 99 0 l 99 972 l 332 972 m 697 -160 q 617 -394 697 -229 l 483 -394 l 513 -251 q 439 -158 439 -237 q 478 -76 439 -106 q 574 -46 518 -46 q 661 -76 625 -46 q 697 -160 697 -106 z "},"ņ":{"ha":864,"x_min":75,"x_max":797,"o":"m 797 0 l 542 0 l 542 379 q 514 465 542 438 q 446 493 486 493 q 362 459 396 493 q 328 361 328 425 l 328 0 l 75 0 l 75 686 l 301 686 l 313 611 q 529 703 393 706 q 724 626 650 701 q 797 381 797 551 l 797 0 m 563 -168 q 482 -403 563 -237 l 349 -403 l 378 -260 q 304 -167 304 -246 q 344 -84 304 -114 q 439 -54 383 -54 q 526 -84 490 -54 q 563 -168 563 -114 z "},"Ň":{"ha":1110,"x_min":99,"x_max":1011,"o":"m 743 440 l 332 972 l 99 972 l 99 0 l 376 0 l 376 311 l 372 524 l 778 0 l 1011 0 l 1011 972 l 735 972 l 735 639 q 743 440 740 483 m 631 1046 l 474 1046 l 263 1247 l 263 1257 l 482 1257 l 551 1197 l 622 1257 l 842 1257 l 842 1247 l 631 1046 z "},"ň":{"ha":864,"x_min":75,"x_max":797,"o":"m 542 0 l 797 0 l 797 381 q 724 626 797 551 q 529 703 650 701 q 313 611 393 706 l 301 686 l 75 686 l 75 0 l 328 0 l 328 361 q 362 459 328 425 q 446 493 396 493 q 514 465 486 493 q 542 379 542 438 l 542 0 m 514 768 l 363 768 l 160 967 l 160 978 l 369 978 l 438 918 l 506 978 l 715 978 l 715 967 l 514 768 z "},"ŉ":{"ha":864,"x_min":75,"x_max":797,"o":"m 797 0 l 542 0 l 542 379 q 514 465 542 438 q 446 493 486 493 q 362 459 396 493 q 328 361 328 425 l 328 0 l 75 0 l 75 686 l 301 686 l 313 611 q 529 703 393 706 q 724 626 650 701 q 797 381 797 551 l 797 0 z "},"Ŋ":{"ha":1103,"x_min":99,"x_max":1004,"o":"m 731 972 l 1004 972 l 1004 -32 q 890 -297 1004 -232 q 576 -279 775 -361 l 625 -100 q 717 -113 681 -132 q 754 -32 754 -94 l 754 38 q 508 344 628 197 q 374 508 389 490 l 374 0 l 99 0 l 99 972 l 328 972 l 731 460 l 731 972 z "},"ŋ":{"ha":864,"x_min":75,"x_max":797,"o":"m 369 -275 l 418 -100 q 510 -110 475 -131 q 544 -32 544 -90 l 544 379 q 515 465 544 438 q 446 493 486 493 q 362 459 396 493 q 328 361 328 425 l 328 0 l 75 0 l 75 686 l 301 686 l 313 611 q 529 703 393 706 q 724 626 650 701 q 797 381 797 551 l 797 -35 q 761 -197 797 -129 q 666 -293 725 -264 q 529 -319 607 -322 q 369 -275 451 -315 z "},"Ō":{"ha":1169,"x_min":44,"x_max":1125,"o":"m 977 860 q 1051 793 977 860 q 1125 486 1125 725 q 977 112 1125 247 q 585 -24 829 -24 q 193 112 342 -24 q 44 486 44 247 q 194 859 44 722 q 585 996 343 996 q 977 860 829 996 m 850 486 q 778 686 850 611 q 585 761 706 761 q 393 684 467 761 q 319 486 319 607 q 394 288 319 364 q 585 211 468 211 q 777 288 704 211 q 850 486 850 364 m 340 1069 l 340 1264 l 826 1264 l 826 1069 l 340 1069 z "},"ō":{"ha":858,"x_min":38,"x_max":821,"o":"m 429 701 q 708 610 594 701 q 821 342 821 518 q 705 75 821 167 q 429 -17 589 -17 q 284 5 353 -17 q 160 68 215 26 q 71 181 104 110 q 38 342 38 251 q 95 547 38 463 q 239 666 153 631 q 429 701 325 701 m 429 193 q 532 235 493 193 q 571 342 571 278 q 533 448 571 404 q 429 492 494 492 q 326 448 364 492 q 288 342 288 404 q 326 236 288 279 q 429 193 364 193 m 217 771 l 217 969 l 640 969 l 640 771 l 217 771 z "},"Ŏ":{"ha":1169,"x_min":44,"x_max":1125,"o":"m 977 860 q 1051 793 977 860 q 1125 486 1125 725 q 977 112 1125 247 q 585 -24 829 -24 q 193 112 342 -24 q 44 486 44 247 q 194 859 44 722 q 585 996 343 996 q 977 860 829 996 m 850 486 q 778 686 850 611 q 585 761 706 761 q 393 684 467 761 q 319 486 319 607 q 394 288 319 364 q 585 211 468 211 q 777 288 704 211 q 850 486 850 364 m 329 1276 l 526 1276 q 540 1240 526 1254 q 565 1223 553 1226 q 589 1219 576 1219 q 612 1223 600 1219 q 637 1240 624 1226 q 650 1276 650 1254 l 849 1276 q 780 1115 851 1174 q 589 1057 708 1057 q 398 1115 469 1057 q 329 1276 326 1174 z "},"ŏ":{"ha":858,"x_min":38,"x_max":821,"o":"m 429 701 q 708 610 594 701 q 821 342 821 518 q 705 75 821 167 q 429 -17 589 -17 q 284 5 353 -17 q 160 68 215 26 q 71 181 104 110 q 38 342 38 251 q 95 547 38 463 q 239 666 153 631 q 429 701 325 701 m 429 193 q 532 235 493 193 q 571 342 571 278 q 533 448 571 404 q 429 492 494 492 q 326 448 364 492 q 288 342 288 404 q 326 236 288 279 q 429 193 364 193 m 186 982 l 371 982 q 428 926 371 926 q 486 982 486 926 l 671 982 q 606 824 674 882 q 428 767 539 767 q 250 824 317 767 q 186 982 183 882 z "},"Ő":{"ha":1169,"x_min":44,"x_max":1125,"o":"m 977 112 q 1051 180 977 112 q 1125 486 1125 247 q 977 860 1125 725 q 585 996 829 996 q 194 859 343 996 q 44 486 44 722 q 193 112 44 247 q 585 -24 342 -24 q 977 112 829 -24 m 850 486 q 777 288 850 364 q 585 211 704 211 q 394 288 468 211 q 319 486 319 364 q 393 684 319 607 q 585 761 467 761 q 778 686 706 761 q 850 486 850 611 m 446 1267 l 682 1267 l 682 1257 l 539 1060 l 308 1060 l 446 1267 m 761 1267 l 997 1267 l 997 1257 l 854 1060 l 624 1060 l 761 1267 z "},"ő":{"ha":858,"x_min":38,"x_max":822,"o":"m 429 701 q 239 666 325 701 q 95 547 153 631 q 38 342 38 463 q 71 181 38 251 q 160 68 104 110 q 284 5 215 26 q 429 -17 353 -17 q 705 75 589 -17 q 821 342 821 167 q 708 610 821 518 q 429 701 594 701 m 429 193 q 326 236 364 193 q 288 342 288 279 q 326 448 288 404 q 429 492 364 492 q 533 448 494 492 q 571 342 571 404 q 532 235 571 278 q 429 193 493 193 m 303 967 l 525 967 l 525 957 l 390 767 l 174 767 l 303 967 m 600 967 l 822 967 l 822 957 l 688 767 l 471 767 l 600 967 z "},"Œ":{"ha":1421,"x_min":46,"x_max":1360,"o":"m 1360 217 l 1360 0 l 738 0 q 557 -24 660 -24 q 176 117 306 -24 q 46 490 46 257 q 177 858 46 719 q 557 996 308 996 q 732 974 626 996 l 1349 974 l 1349 763 l 929 763 l 929 607 l 1324 607 l 1324 399 l 929 399 l 929 217 l 1360 217 m 308 489 q 378 267 308 358 q 574 176 447 176 q 696 199 646 176 l 696 776 q 567 799 639 799 q 381 707 454 799 q 308 489 308 615 z "},"œ":{"ha":1317,"x_min":38,"x_max":1315,"o":"m 797 435 l 1043 435 q 983 508 1040 486 q 865 508 925 529 q 797 435 806 488 m 328 235 q 346 214 328 235 q 429 193 364 193 q 530 235 494 193 q 565 342 565 276 q 530 449 565 407 q 429 492 494 492 q 328 449 364 492 q 293 342 293 407 q 328 235 293 276 m 429 701 q 682 597 593 701 q 787 674 722 644 q 917 703 851 703 q 1210 585 1106 703 q 1272 271 1315 468 l 796 271 q 853 206 808 229 q 946 183 899 183 q 1122 239 1049 183 l 1250 92 q 931 -14 1128 -14 q 681 89 765 -14 q 413 -17 567 -17 q 145 76 253 -17 q 38 342 38 169 q 151 612 38 522 q 429 701 264 701 z "},"Ŕ":{"ha":1024,"x_min":99,"x_max":999,"o":"m 999 0 l 999 17 l 746 344 q 906 467 861 396 q 951 638 951 539 q 851 875 951 778 q 574 972 751 972 l 99 972 l 99 0 l 374 0 l 374 315 l 469 315 l 696 0 l 999 0 m 374 753 l 574 753 q 653 717 625 753 q 681 632 681 682 q 654 552 681 585 q 576 519 628 519 l 374 519 l 374 753 m 718 1282 l 718 1271 l 567 1060 l 343 1060 l 343 1067 l 450 1282 l 718 1282 z "},"ŕ":{"ha":656,"x_min":75,"x_max":667,"o":"m 304 686 l 75 686 l 75 0 l 331 0 l 331 357 q 364 453 331 421 q 449 486 397 486 q 564 444 511 486 l 667 629 q 486 703 597 703 q 319 611 371 703 l 304 686 m 554 979 l 554 969 l 413 776 l 206 776 l 206 783 l 304 979 l 554 979 z "},"Ŗ":{"ha":1024,"x_min":99,"x_max":999,"o":"m 999 17 l 999 0 l 696 0 l 469 315 l 374 315 l 374 0 l 99 0 l 99 972 l 574 972 q 851 875 751 972 q 951 638 951 778 q 906 467 951 539 q 746 344 861 396 l 999 17 m 574 753 l 374 753 l 374 519 l 576 519 q 654 552 628 519 q 681 632 681 585 q 653 717 681 682 q 574 753 625 753 m 647 -171 q 567 -406 647 -240 l 433 -406 l 463 -262 q 389 -169 389 -249 q 428 -87 389 -117 q 524 -57 468 -57 q 611 -87 575 -57 q 647 -171 647 -117 z "},"ŗ":{"ha":656,"x_min":75,"x_max":667,"o":"m 75 686 l 304 686 l 319 611 q 486 703 371 703 q 667 629 597 703 l 564 444 q 449 486 511 486 q 364 453 397 486 q 331 357 331 421 l 331 0 l 75 0 l 75 686 m 326 -176 q 249 -404 326 -240 l 119 -404 l 147 -265 q 76 -175 76 -251 q 115 -94 76 -124 q 207 -65 153 -65 q 292 -94 257 -65 q 326 -176 326 -124 z "},"Ř":{"ha":1024,"x_min":99,"x_max":999,"o":"m 999 0 l 999 17 l 746 344 q 906 467 861 396 q 951 638 951 539 q 851 875 951 778 q 574 972 751 972 l 99 972 l 99 0 l 374 0 l 374 315 l 469 315 l 696 0 l 999 0 m 374 753 l 574 753 q 653 717 625 753 q 681 632 681 682 q 654 552 681 585 q 576 519 628 519 l 374 519 l 374 753 m 554 1049 l 394 1049 l 181 1258 l 181 1269 l 403 1269 l 474 1206 l 546 1269 l 767 1269 l 767 1258 l 554 1049 z "},"ř":{"ha":656,"x_min":75,"x_max":667,"o":"m 304 686 l 75 686 l 75 0 l 331 0 l 331 357 q 364 453 331 421 q 449 486 397 486 q 564 444 511 486 l 667 629 q 486 703 597 703 q 319 611 371 703 l 304 686 m 435 767 l 286 767 l 89 965 l 89 975 l 294 975 l 360 917 l 426 975 l 632 975 l 632 965 l 435 767 z "},"Ś":{"ha":925,"x_min":32,"x_max":893,"o":"m 697 703 l 833 876 q 469 992 686 992 q 181 917 300 992 q 63 697 63 842 q 93 549 63 610 q 183 456 124 489 q 306 406 242 422 q 458 382 369 390 q 621 293 621 367 q 579 230 621 253 q 468 207 538 207 q 183 317 296 207 l 32 143 q 226 6 128 42 q 467 -28 325 -29 q 674 5 581 -26 q 831 110 768 36 q 893 289 893 183 q 860 430 893 369 q 767 526 826 490 q 643 583 708 563 q 499 611 578 603 q 375 635 413 619 q 338 697 338 651 q 376 751 338 733 q 469 769 414 769 q 697 703 608 769 m 700 1290 l 700 1279 l 550 1061 l 328 1061 l 328 1069 l 433 1290 l 700 1290 z "},"ś":{"ha":710,"x_min":26,"x_max":678,"o":"m 26 72 l 110 258 q 353 182 217 189 q 422 215 422 182 q 350 253 422 247 q 247 267 296 254 q 153 304 199 279 q 82 374 108 329 q 56 478 56 418 q 147 648 56 593 q 372 703 238 703 q 653 619 542 703 l 544 467 q 465 497 517 485 q 372 508 414 510 q 311 475 311 508 q 363 442 311 443 q 678 215 678 432 q 631 81 678 135 q 515 4 585 26 q 358 -18 446 -18 q 175 6 267 -18 q 26 72 83 31 m 594 985 l 594 975 l 456 772 l 250 772 l 250 779 l 347 985 l 594 985 z "},"Ŝ":{"ha":925,"x_min":32,"x_max":893,"o":"m 697 703 l 833 876 q 469 992 686 992 q 181 917 300 992 q 63 697 63 842 q 93 549 63 610 q 183 456 124 489 q 306 406 242 422 q 458 382 369 390 q 621 293 621 367 q 579 230 621 253 q 468 207 538 207 q 183 317 296 207 l 32 143 q 226 6 128 42 q 467 -28 325 -29 q 674 5 581 -26 q 831 110 768 36 q 893 289 893 183 q 860 430 893 369 q 767 526 826 490 q 643 583 708 563 q 499 611 578 603 q 375 635 413 619 q 338 697 338 651 q 376 751 338 733 q 469 769 414 769 q 697 703 608 769 m 403 1279 l 561 1279 l 772 1061 l 772 1050 l 553 1050 l 482 1115 l 411 1050 l 192 1050 l 192 1061 l 403 1279 z "},"ŝ":{"ha":710,"x_min":26,"x_max":678,"o":"m 26 72 l 110 258 q 353 182 217 189 q 422 215 422 182 q 350 253 422 247 q 247 267 296 254 q 153 304 199 279 q 82 374 108 329 q 56 478 56 418 q 147 648 56 593 q 372 703 238 703 q 653 619 542 703 l 544 467 q 465 497 517 485 q 372 508 414 510 q 311 475 311 508 q 363 442 311 443 q 678 215 678 432 q 631 81 678 135 q 515 4 585 26 q 358 -18 446 -18 q 175 6 267 -18 q 26 72 83 31 m 303 983 l 454 983 l 656 771 l 656 760 l 446 760 l 378 824 l 311 760 l 101 760 l 101 771 l 303 983 z "},"Ş":{"ha":928,"x_min":33,"x_max":894,"o":"m 835 876 l 699 703 q 471 769 610 769 q 377 751 415 769 q 339 697 339 733 q 376 635 339 651 q 500 611 414 619 q 644 583 579 603 q 769 526 710 563 q 861 430 828 490 q 894 289 894 369 q 794 72 894 150 q 540 -24 694 -7 l 526 -62 q 657 -126 619 -72 q 672 -253 694 -181 q 559 -368 646 -333 q 378 -383 472 -403 q 233 -303 283 -364 l 326 -208 q 415 -244 363 -240 q 485 -210 468 -249 q 447 -159 494 -175 q 360 -167 399 -143 l 319 -139 l 365 -24 q 33 143 175 -7 l 185 317 q 469 207 297 207 q 581 230 539 207 q 622 293 622 253 q 460 382 622 367 q 307 406 371 390 q 184 456 243 422 q 94 549 125 489 q 64 697 64 610 q 183 917 64 842 q 471 992 301 992 q 835 876 688 992 z "},"ş":{"ha":713,"x_min":28,"x_max":679,"o":"m 28 72 l 111 258 q 354 182 218 189 q 424 215 424 182 q 351 253 424 247 q 249 267 297 254 q 155 304 200 279 q 83 374 110 329 q 57 478 57 418 q 148 648 57 593 q 374 703 239 703 q 654 619 543 703 l 546 467 q 467 497 518 485 q 374 508 415 510 q 313 475 313 508 q 364 442 313 443 q 679 215 679 432 q 611 58 679 114 q 435 -12 543 1 l 415 -62 q 536 -122 500 -69 q 550 -240 572 -174 q 444 -344 524 -314 q 280 -356 365 -375 q 150 -281 194 -336 l 233 -194 q 315 -227 264 -222 q 379 -199 365 -232 q 344 -151 388 -167 q 265 -158 300 -136 l 226 -132 l 276 -12 q 28 72 117 7 z "},"Š":{"ha":925,"x_min":32,"x_max":893,"o":"m 697 703 l 833 876 q 469 992 686 992 q 181 917 300 992 q 63 697 63 842 q 93 549 63 610 q 183 456 124 489 q 306 406 242 422 q 458 382 369 390 q 621 293 621 367 q 579 230 621 253 q 468 207 538 207 q 183 317 296 207 l 32 143 q 226 6 128 42 q 467 -28 325 -29 q 674 5 581 -26 q 831 110 768 36 q 893 289 893 183 q 860 430 893 369 q 767 526 826 490 q 643 583 708 563 q 499 611 578 603 q 375 635 413 619 q 338 697 338 651 q 376 751 338 733 q 469 769 414 769 q 697 703 608 769 m 558 1058 l 399 1058 l 185 1267 l 185 1276 l 407 1276 l 478 1215 l 550 1276 l 772 1276 l 772 1267 l 558 1058 z "},"š":{"ha":710,"x_min":26,"x_max":678,"o":"m 26 72 l 110 258 q 353 182 217 189 q 422 215 422 182 q 350 253 422 247 q 247 267 296 254 q 153 304 199 279 q 82 374 108 329 q 56 478 56 418 q 147 648 56 593 q 372 703 238 703 q 653 619 542 703 l 544 467 q 465 497 517 485 q 372 508 414 510 q 311 475 311 508 q 363 442 311 443 q 678 215 678 432 q 631 81 678 135 q 515 4 585 26 q 358 -18 446 -18 q 175 6 267 -18 q 26 72 83 31 m 450 767 l 307 767 l 114 965 l 114 975 l 314 975 l 378 917 l 443 975 l 642 975 l 642 965 l 450 767 z "},"Ţ":{"ha":883,"x_min":21,"x_max":863,"o":"m 196 -293 l 283 -201 q 376 -240 317 -235 q 449 -204 435 -244 q 406 -147 460 -162 q 315 -158 353 -132 l 276 -129 l 306 0 l 304 746 l 21 746 l 21 972 l 863 972 l 863 746 l 578 746 l 578 0 l 500 0 l 488 -50 q 613 -117 576 -60 q 626 -249 650 -175 q 513 -366 600 -331 q 333 -380 425 -401 q 196 -293 240 -358 z "},"ţ":{"ha":603,"x_min":28,"x_max":589,"o":"m 138 853 l 392 881 l 392 682 l 546 682 l 546 486 l 390 486 l 390 261 q 458 194 392 194 q 533 218 497 194 l 589 29 q 413 -17 514 -12 l 394 -61 q 520 -123 483 -71 q 533 -242 557 -175 q 422 -352 504 -321 q 253 -362 340 -383 q 115 -282 165 -342 l 204 -199 q 288 -233 238 -229 q 354 -201 339 -237 q 318 -153 364 -168 q 236 -160 272 -137 l 197 -133 l 257 10 q 138 261 133 71 l 138 486 l 28 486 l 28 682 l 138 682 l 138 853 z "},"Ť":{"ha":883,"x_min":21,"x_max":863,"o":"m 304 746 l 304 0 l 578 0 l 578 746 l 863 746 l 863 972 l 21 972 l 21 746 l 304 746 m 525 1043 l 367 1043 l 156 1261 l 156 1272 l 375 1272 l 446 1207 l 517 1272 l 736 1272 l 736 1261 l 525 1043 z "},"ť":{"ha":733,"x_min":26,"x_max":828,"o":"m 136 853 l 390 881 l 390 682 l 510 682 l 510 486 l 389 486 l 389 261 q 457 194 390 194 q 532 218 497 194 l 588 29 q 390 -17 507 -17 q 204 47 275 -17 q 136 261 133 111 l 136 486 l 26 486 l 26 682 l 136 682 l 136 853 m 546 579 l 608 900 l 828 900 l 717 579 l 546 579 z "},"Ŧ":{"ha":896,"x_min":26,"x_max":868,"o":"m 150 378 l 150 574 l 310 574 l 310 743 l 26 743 l 26 972 l 868 972 l 868 743 l 583 743 l 583 574 l 750 574 l 750 378 l 583 378 l 583 0 l 310 0 l 310 378 l 150 378 z "},"ŧ":{"ha":599,"x_min":25,"x_max":586,"o":"m 51 279 l 51 421 l 135 421 l 135 486 l 25 486 l 25 682 l 135 682 l 135 853 l 389 881 l 389 682 l 543 682 l 543 486 l 388 486 l 388 421 l 501 421 l 501 279 l 388 279 l 388 261 q 456 194 389 194 q 531 218 494 194 l 586 29 q 389 -17 506 -17 q 203 47 274 -17 q 135 261 132 111 l 135 279 l 51 279 z "},"Ũ":{"ha":1083,"x_min":83,"x_max":1001,"o":"m 726 971 l 1000 971 l 1000 428 q 879 97 1001 214 q 542 -21 757 -21 q 204 95 325 -21 q 83 431 83 211 l 83 971 l 357 971 l 357 431 q 406 267 357 319 q 542 214 454 214 q 677 267 628 214 q 726 428 726 321 l 726 971 m 525 1076 q 383 1056 419 1140 l 249 1151 q 371 1281 282 1250 q 536 1261 460 1311 q 617 1235 579 1232 q 679 1286 654 1239 l 810 1192 q 697 1057 774 1089 q 525 1076 621 1025 z "},"ũ":{"ha":864,"x_min":67,"x_max":789,"o":"m 67 686 l 322 686 l 322 307 q 350 221 322 249 q 418 193 378 193 q 502 225 468 193 q 536 321 536 257 l 536 686 l 789 686 l 789 0 l 563 0 l 551 75 q 335 -17 471 -19 q 140 60 214 -15 q 67 306 67 135 l 67 686 m 429 796 q 290 774 325 861 l 157 872 q 278 1006 190 975 q 442 985 365 1036 q 582 1011 538 925 l 710 915 q 600 775 675 808 q 429 796 525 742 z "},"Ū":{"ha":1083,"x_min":83,"x_max":1001,"o":"m 726 971 l 1000 971 l 1000 428 q 879 97 1001 214 q 542 -21 757 -21 q 204 95 325 -21 q 83 431 83 211 l 83 971 l 357 971 l 357 431 q 406 267 357 319 q 542 214 454 214 q 677 267 628 214 q 726 428 726 321 l 726 971 m 313 1054 l 313 1258 l 775 1258 l 775 1054 l 313 1054 z "},"ū":{"ha":864,"x_min":67,"x_max":789,"o":"m 67 686 l 322 686 l 322 307 q 350 221 322 249 q 418 193 378 193 q 502 225 468 193 q 536 321 536 257 l 536 686 l 789 686 l 789 0 l 563 0 l 551 75 q 335 -17 471 -19 q 140 60 214 -15 q 67 306 67 135 l 67 686 m 214 792 l 214 985 l 646 985 l 646 792 l 214 792 z "},"Ŭ":{"ha":1083,"x_min":83,"x_max":1001,"o":"m 726 971 l 1000 971 l 1000 428 q 879 97 1001 214 q 542 -21 757 -21 q 204 95 325 -21 q 83 431 83 211 l 83 971 l 357 971 l 357 431 q 406 267 357 319 q 542 214 454 214 q 677 267 628 214 q 726 428 726 321 l 726 971 m 283 1275 l 485 1275 q 506 1229 485 1242 q 549 1217 528 1217 q 572 1220 560 1217 q 598 1238 585 1224 q 611 1275 611 1251 l 813 1275 q 742 1108 815 1169 q 549 1046 669 1046 q 353 1108 426 1046 q 283 1275 281 1169 z "},"ŭ":{"ha":864,"x_min":67,"x_max":789,"o":"m 67 686 l 322 686 l 322 307 q 350 221 322 249 q 418 193 378 193 q 502 225 468 193 q 536 321 536 257 l 536 686 l 789 686 l 789 0 l 563 0 l 551 75 q 335 -17 471 -19 q 140 60 214 -15 q 67 306 67 135 l 67 686 m 183 983 l 378 983 q 398 938 378 950 q 439 925 418 925 q 462 928 450 925 q 486 946 474 932 q 499 983 499 960 l 693 983 q 626 821 696 881 q 439 761 556 761 q 251 820 321 761 q 183 983 181 879 z "},"Ů":{"ha":1083,"x_min":83,"x_max":1001,"o":"m 726 971 l 1000 971 l 1000 428 q 879 97 1001 214 q 542 -21 757 -21 q 204 95 325 -21 q 83 431 83 211 l 83 971 l 357 971 l 357 431 q 406 267 357 319 q 542 214 454 214 q 677 267 628 214 q 726 428 726 321 l 726 971 m 550 1376 q 701 1322 646 1376 q 756 1202 756 1268 q 702 1082 757 1136 q 550 1028 647 1028 q 440 1053 486 1028 q 372 1118 393 1079 q 350 1202 350 1157 q 371 1286 350 1247 q 439 1351 392 1325 q 550 1376 486 1376 m 553 1251 q 503 1227 517 1251 q 503 1178 489 1203 q 553 1154 517 1154 q 602 1178 588 1154 q 602 1227 617 1203 q 553 1251 588 1251 z "},"ů":{"ha":864,"x_min":67,"x_max":789,"o":"m 67 686 l 322 686 l 322 307 q 350 221 322 249 q 418 193 378 193 q 502 225 468 193 q 536 321 536 257 l 536 686 l 789 686 l 789 0 l 563 0 l 551 75 q 335 -17 471 -19 q 140 60 214 -15 q 67 306 67 135 l 67 686 m 436 1060 q 560 1027 510 1060 q 622 948 610 994 q 623 855 635 901 q 561 776 611 808 q 436 743 511 743 q 296 792 347 743 q 244 901 244 842 q 295 1010 244 961 q 436 1060 346 1060 m 439 946 q 390 924 404 946 q 390 881 376 903 q 439 858 404 858 q 485 881 472 858 q 485 924 499 903 q 439 946 472 946 z "},"Ű":{"ha":1083,"x_min":83,"x_max":1001,"o":"m 1000 971 l 726 971 l 726 428 q 677 267 726 321 q 542 214 628 214 q 406 267 454 214 q 357 431 357 319 l 357 971 l 83 971 l 83 431 q 204 95 83 211 q 542 -21 325 -21 q 879 97 757 -21 q 1000 428 1001 214 l 1000 971 m 397 1263 l 628 1263 l 628 1251 l 488 1040 l 263 1040 l 397 1263 m 706 1263 l 936 1263 l 936 1251 l 796 1040 l 571 1040 l 706 1263 z "},"ű":{"ha":864,"x_min":67,"x_max":811,"o":"m 322 686 l 67 686 l 67 306 q 140 60 67 135 q 335 -17 214 -15 q 551 75 471 -19 l 563 0 l 789 0 l 789 686 l 536 686 l 536 321 q 502 225 536 257 q 418 193 468 193 q 350 221 378 193 q 322 307 322 249 l 322 686 m 292 972 l 514 972 l 514 963 l 379 772 l 163 772 l 292 972 m 589 972 l 811 972 l 811 963 l 676 772 l 460 772 l 589 972 z "},"Ų":{"ha":1089,"x_min":86,"x_max":1004,"o":"m 729 971 l 1003 971 l 1003 428 q 933 159 1004 267 q 732 7 863 51 l 724 4 q 715 1 721 4 q 675 -57 665 -15 q 725 -92 685 -89 q 807 -72 765 -96 l 910 -207 q 758 -274 844 -254 q 593 -274 672 -293 q 481 -190 514 -254 q 466 -97 457 -146 q 511 -19 475 -49 q 198 104 310 -11 q 86 431 86 219 l 86 971 l 360 971 l 360 431 q 408 267 360 319 q 544 214 457 214 q 680 267 631 214 q 729 428 729 321 l 729 971 z "},"ų":{"ha":864,"x_min":67,"x_max":846,"o":"m 67 686 l 322 686 l 322 307 q 350 221 322 249 q 418 193 378 193 q 502 225 468 193 q 536 321 536 257 l 536 686 l 789 686 l 789 -50 q 692 -56 729 -35 q 661 -110 654 -78 q 693 -136 665 -131 q 768 -124 721 -142 l 846 -231 q 712 -283 793 -272 q 561 -262 631 -293 q 478 -162 492 -232 q 491 -62 467 -108 q 564 4 515 -17 l 551 79 q 451 6 510 31 q 335 -17 393 -18 q 140 60 214 -15 q 67 306 67 135 l 67 686 z "},"Ŵ":{"ha":1481,"x_min":-12,"x_max":1489,"o":"m 1135 1 l 1489 972 l 1189 972 l 1072 638 q 1018 406 1039 518 l 833 972 l 643 972 l 464 406 q 413 631 433 567 l 288 972 l -12 972 l 350 1 l 572 1 l 739 467 l 911 1 l 1135 1 m 660 1307 l 832 1307 l 1061 1071 l 1061 1060 l 822 1060 l 746 1131 l 668 1060 l 429 1060 l 429 1071 l 660 1307 z "},"ŵ":{"ha":1161,"x_min":-1,"x_max":1163,"o":"m 658 686 l 504 686 l 383 304 l 331 497 l 265 686 l -1 686 l 249 -4 l 486 -4 l 581 256 l 676 -4 l 911 -4 l 1163 686 l 894 686 l 831 499 l 779 304 l 658 686 m 500 999 l 660 999 l 875 782 l 875 771 l 651 771 l 579 836 l 508 771 l 285 771 l 285 782 l 500 999 z "},"Ŷ":{"ha":1003,"x_min":-8,"x_max":1022,"o":"m 503 639 l 301 972 l -8 972 l -8 961 l 361 388 l 361 0 l 636 0 l 636 388 l 1022 960 l 1022 972 l 713 972 l 503 639 m 419 1275 l 583 1275 l 803 1060 l 803 1050 l 575 1050 l 501 1114 l 429 1050 l 201 1050 l 201 1060 l 419 1275 z "},"ŷ":{"ha":808,"x_min":-4,"x_max":821,"o":"m 821 686 l 547 686 l 483 524 l 400 285 l 325 522 l 267 686 l -4 686 l 268 31 l 129 -290 l 396 -290 l 821 686 m 315 1000 l 490 1000 l 726 774 l 726 761 l 482 761 l 403 829 l 324 761 l 81 761 l 81 774 l 315 1000 z "},"Ÿ":{"ha":1003,"x_min":-8,"x_max":1022,"o":"m 174 1176 q 212 1264 174 1232 q 303 1296 250 1296 q 395 1264 356 1296 q 435 1176 435 1232 q 395 1092 435 1124 q 303 1061 356 1061 q 212 1092 250 1061 q 174 1176 174 1124 m 576 1176 q 615 1264 576 1232 q 708 1296 654 1296 q 799 1264 760 1296 q 839 1176 839 1232 q 799 1092 839 1124 q 708 1061 760 1061 q 615 1092 654 1061 q 576 1176 576 1124 m 503 639 l 301 972 l -8 972 l -8 961 l 361 388 l 361 0 l 636 0 l 636 388 l 1022 960 l 1022 972 l 713 972 l 503 639 z "},"Ź":{"ha":893,"x_min":35,"x_max":849,"o":"m 58 972 l 58 750 l 469 750 l 35 86 l 35 0 l 849 0 l 849 238 l 413 238 l 838 894 l 838 972 l 58 972 m 700 1289 l 700 1278 l 549 1057 l 325 1057 l 325 1065 l 432 1289 l 700 1289 z "},"ź":{"ha":688,"x_min":32,"x_max":644,"o":"m 632 686 l 58 686 l 58 483 l 306 483 l 32 79 l 32 0 l 644 0 l 644 219 l 371 219 l 632 600 l 632 686 m 582 972 l 582 963 l 440 771 l 233 771 l 233 778 l 332 972 l 582 972 z "},"Ż":{"ha":893,"x_min":35,"x_max":849,"o":"m 58 972 l 58 750 l 469 750 l 35 86 l 35 0 l 849 0 l 849 238 l 413 238 l 838 894 l 838 972 l 58 972 m 353 1088 q 331 1104 353 1088 q 308 1181 308 1121 q 353 1274 308 1240 q 458 1307 397 1307 q 564 1274 519 1307 q 608 1181 608 1240 q 564 1088 608 1121 q 458 1054 519 1054 q 353 1088 397 1054 z "},"ż":{"ha":688,"x_min":32,"x_max":644,"o":"m 632 686 l 58 686 l 58 483 l 306 483 l 32 79 l 32 0 l 644 0 l 644 219 l 371 219 l 632 600 l 632 686 m 219 878 q 258 959 219 931 q 350 988 296 988 q 442 958 403 988 q 481 878 481 929 q 441 797 481 826 q 350 768 401 768 q 258 797 296 768 q 219 878 219 826 z "},"Ž":{"ha":893,"x_min":35,"x_max":849,"o":"m 58 972 l 58 750 l 469 750 l 35 86 l 35 0 l 849 0 l 849 238 l 413 238 l 838 894 l 838 972 l 58 972 m 547 1056 l 389 1056 l 178 1274 l 178 1285 l 397 1285 l 468 1219 l 539 1285 l 758 1285 l 758 1274 l 547 1056 z "},"ž":{"ha":688,"x_min":32,"x_max":644,"o":"m 632 686 l 58 686 l 58 483 l 306 483 l 32 79 l 32 0 l 644 0 l 644 219 l 371 219 l 632 600 l 632 686 m 433 760 l 285 760 l 86 957 l 86 967 l 292 967 l 358 907 l 425 967 l 632 967 l 632 957 l 433 760 z "},"ſ":{"ha":500,"x_min":25,"x_max":644,"o":"m 397 0 l 142 0 l 142 476 l 25 476 l 25 674 l 142 674 l 142 707 q 230 917 142 847 q 438 988 318 988 q 644 913 567 988 l 567 758 q 474 792 528 792 q 419 770 440 792 q 397 707 397 749 l 397 0 z "},"ƒ":{"ha":729,"x_min":-24,"x_max":714,"o":"m 644 468 l 467 468 l 467 -1 q 414 -184 467 -111 q 285 -279 361 -257 q 125 -285 210 -301 q -24 -214 40 -268 l 54 -60 q 135 -93 93 -93 q 190 -71 168 -93 q 211 -3 211 -49 l 211 468 l 60 468 l 60 665 l 211 665 l 211 707 q 299 917 211 847 q 507 988 388 988 q 714 913 636 988 l 636 758 q 543 792 597 792 q 488 770 510 792 q 467 707 467 749 l 467 665 l 644 665 l 644 468 z "},"Ǻ":{"ha":1107,"x_min":-21,"x_max":1128,"o":"m 554 1185 q 426 1156 479 1185 q 352 1084 372 1126 q 340 992 332 1042 q 385 903 347 943 l -21 0 l 271 0 l 335 160 l 769 160 l 833 0 l 1128 0 l 725 900 q 775 989 767 939 q 762 1082 783 1039 q 685 1155 740 1125 q 554 1185 631 1185 m 553 736 l 619 533 l 676 390 l 428 390 l 485 533 l 553 736 m 557 1043 q 612 1017 596 1043 q 612 967 628 992 q 557 942 596 942 q 500 967 517 942 q 500 1017 483 992 q 557 1043 517 1043 m 833 1375 l 833 1367 l 675 1218 l 442 1218 l 442 1224 l 554 1375 l 833 1375 z "},"ǻ":{"ha":900,"x_min":38,"x_max":825,"o":"m 585 686 l 572 613 q 371 701 514 701 q 130 599 222 701 q 38 343 38 497 q 120 94 38 190 q 351 -12 203 -3 q 475 6 414 -15 q 578 74 536 26 l 589 0 l 825 0 l 825 686 l 585 686 m 429 494 q 533 453 496 494 q 571 343 571 413 q 531 237 571 281 q 429 193 492 193 q 331 233 369 193 q 292 343 292 274 q 331 453 292 413 q 429 494 369 494 m 450 1042 q 328 1011 378 1042 q 267 937 279 981 q 267 849 256 893 q 328 775 279 806 q 450 744 378 744 q 575 775 525 744 q 637 849 625 806 q 636 937 649 893 q 574 1011 624 981 q 450 1042 524 1042 m 453 935 q 499 914 486 935 q 499 872 513 893 q 453 851 486 851 q 404 872 418 851 q 404 914 390 893 q 453 935 418 935 m 707 1238 l 707 1229 l 563 1078 l 350 1078 l 350 1083 l 451 1238 l 707 1238 z "},"Ǽ":{"ha":1285,"x_min":-36,"x_max":1228,"o":"m -36 15 l -36 0 l 240 0 l 328 146 l 617 146 l 617 0 l 1228 0 l 1228 218 l 869 218 l 869 388 l 1183 388 l 1183 600 l 869 600 l 869 753 l 1207 753 l 1207 972 l 540 972 l -36 15 m 617 386 l 465 386 l 638 719 l 621 547 l 617 386 m 1042 1260 l 1042 1250 l 886 1042 l 656 1042 l 656 1050 l 765 1260 l 1042 1260 z "},"ǽ":{"ha":1314,"x_min":38,"x_max":1307,"o":"m 893 965 l 893 956 l 761 753 l 565 753 l 565 761 l 660 965 l 893 965 m 438 494 q 544 453 506 494 q 582 336 582 411 q 542 233 582 272 q 438 193 501 193 q 339 233 378 193 q 300 343 300 274 q 339 453 300 413 q 438 494 378 494 m 1049 435 l 796 435 q 865 508 804 488 q 986 508 926 529 q 1049 435 1046 486 m 794 271 l 1264 271 q 1212 581 1307 465 q 956 699 1117 697 q 750 629 838 701 l 746 686 l 585 686 l 572 613 q 371 701 514 701 q 130 599 222 701 q 38 343 38 497 q 120 94 38 190 q 351 -12 203 -3 q 475 6 414 -15 q 578 74 536 26 l 589 0 l 746 0 l 750 63 q 940 -15 810 -15 q 1253 99 1131 -15 l 1128 239 q 951 183 1054 183 q 855 206 903 183 q 794 271 807 229 z "},"Ǿ":{"ha":1169,"x_min":44,"x_max":1125,"o":"m 860 1310 l 860 1299 l 708 1078 l 485 1078 l 485 1086 l 592 1310 l 860 1310 m 1088 1068 l 847 1068 l 782 968 q 585 996 690 996 q 194 859 343 996 q 44 486 44 722 q 217 90 44 229 l 92 -103 l 329 -103 l 396 0 q 585 -24 486 -24 q 977 112 829 -24 q 1125 486 1125 247 q 961 874 1125 736 l 1088 1068 m 585 761 q 646 756 607 761 l 365 322 q 319 486 319 392 q 393 684 319 607 q 585 761 467 761 m 850 486 q 777 288 850 364 q 585 211 704 211 q 535 215 560 211 l 811 642 q 850 486 850 575 z "},"ǿ":{"ha":860,"x_min":39,"x_max":822,"o":"m 661 989 l 661 979 l 525 800 l 321 800 l 321 807 l 418 989 l 661 989 m 531 235 q 514 214 531 235 q 431 193 496 193 q 330 235 365 193 q 294 342 294 276 q 330 449 294 407 q 431 492 365 492 q 531 449 496 492 q 567 342 567 407 q 531 235 567 276 m 431 701 q 152 612 265 701 q 39 342 39 522 q 161 65 39 160 l 71 -83 l 308 -83 l 351 -11 q 431 -17 404 -17 q 574 3 506 -17 q 699 65 642 24 q 789 177 756 106 q 822 342 822 249 q 704 618 822 522 l 797 771 l 561 771 l 515 694 q 431 701 469 701 z "},"Ș":{"ha":925,"x_min":32,"x_max":893,"o":"m 833 876 l 697 703 q 469 769 608 769 q 376 751 414 769 q 338 697 338 733 q 375 635 338 651 q 499 611 413 619 q 643 583 578 603 q 767 526 708 563 q 860 430 826 490 q 893 289 893 369 q 831 110 893 183 q 674 5 768 36 q 467 -28 581 -26 q 226 6 325 -29 q 32 143 128 42 l 183 317 q 468 207 296 207 q 579 230 538 207 q 621 293 621 253 q 458 382 621 367 q 306 406 369 390 q 183 456 242 422 q 93 549 124 489 q 63 697 63 610 q 181 917 63 842 q 469 992 300 992 q 833 876 686 992 m 603 -197 q 515 -424 603 -262 l 371 -424 l 403 -286 q 324 -196 324 -272 q 366 -117 324 -146 q 468 -87 408 -87 q 563 -116 524 -87 q 603 -197 603 -144 z "},"ș":{"ha":710,"x_min":26,"x_max":678,"o":"m 26 72 l 110 258 q 353 182 217 189 q 422 215 422 182 q 350 253 422 247 q 247 267 296 254 q 153 304 199 279 q 82 374 108 329 q 56 478 56 418 q 147 648 56 593 q 372 703 238 703 q 653 619 542 703 l 544 467 q 465 497 517 485 q 372 508 414 510 q 311 475 311 508 q 363 442 311 443 q 678 215 678 432 q 631 81 678 135 q 515 4 585 26 q 358 -18 446 -18 q 175 6 267 -18 q 26 72 83 31 m 476 -183 q 400 -390 476 -246 l 275 -390 l 303 -264 q 233 -182 233 -251 q 271 -110 233 -136 q 360 -83 308 -83 q 442 -110 408 -83 q 476 -183 476 -136 z "},"Ț":{"ha":883,"x_min":21,"x_max":863,"o":"m 304 0 l 304 746 l 21 746 l 21 972 l 863 972 l 863 746 l 578 746 l 578 0 l 304 0 m 560 -174 q 481 -406 560 -242 l 349 -406 l 378 -264 q 304 -172 304 -250 q 344 -90 304 -119 q 438 -61 383 -61 q 524 -90 489 -61 q 560 -174 560 -119 z "},"ț":{"ha":600,"x_min":26,"x_max":588,"o":"m 136 853 l 390 881 l 390 682 l 544 682 l 544 486 l 389 486 l 389 261 q 457 194 390 194 q 532 218 497 194 l 588 29 q 390 -17 507 -17 q 204 47 275 -17 q 136 261 133 111 l 136 486 l 26 486 l 26 682 l 136 682 l 136 853 m 479 -183 q 400 -415 479 -251 l 268 -415 l 297 -274 q 224 -182 224 -260 q 263 -100 224 -129 q 357 -71 303 -71 q 444 -100 408 -71 q 479 -183 479 -129 z "},"ȷ":{"ha":406,"x_min":-97,"x_max":331,"o":"m -97 -279 l -49 -100 q 42 -114 8 -132 q 75 -32 75 -96 l 75 675 l 331 675 l 331 -32 q 294 -198 331 -129 q 199 -297 258 -267 q 63 -323 140 -326 q -97 -279 -15 -319 z "},"ˆ":{"ha":626,"x_min":7,"x_max":588,"o":"m 218 981 l 376 981 l 588 763 l 588 751 l 368 751 l 297 817 l 226 751 l 7 751 l 7 763 l 218 981 z "},"ˇ":{"ha":619,"x_min":24,"x_max":604,"o":"m 393 742 l 235 742 l 24 960 l 24 971 l 243 971 l 314 906 l 385 971 l 604 971 l 604 960 l 393 742 z "},"˘":{"ha":564,"x_min":38,"x_max":532,"o":"m 40 972 l 226 972 q 239 933 226 947 q 263 915 251 918 q 285 911 274 911 q 307 915 296 911 q 331 933 318 918 q 343 972 343 947 l 529 972 q 465 799 532 863 q 285 736 397 736 q 105 799 172 736 q 40 972 38 863 z "},"˙":{"ha":383,"x_min":50,"x_max":331,"o":"m 92 756 q 71 773 92 756 q 50 847 50 789 q 92 938 50 906 q 190 971 133 971 q 289 938 247 971 q 331 847 331 906 q 289 756 331 789 q 190 724 247 724 q 92 756 133 724 z "},"˚":{"ha":593,"x_min":72,"x_max":510,"o":"m 289 981 q 450 920 392 981 q 509 787 508 860 q 451 653 510 714 q 289 593 393 593 q 131 653 188 593 q 73 787 74 714 q 130 920 72 860 q 289 981 188 981 m 292 842 q 238 815 254 842 q 238 760 222 788 q 292 733 254 733 q 344 760 329 733 q 344 815 360 788 q 292 842 328 842 z "},"˛":{"ha":542,"x_min":50,"x_max":431,"o":"m 349 -175 l 431 -279 q 303 -332 383 -322 q 152 -309 222 -342 q 68 -207 82 -276 q 108 -62 50 -121 q 268 -3 167 -3 q 360 -11 311 -3 l 383 -115 q 313 -107 350 -107 q 257 -123 278 -107 q 242 -162 236 -139 q 290 -187 249 -186 q 349 -175 331 -187 z "},"˜":{"ha":676,"x_min":42,"x_max":624,"o":"m 328 793 q 182 774 218 853 l 42 863 q 168 984 76 956 q 340 965 260 1013 q 489 989 442 910 l 624 901 q 507 775 586 806 q 328 793 428 744 z "},"˝":{"ha":736,"x_min":21,"x_max":703,"o":"m 157 972 l 390 972 l 390 961 l 249 746 l 21 746 l 157 972 m 469 972 l 703 972 l 703 961 l 561 746 l 333 746 l 469 972 z "},"Δ":{"ha":1103,"x_min":-26,"x_max":1090,"o":"m 1090 24 l 1090 0 l -26 0 l -26 17 l 394 972 l 672 972 l 1090 24 m 533 697 l 339 221 l 725 221 l 533 697 z "},"Ω":{"ha":1147,"x_min":42,"x_max":1082,"o":"m 561 771 q 375 690 446 771 q 304 496 304 610 q 348 327 303 403 q 492 228 393 251 l 492 0 l 63 0 l 63 218 l 192 218 q 81 353 119 265 q 42 521 42 440 q 181 867 42 733 q 561 1000 321 1000 q 942 867 801 1000 q 1082 521 1082 733 q 1042 347 1082 433 q 926 218 1003 261 l 1061 218 l 1061 0 l 632 0 l 632 228 q 780 328 733 253 q 826 497 826 404 q 755 694 826 618 q 561 771 683 771 z "},"π":{"ha":975,"x_min":22,"x_max":929,"o":"m 406 0 l 151 0 l 151 481 l 22 481 l 22 685 l 929 685 l 929 481 l 800 481 l 800 222 q 901 174 800 144 l 924 1 q 817 -17 868 -12 q 717 -10 767 -21 q 632 26 668 0 q 574 100 596 51 q 551 218 551 149 l 551 481 l 406 481 l 406 0 z "},"Ẁ":{"ha":1481,"x_min":-12,"x_max":1489,"o":"m 1489 972 l 1135 1 l 911 1 l 739 467 l 572 1 l 350 1 l -12 972 l 288 972 l 413 631 q 464 406 433 567 l 643 972 l 833 972 l 1018 406 q 1072 638 1039 518 l 1189 972 l 1489 972 m 475 1265 l 475 1276 l 765 1276 l 881 1069 l 881 1061 l 639 1061 l 475 1265 z "},"ẁ":{"ha":1161,"x_min":-1,"x_max":1163,"o":"m 504 686 l 658 686 l 779 304 l 831 499 l 894 686 l 1163 686 l 911 -4 l 676 -4 l 581 256 l 486 -4 l 249 -4 l -1 686 l 265 686 l 331 497 l 383 304 l 504 686 m 343 964 l 343 974 l 606 974 l 710 778 l 710 771 l 492 771 l 343 964 z "},"Ẃ":{"ha":1481,"x_min":-12,"x_max":1489,"o":"m 1135 1 l 1489 972 l 1189 972 l 1072 638 q 1018 406 1039 518 l 833 972 l 643 972 l 464 406 q 413 631 433 567 l 288 972 l -12 972 l 350 1 l 572 1 l 739 467 l 911 1 l 1135 1 m 1021 1276 l 1021 1267 l 860 1058 l 621 1058 l 621 1067 l 735 1276 l 1021 1276 z "},"ẃ":{"ha":1161,"x_min":-1,"x_max":1163,"o":"m 658 686 l 504 686 l 383 304 l 331 497 l 265 686 l -1 686 l 249 -4 l 486 -4 l 581 256 l 676 -4 l 911 -4 l 1163 686 l 894 686 l 831 499 l 779 304 l 658 686 m 840 976 l 840 967 l 689 769 l 467 769 l 467 776 l 574 976 l 840 976 z "},"Ẅ":{"ha":1481,"x_min":-12,"x_max":1489,"o":"m 1135 1 l 1489 972 l 1189 972 l 1072 638 q 1018 406 1039 518 l 833 972 l 643 972 l 464 406 q 413 631 433 567 l 288 972 l -12 972 l 350 1 l 572 1 l 739 467 l 911 1 l 1135 1 m 408 1171 q 447 1258 408 1226 q 538 1290 485 1290 q 630 1258 590 1290 q 669 1171 669 1226 q 630 1087 669 1118 q 538 1056 590 1056 q 447 1087 485 1056 q 408 1171 408 1118 m 811 1171 q 850 1258 811 1226 q 943 1290 889 1290 q 1034 1258 994 1290 q 1074 1171 1074 1226 q 1034 1087 1074 1118 q 943 1056 994 1056 q 850 1087 889 1056 q 811 1171 811 1118 z "},"ẅ":{"ha":1161,"x_min":-1,"x_max":1163,"o":"m 658 686 l 504 686 l 383 304 l 331 497 l 265 686 l -1 686 l 249 -4 l 486 -4 l 581 256 l 676 -4 l 911 -4 l 1163 686 l 894 686 l 831 499 l 779 304 l 658 686 m 274 869 q 310 951 274 921 q 394 981 346 981 q 480 951 443 981 q 517 869 517 921 q 480 790 517 819 q 394 761 443 761 q 310 790 346 761 q 274 869 274 819 m 647 869 q 684 951 647 921 q 771 981 721 981 q 855 951 818 981 q 892 869 892 921 q 855 790 892 819 q 771 761 818 761 q 684 790 721 761 q 647 869 647 819 z "},"Ỳ":{"ha":1003,"x_min":-8,"x_max":1022,"o":"m 301 972 l 503 639 l 713 972 l 1022 972 l 1022 960 l 636 388 l 636 0 l 361 0 l 361 388 l -8 961 l -8 972 l 301 972 m 228 1265 l 228 1276 l 522 1276 l 640 1061 l 640 1054 l 394 1054 l 228 1265 z "},"ỳ":{"ha":808,"x_min":-4,"x_max":821,"o":"m 547 686 l 821 686 l 396 -290 l 129 -290 l 268 31 l -4 686 l 267 686 l 325 522 l 400 285 l 483 524 l 547 686 m 185 971 l 185 982 l 449 982 l 554 764 l 554 756 l 333 756 l 185 971 z "},"–":{"ha":843,"x_min":74,"x_max":769,"o":"m 74 292 l 74 496 l 769 496 l 769 292 l 74 292 z "},"—":{"ha":968,"x_min":75,"x_max":893,"o":"m 75 296 l 75 500 l 893 500 l 893 296 l 75 296 z "},"‘":{"ha":407,"x_min":46,"x_max":363,"o":"m 363 974 l 292 614 l 46 614 l 171 974 l 363 974 z "},"’":{"ha":400,"x_min":57,"x_max":374,"o":"m 57 613 l 128 972 l 374 972 l 249 613 l 57 613 z "},"‚":{"ha":417,"x_min":22,"x_max":344,"o":"m 22 -215 l 94 140 l 344 140 l 224 -215 l 22 -215 z "},"“":{"ha":699,"x_min":46,"x_max":653,"o":"m 379 972 l 282 621 l 46 621 l 193 972 l 379 972 m 653 972 l 585 621 l 344 621 l 465 972 l 653 972 z "},"”":{"ha":686,"x_min":60,"x_max":667,"o":"m 333 621 l 431 972 l 667 972 l 519 621 l 333 621 m 60 621 l 128 972 l 368 972 l 247 621 l 60 621 z "},"„":{"ha":718,"x_min":22,"x_max":646,"o":"m 22 -215 l 94 140 l 339 140 l 224 -215 l 22 -215 m 329 -215 l 406 140 l 646 140 l 528 -215 l 329 -215 z "},"†":{"ha":843,"x_min":47,"x_max":797,"o":"m 549 972 l 549 732 l 797 732 l 797 514 l 549 514 l 549 -128 l 293 -128 l 293 514 l 47 514 l 47 732 l 293 732 l 293 972 l 549 972 z "},"‡":{"ha":883,"x_min":67,"x_max":817,"o":"m 568 974 l 568 736 l 817 736 l 817 528 l 568 528 l 568 300 l 817 300 l 817 94 l 568 94 l 568 -142 l 315 -142 l 315 94 l 67 94 l 67 300 l 315 300 l 315 528 l 67 528 l 67 736 l 315 736 l 315 974 l 568 974 z "},"•":{"ha":610,"x_min":90,"x_max":519,"o":"m 306 236 q 151 290 211 236 q 90 432 90 344 q 151 575 90 519 q 306 631 213 631 q 458 575 397 631 q 519 432 519 519 q 458 290 519 344 q 306 236 397 236 z "},"…":{"ha":1143,"x_min":57,"x_max":1088,"o":"m 196 -11 q 94 28 132 -11 q 57 115 57 68 q 94 201 57 161 q 196 240 131 240 q 285 215 249 240 q 329 152 321 189 q 329 78 338 115 q 285 15 321 40 q 196 -11 249 -11 m 571 -11 q 469 28 507 -11 q 432 115 432 68 q 469 201 432 161 q 571 240 506 240 q 660 215 624 240 q 704 152 696 189 q 704 78 713 115 q 660 15 696 40 q 571 -11 624 -11 m 946 -11 q 844 28 882 -11 q 807 115 807 68 q 844 201 807 161 q 946 240 881 240 q 1035 215 999 240 q 1079 152 1071 189 q 1079 78 1088 115 q 1035 15 1071 40 q 946 -11 999 -11 z "},"‰":{"ha":1811,"x_min":47,"x_max":1768,"o":"m 110 917 q 142 952 110 917 q 294 986 174 986 q 479 917 415 986 q 543 753 543 849 q 479 588 543 656 q 294 521 415 521 q 110 588 174 521 q 47 753 47 656 q 110 917 47 849 m 818 971 l 1068 971 l 432 0 l 178 0 l 818 971 m 246 710 q 254 701 246 710 q 294 692 263 692 q 343 710 326 692 q 360 753 360 728 q 343 796 360 778 q 294 814 326 814 q 246 796 263 814 q 229 753 229 778 q 246 710 229 728 m 773 385 q 805 420 773 385 q 957 454 836 454 q 1142 385 1078 454 q 1206 221 1206 317 q 1142 56 1206 124 q 957 -11 1078 -11 q 773 56 836 -11 q 710 221 710 124 q 773 385 710 317 m 908 178 q 917 169 908 178 q 957 160 925 160 q 1006 178 989 160 q 1022 221 1022 196 q 1006 264 1022 246 q 957 282 989 282 q 908 264 925 282 q 892 221 892 246 q 908 178 892 196 m 1335 385 q 1367 420 1335 385 q 1519 454 1399 454 q 1704 385 1640 454 q 1768 221 1768 317 q 1704 56 1768 124 q 1519 -11 1640 -11 q 1335 56 1399 -11 q 1272 221 1272 124 q 1335 385 1272 317 m 1471 178 q 1479 169 1471 178 q 1519 160 1488 160 q 1568 178 1551 160 q 1585 221 1585 196 q 1568 264 1585 246 q 1519 282 1551 282 q 1471 264 1488 282 q 1454 221 1454 246 q 1471 178 1454 196 z "},"‹":{"ha":547,"x_min":40,"x_max":504,"o":"m 40 406 l 235 717 l 503 718 l 310 407 q 504 94 435 200 l 235 94 l 40 406 z "},"›":{"ha":544,"x_min":43,"x_max":506,"o":"m 313 722 l 506 413 l 313 103 l 43 103 l 235 411 l 43 722 l 313 722 z "},"⁄":{"ha":250,"x_min":-256,"x_max":504,"o":"m 279 967 l 504 967 l -31 -7 l -256 -7 l 279 967 z "},"⁰":{"ha":565,"x_min":46,"x_max":519,"o":"m 193 910 l 193 833 q 219 769 193 792 q 282 746 246 746 q 345 769 318 746 q 372 833 372 792 l 372 910 q 345 976 372 953 q 282 1000 318 1000 q 219 976 246 1000 q 193 910 193 953 m 46 838 l 46 911 q 116 1079 46 1019 q 283 1139 186 1139 q 449 1079 379 1139 q 519 911 519 1019 l 519 838 q 449 665 519 728 q 283 603 378 603 q 116 665 186 603 q 46 838 46 728 z "},"⁴":{"ha":554,"x_min":28,"x_max":507,"o":"m 258 1129 l 446 1129 l 446 825 l 507 825 l 507 696 l 446 696 l 446 613 l 297 613 l 297 696 l 33 696 l 28 822 l 258 1129 m 297 825 l 297 971 l 186 825 l 297 825 z "},"⁵":{"ha":529,"x_min":57,"x_max":489,"o":"m 456 1131 l 456 1000 l 206 1000 l 206 954 l 272 954 q 489 781 489 954 q 426 641 489 686 q 279 596 363 596 q 120 641 182 596 q 57 779 58 686 l 208 779 q 228 740 211 754 q 268 726 246 726 q 315 741 294 726 q 336 781 336 756 q 317 815 336 803 q 272 828 299 828 l 64 828 l 64 1131 l 456 1131 z "},"⁶":{"ha":535,"x_min":53,"x_max":492,"o":"m 339 785 q 319 819 339 807 q 271 831 299 831 q 222 819 242 831 q 203 785 201 807 q 222 751 203 763 q 269 739 242 739 q 318 751 297 739 q 339 785 339 764 m 479 976 l 339 976 q 318 1007 336 996 q 275 1018 300 1018 q 224 1007 246 1018 q 203 976 203 996 l 203 932 q 300 954 246 954 q 434 910 376 954 q 492 785 492 867 q 427 651 492 693 q 271 608 363 608 q 118 656 183 608 q 53 786 53 703 l 53 976 q 117 1099 53 1056 q 269 1142 181 1142 q 417 1101 360 1142 q 479 976 475 1061 z "},"⁷":{"ha":457,"x_min":36,"x_max":440,"o":"m 232 613 l 64 613 l 244 990 l 36 990 l 36 1129 l 435 1129 l 440 1064 l 232 613 z "},"⁸":{"ha":544,"x_min":39,"x_max":504,"o":"m 194 774 q 213 740 193 757 q 275 724 233 724 q 335 739 315 724 q 353 774 354 754 q 331 806 353 792 q 276 819 308 819 q 218 807 242 819 q 194 774 194 794 m 42 775 q 60 831 42 800 q 110 881 79 861 q 57 975 57 919 q 117 1098 57 1054 q 271 1142 176 1142 q 426 1098 364 1142 q 489 976 489 1054 q 436 885 489 915 q 485 833 467 864 q 503 774 503 803 q 438 639 504 682 q 271 599 371 596 q 105 641 171 599 q 42 775 39 683 m 275 932 q 322 944 306 932 q 338 974 338 957 q 320 1003 338 990 q 274 1017 303 1017 q 226 1004 243 1017 q 208 975 208 992 q 226 944 208 957 q 275 932 243 932 z "},"⁹":{"ha":533,"x_min":44,"x_max":483,"o":"m 197 964 q 265 918 197 918 q 314 929 293 918 q 333 964 335 940 q 313 997 333 985 q 267 1008 293 1008 q 217 997 238 1008 q 197 964 197 985 m 50 772 l 193 772 q 215 740 196 751 q 260 729 235 729 q 311 741 289 729 q 333 772 333 753 l 333 815 q 236 793 290 793 q 102 838 160 793 q 44 964 44 882 q 111 1094 44 1049 q 265 1139 178 1139 q 418 1092 353 1139 q 483 963 483 1044 l 483 772 q 419 647 483 692 q 267 603 354 603 q 112 644 171 603 q 50 772 53 685 z "},"₀":{"ha":565,"x_min":46,"x_max":519,"o":"m 193 189 l 193 113 q 219 48 193 71 q 282 25 246 25 q 345 48 318 25 q 372 113 372 71 l 372 189 q 345 256 372 232 q 282 279 318 279 q 219 256 246 279 q 193 189 193 232 m 46 117 l 46 190 q 116 358 46 299 q 283 418 186 418 q 449 358 379 418 q 519 190 519 299 l 519 117 q 449 -56 519 7 q 283 -118 378 -118 q 116 -56 186 -118 q 46 117 46 7 z "},"₁":{"ha":397,"x_min":46,"x_max":367,"o":"m 46 -108 l 46 18 l 131 18 l 131 243 q 95 235 121 242 q 60 228 69 229 l 60 356 l 279 414 l 279 18 l 367 18 l 367 -108 l 46 -108 z "},"₂":{"ha":526,"x_min":49,"x_max":478,"o":"m 197 250 l 51 250 q 115 376 53 329 q 260 422 176 422 q 417 378 357 422 q 478 249 478 333 q 461 172 478 204 q 410 122 444 140 q 351 94 376 103 q 283 76 326 86 q 192 36 199 58 l 474 36 l 474 -108 l 49 -108 l 49 29 q 64 103 49 72 q 111 151 79 133 q 166 178 143 169 q 231 196 189 186 q 280 208 264 203 q 310 223 296 213 q 325 249 325 233 q 307 278 325 268 q 264 289 289 289 q 221 278 240 289 q 197 250 201 268 z "},"₃":{"ha":531,"x_min":38,"x_max":488,"o":"m 263 101 l 176 101 l 176 217 l 257 217 q 326 258 326 217 q 257 299 326 296 q 207 289 229 300 q 181 258 185 278 l 47 258 q 112 383 47 340 q 260 425 176 425 q 410 381 343 425 q 476 257 476 336 q 422 160 476 194 q 469 114 451 144 q 488 49 488 83 q 467 -34 488 0 q 411 -85 446 -68 q 340 -110 376 -103 q 261 -118 303 -118 q 108 -74 176 -118 q 38 56 39 -29 l 193 56 q 260 17 199 17 q 310 28 289 17 q 331 61 331 39 q 263 101 331 101 z "},"₄":{"ha":554,"x_min":28,"x_max":507,"o":"m 258 408 l 446 408 l 446 104 l 507 104 l 507 -25 l 446 -25 l 446 -108 l 297 -108 l 297 -25 l 33 -25 l 28 101 l 258 408 m 297 104 l 297 250 l 186 104 l 297 104 z "},"₅":{"ha":532,"x_min":60,"x_max":492,"o":"m 458 418 l 458 288 l 208 288 l 208 242 l 275 242 q 492 68 492 242 q 428 -72 492 -26 q 282 -117 365 -117 q 123 -72 185 -117 q 60 67 61 -26 l 211 67 q 231 28 214 42 q 271 14 249 14 q 318 28 297 14 q 339 68 339 43 q 320 103 339 90 q 275 115 301 115 l 67 115 l 67 418 l 458 418 z "},"₆":{"ha":535,"x_min":53,"x_max":492,"o":"m 339 61 q 319 95 339 83 q 271 107 299 107 q 222 95 242 107 q 203 61 201 83 q 222 27 203 39 q 269 15 242 15 q 318 28 297 15 q 339 61 339 40 m 479 253 l 339 253 q 318 283 336 272 q 275 294 300 294 q 224 283 246 294 q 203 253 203 272 l 203 208 q 300 231 246 231 q 434 187 376 231 q 492 61 492 143 q 427 -73 492 -31 q 271 -115 363 -115 q 118 -68 183 -115 q 53 63 53 -21 l 53 253 q 117 375 53 332 q 269 418 181 418 q 417 378 360 418 q 479 253 475 338 z "},"₇":{"ha":457,"x_min":36,"x_max":440,"o":"m 232 -108 l 64 -108 l 244 269 l 36 269 l 36 408 l 435 408 l 440 343 l 232 -108 z "},"₈":{"ha":544,"x_min":39,"x_max":504,"o":"m 194 57 q 213 24 193 40 q 275 7 233 7 q 335 22 315 7 q 353 57 354 38 q 331 89 353 75 q 276 103 308 103 q 218 90 242 103 q 194 57 194 78 m 42 58 q 60 114 42 83 q 110 164 79 144 q 57 258 57 203 q 117 381 57 338 q 271 425 176 425 q 426 381 364 425 q 489 260 489 338 q 436 168 489 199 q 485 117 467 147 q 503 57 503 86 q 438 -78 504 -35 q 271 -118 371 -121 q 105 -76 171 -118 q 42 58 39 -33 m 275 215 q 322 228 306 215 q 338 257 338 240 q 320 287 338 274 q 274 300 303 300 q 226 288 243 300 q 208 258 208 275 q 226 228 208 240 q 275 215 243 215 z "},"₉":{"ha":536,"x_min":44,"x_max":483,"o":"m 197 246 q 265 200 197 200 q 314 211 293 200 q 333 246 335 222 q 313 278 333 267 q 267 290 293 290 q 217 278 238 290 q 197 246 197 267 m 50 54 l 193 54 q 215 22 196 33 q 260 11 235 11 q 311 23 289 11 q 333 54 333 35 l 333 97 q 236 75 290 75 q 102 119 160 75 q 44 246 44 164 q 111 376 44 331 q 265 421 178 421 q 418 374 353 421 q 483 244 483 326 l 483 54 q 419 -71 483 -26 q 267 -115 354 -115 q 112 -74 171 -115 q 50 54 53 -33 z "},"€":{"ha":896,"x_min":60,"x_max":849,"o":"m 60 276 l 60 444 l 136 444 l 136 514 l 60 514 l 60 676 l 175 676 q 287 849 211 778 q 454 950 363 919 q 647 979 546 981 q 836 943 747 978 l 769 747 q 596 770 685 785 q 461 676 507 756 l 713 676 l 672 514 l 396 514 q 396 444 394 479 l 657 444 l 621 276 l 464 276 q 613 199 517 218 q 782 208 708 179 l 849 8 q 654 -21 756 -21 q 342 57 467 -21 q 168 276 218 135 l 60 276 z "},"ℓ":{"ha":569,"x_min":36,"x_max":539,"o":"m 321 332 l 321 213 q 342 158 321 178 q 400 139 364 139 q 490 158 419 139 l 490 24 q 338 -6 403 -6 q 124 193 142 -6 q 67 165 72 167 l 36 269 q 121 308 96 294 l 121 736 q 172 921 121 867 q 357 975 224 975 q 539 775 539 975 q 535 700 539 736 q 321 332 513 511 m 317 736 l 317 600 q 316 561 317 583 q 315 532 315 539 l 315 514 q 404 718 396 632 q 410 781 410 754 q 360 867 410 867 q 328 828 339 867 q 317 736 317 789 z "},"℗":{"ha":1113,"x_min":54,"x_max":1058,"o":"m 556 996 q 924 850 789 996 q 1058 489 1058 704 q 924 128 1058 274 q 556 -18 789 -18 q 189 128 324 -18 q 54 489 54 274 q 189 850 54 704 q 556 996 324 996 m 206 489 q 301 221 208 326 q 556 115 394 115 q 811 221 718 115 q 904 489 904 326 q 811 756 904 650 q 556 863 718 863 q 301 757 394 863 q 206 489 208 651 m 519 371 l 611 371 q 708 390 665 371 q 774 442 751 410 q 806 512 796 474 q 806 588 817 550 q 774 657 796 625 q 710 708 753 689 q 613 728 667 728 l 376 728 l 376 233 l 519 233 l 519 371 m 519 597 l 613 597 q 660 571 644 597 q 663 519 675 544 q 614 493 650 493 l 519 493 l 519 597 z "},"™":{"ha":1176,"x_min":83,"x_max":1082,"o":"m 376 822 l 376 550 l 208 550 l 208 822 l 83 822 l 83 972 l 504 972 l 504 822 l 376 822 m 728 972 l 824 851 l 917 972 l 1082 972 l 1082 549 l 915 549 l 915 644 l 921 744 l 842 635 l 803 635 l 724 746 l 729 644 l 729 549 l 564 549 l 564 972 l 728 972 z "},"Ω":{"ha":1169,"x_min":65,"x_max":1106,"o":"m 585 771 q 399 690 469 771 q 328 496 328 610 q 372 327 326 403 q 515 228 417 251 l 515 0 l 86 0 l 86 218 l 215 218 q 104 353 143 265 q 65 521 65 440 q 205 867 65 733 q 585 1000 344 1000 q 965 867 825 1000 q 1106 521 1106 733 q 1066 347 1106 433 q 950 218 1026 261 l 1085 218 l 1085 0 l 656 0 l 656 228 q 803 328 757 253 q 850 497 850 404 q 778 694 850 618 q 585 771 707 771 z "},"℮":{"ha":879,"x_min":67,"x_max":828,"o":"m 451 -10 q 176 97 285 -10 q 67 397 67 204 q 175 699 67 592 q 450 806 283 806 q 593 785 528 806 q 713 723 658 765 q 797 605 767 681 q 828 426 828 529 q 821 344 828 383 l 300 344 l 300 135 q 451 88 358 88 q 708 215 624 88 l 783 160 q 638 28 718 67 q 451 -10 557 -10 m 604 674 q 450 714 542 714 q 300 671 358 714 l 300 446 l 604 446 l 604 674 z "},"⅓":{"ha":1183,"x_min":56,"x_max":1136,"o":"m 742 974 l 896 974 l 350 -7 l 200 -7 l 742 974 m 911 210 l 825 210 l 825 325 l 906 325 q 975 367 975 325 q 906 407 975 404 q 856 397 878 408 q 829 367 833 386 l 696 367 q 760 491 696 449 q 908 533 825 533 q 1058 489 992 533 q 1125 365 1125 444 q 1071 268 1125 303 q 1118 222 1100 253 q 1136 157 1136 192 q 1115 74 1136 108 q 1060 23 1094 40 q 988 -2 1025 6 q 910 -10 951 -10 q 756 35 825 -10 q 686 164 688 79 l 842 164 q 908 125 847 125 q 958 136 938 125 q 979 169 979 147 q 911 210 979 210 m 56 468 l 56 594 l 149 594 l 149 819 q 112 812 139 818 q 75 804 85 806 l 75 932 l 288 990 l 288 594 l 375 594 l 375 468 l 56 468 z "},"⅔":{"ha":1272,"x_min":57,"x_max":1226,"o":"m 842 974 l 996 974 l 450 -7 l 300 -7 l 842 974 m 1001 210 l 915 210 l 915 325 l 996 325 q 1065 367 1065 325 q 996 407 1065 404 q 946 397 968 408 q 919 367 924 386 l 786 367 q 851 491 786 449 q 999 533 915 533 q 1149 489 1082 533 q 1215 365 1215 444 q 1161 268 1215 303 q 1208 222 1190 253 q 1226 157 1226 192 q 1206 74 1226 108 q 1150 23 1185 40 q 1078 -2 1115 6 q 1000 -10 1042 -10 q 847 35 915 -10 q 776 164 778 79 l 932 164 q 999 125 938 125 q 1049 136 1028 125 q 1069 169 1069 147 q 1001 210 1069 210 m 206 807 l 60 807 q 123 933 61 886 q 268 979 185 979 q 426 935 365 979 q 486 806 486 890 q 474 744 486 771 q 447 701 461 717 q 401 673 433 686 q 355 656 369 660 q 303 643 340 651 q 292 640 296 642 q 227 622 247 632 q 200 589 207 613 l 482 589 l 482 449 l 57 449 l 57 586 q 69 648 57 621 q 97 690 82 675 q 141 719 111 706 q 188 737 171 732 q 239 750 204 742 q 309 772 285 760 q 333 806 333 783 q 315 835 333 825 q 272 846 297 846 q 229 835 249 846 q 206 807 210 825 z "},"⅛":{"ha":1178,"x_min":56,"x_max":1133,"o":"m 742 974 l 896 974 l 350 -7 l 200 -7 l 742 974 m 56 468 l 56 594 l 149 594 l 149 819 q 112 812 139 818 q 75 804 85 806 l 75 932 l 288 990 l 288 594 l 375 594 l 375 468 l 56 468 m 817 165 q 837 129 815 147 q 904 111 858 111 q 969 128 949 111 q 989 165 990 144 q 965 200 989 185 q 906 215 940 215 q 842 202 868 215 q 817 165 817 189 m 671 167 q 690 222 671 192 q 739 272 708 253 q 686 367 686 311 q 746 490 686 446 q 900 533 806 533 q 1056 490 993 533 q 1118 368 1118 446 q 1065 276 1118 307 q 1114 225 1096 256 q 1132 165 1132 194 q 1067 31 1133 74 q 900 -10 1000 -12 q 734 33 800 -10 q 671 167 668 75 m 904 322 q 952 335 935 322 q 969 365 969 349 q 951 397 969 385 q 903 410 933 410 q 853 397 871 410 q 836 367 836 385 q 854 335 836 349 q 904 322 872 322 z "},"⅜":{"ha":1264,"x_min":47,"x_max":1219,"o":"m 828 974 l 982 974 l 436 -7 l 286 -7 l 828 974 m 903 165 q 923 129 901 147 q 990 111 944 111 q 1056 128 1035 111 q 1075 165 1076 144 q 1051 200 1075 185 q 992 215 1026 215 q 928 202 954 215 q 903 165 903 189 m 757 167 q 776 222 757 192 q 825 272 794 253 q 772 367 772 311 q 832 490 772 446 q 986 533 892 533 q 1142 490 1079 533 q 1204 368 1204 446 q 1151 276 1204 307 q 1200 225 1182 256 q 1218 165 1218 194 q 1153 31 1219 74 q 986 -10 1086 -12 q 820 33 886 -10 q 757 167 754 75 m 990 322 q 1038 335 1021 322 q 1056 365 1056 349 q 1038 397 1056 385 q 989 410 1019 410 q 940 397 957 410 q 922 367 922 385 q 940 335 922 349 q 990 322 958 322 m 272 661 l 186 661 l 186 776 l 267 776 q 336 818 336 776 q 267 858 336 856 q 217 849 239 860 q 190 818 194 838 l 57 818 q 122 942 57 900 q 269 985 186 985 q 419 940 353 985 q 486 817 486 896 q 432 719 486 756 q 479 674 461 704 q 497 608 497 643 q 476 526 497 560 q 421 474 456 492 q 349 449 386 457 q 271 442 313 442 q 117 486 186 442 q 47 615 49 531 l 203 615 q 269 576 208 576 q 319 588 299 576 q 340 621 340 599 q 272 661 340 661 z "},"⅝":{"ha":1250,"x_min":53,"x_max":1206,"o":"m 814 974 l 968 974 l 422 -7 l 272 -7 l 814 974 m 889 165 q 909 129 888 147 q 976 111 931 111 q 1042 128 1021 111 q 1061 165 1063 144 q 1037 200 1061 185 q 978 215 1013 215 q 915 202 940 215 q 889 165 889 189 m 743 167 q 762 222 743 192 q 811 272 781 253 q 758 367 758 311 q 818 490 758 446 q 972 533 878 533 q 1128 490 1065 533 q 1190 368 1190 446 q 1138 276 1190 307 q 1186 225 1168 256 q 1204 165 1204 194 q 1139 31 1206 74 q 972 -10 1072 -12 q 806 33 872 -10 q 743 167 740 75 m 976 322 q 1024 335 1007 322 q 1042 365 1042 349 q 1024 397 1042 385 q 975 410 1006 410 q 926 397 943 410 q 908 367 908 385 q 926 335 908 349 q 976 322 944 322 m 451 971 l 451 840 l 201 840 l 201 794 l 268 794 q 485 621 485 794 q 422 481 485 526 q 275 436 358 436 q 116 481 178 436 q 53 619 54 526 l 204 619 q 224 581 207 594 q 264 567 242 567 q 311 581 290 567 q 332 621 332 596 q 313 656 332 643 q 268 668 294 668 l 60 668 l 60 971 l 451 971 z "},"⅞":{"ha":1181,"x_min":51,"x_max":1136,"o":"m 724 974 l 878 974 l 332 -7 l 182 -7 l 724 974 m 819 165 q 840 129 818 147 q 907 111 861 111 q 972 128 951 111 q 992 165 993 144 q 967 200 992 185 q 908 215 943 215 q 845 202 871 215 q 819 165 819 189 m 674 167 q 692 222 674 192 q 742 272 711 253 q 689 367 689 311 q 749 490 689 446 q 903 533 808 533 q 1058 490 996 533 q 1121 368 1121 446 q 1068 276 1121 307 q 1117 225 1099 256 q 1135 165 1135 194 q 1069 31 1136 74 q 903 -10 1003 -12 q 737 33 803 -10 q 674 167 671 75 m 907 322 q 955 335 938 322 q 972 365 972 349 q 954 397 972 385 q 906 410 936 410 q 856 397 874 410 q 839 367 839 385 q 857 335 839 349 q 907 322 875 322 m 247 456 l 79 456 l 260 833 l 51 833 l 51 972 l 450 972 l 456 907 l 247 456 z "},"←":{"ha":876,"x_min":42,"x_max":807,"o":"m 383 143 l 42 483 l 385 822 l 499 717 l 357 574 l 807 574 l 807 389 l 353 389 l 490 240 l 383 143 z "},"↑":{"ha":760,"x_min":40,"x_max":719,"o":"m 40 542 l 381 883 l 719 540 l 613 426 l 469 569 l 469 118 l 286 118 l 286 574 l 138 436 l 40 542 z "},"→":{"ha":876,"x_min":69,"x_max":835,"o":"m 494 824 l 835 485 l 493 146 l 378 251 l 519 393 l 69 393 l 69 579 l 525 579 q 482 626 506 601 q 430 680 458 650 q 386 726 401 710 l 494 824 z "},"↓":{"ha":760,"x_min":40,"x_max":718,"o":"m 718 433 l 379 92 l 40 435 l 144 549 l 288 407 l 288 857 l 472 857 l 472 401 q 551 474 500 426 q 621 540 601 522 l 718 433 z "},"↖":{"ha":728,"x_min":81,"x_max":686,"o":"m 81 268 l 81 750 l 561 747 l 567 594 l 367 593 l 686 274 l 551 144 l 232 464 l 225 263 l 81 268 z "},"↗":{"ha":729,"x_min":43,"x_max":649,"o":"m 164 604 l 168 747 l 649 747 q 648 626 649 708 q 647 507 647 544 l 647 267 l 496 261 q 495 318 496 279 q 494 375 494 357 l 494 463 l 172 143 l 43 278 l 364 597 l 164 604 z "},"↘":{"ha":772,"x_min":49,"x_max":654,"o":"m 174 208 l 168 351 l 369 358 l 49 678 l 178 813 l 499 493 l 499 582 q 499 638 499 599 q 500 694 500 676 l 653 689 l 653 447 q 653 328 653 410 q 654 208 654 247 l 174 208 z "},"↙":{"ha":774,"x_min":119,"x_max":725,"o":"m 606 351 l 600 208 l 119 208 l 119 447 q 120 567 119 486 q 121 689 121 649 l 275 694 q 275 659 275 678 q 275 617 275 640 q 275 582 275 593 l 275 493 l 596 813 l 725 678 l 406 358 l 606 351 z "},"∂":{"ha":815,"x_min":39,"x_max":774,"o":"m 531 331 q 506 423 531 386 q 444 468 481 460 q 372 467 408 476 q 310 422 335 458 q 285 332 285 385 q 310 243 285 279 q 372 199 335 207 q 444 199 408 190 q 506 244 481 208 q 531 331 531 279 m 371 669 q 449 658 421 669 q 326 748 410 708 q 182 793 243 788 l 221 974 q 622 778 469 956 q 774 347 774 600 q 674 88 772 186 q 407 -11 576 -11 q 136 90 233 -11 q 39 331 39 190 q 126 574 39 478 q 371 669 214 669 z "},"∆":{"ha":1188,"x_min":35,"x_max":1151,"o":"m 1151 24 l 1151 0 l 35 0 l 35 17 l 456 972 l 733 972 l 1151 24 m 594 697 l 400 221 l 786 221 l 594 697 z "},"∏":{"ha":967,"x_min":100,"x_max":867,"o":"m 867 -251 l 610 -251 l 610 754 l 363 754 l 363 -251 l 100 -251 l 100 972 l 867 972 l 867 -251 z "},"∑":{"ha":863,"x_min":60,"x_max":794,"o":"m 569 508 l 375 225 l 794 225 l 794 0 l 60 0 l 60 143 l 306 511 q 72 851 107 803 l 72 972 l 786 972 l 786 758 l 410 758 l 569 508 z "},"−":{"ha":750,"x_min":83,"x_max":667,"o":"m 83 279 l 83 490 l 667 490 l 667 279 l 83 279 z "},"∕":{"ha":706,"x_min":-28,"x_max":732,"o":"m 507 967 l 732 967 l 197 -7 l -28 -7 l 507 967 z "},"∙":{"ha":417,"x_min":63,"x_max":354,"o":"m 106 336 q 84 353 106 336 q 63 433 63 371 q 106 531 63 496 q 208 567 149 567 q 310 531 267 567 q 354 433 354 496 q 310 336 354 371 q 208 301 267 301 q 106 336 149 301 z "},"√":{"ha":882,"x_min":1,"x_max":881,"o":"m 881 1010 l 547 0 l 371 0 l 151 411 l 54 374 l 1 503 l 306 640 l 465 303 l 717 1058 l 881 1010 z "},"∞":{"ha":1067,"x_min":74,"x_max":993,"o":"m 531 313 q 321 207 417 199 q 140 278 204 211 q 74 436 75 344 q 143 602 74 532 q 333 672 213 672 q 437 640 379 672 q 531 567 494 608 q 631 643 576 614 q 731 672 686 672 q 924 606 854 672 q 993 436 993 539 q 927 276 993 343 q 742 207 861 210 q 531 313 642 201 m 739 376 q 806 408 786 376 q 806 472 825 440 q 739 504 786 504 q 638 439 706 504 q 739 376 700 376 m 328 376 q 429 439 367 376 q 328 504 361 504 q 261 472 281 504 q 261 408 242 440 q 328 376 281 376 z "},"∫":{"ha":722,"x_min":-8,"x_max":736,"o":"m 226 18 l 226 693 q 287 871 232 799 q 419 968 342 943 q 582 983 496 993 q 736 929 668 974 l 649 739 q 572 772 608 764 q 508 761 535 779 q 481 693 481 743 l 481 18 q 427 -154 476 -83 q 307 -252 378 -225 q 151 -267 236 -279 q -8 -201 67 -254 l 74 -28 q 117 -53 93 -43 q 167 -65 142 -64 q 209 -46 192 -67 q 226 18 226 -25 z "},"≈":{"ha":786,"x_min":64,"x_max":721,"o":"m 186 435 l 64 506 q 160 626 99 583 q 293 654 221 669 q 366 628 315 649 q 451 595 417 607 q 523 592 486 583 q 575 640 560 600 l 703 588 q 494 428 656 401 q 344 468 447 432 q 296 485 313 481 q 256 490 279 489 q 215 477 232 492 q 186 435 199 463 m 203 172 l 82 242 q 176 363 115 319 q 310 392 238 407 q 383 365 332 386 q 469 332 435 344 q 541 328 504 319 q 593 378 578 336 l 721 324 q 642 191 697 229 q 511 165 586 153 q 363 206 461 169 q 314 222 332 217 q 273 227 296 226 q 233 214 250 228 q 203 172 215 200 z "},"≠":{"ha":808,"x_min":79,"x_max":725,"o":"m 79 168 l 79 375 l 307 375 q 331 420 314 386 q 360 475 347 454 l 79 475 l 79 683 l 476 683 l 553 818 l 683 747 l 644 683 l 725 683 l 725 475 l 531 475 q 503 429 524 463 q 474 375 483 396 l 725 375 l 725 168 l 356 168 q 315 96 342 144 q 279 31 289 47 l 151 104 l 189 168 l 79 168 z "},"≤":{"ha":647,"x_min":69,"x_max":578,"o":"m 71 61 l 71 231 l 578 231 l 578 61 l 71 61 m 69 592 l 69 603 l 422 903 l 550 779 l 351 601 l 549 426 l 422 297 l 69 592 z "},"≥":{"ha":647,"x_min":69,"x_max":578,"o":"m 576 231 l 576 61 l 69 61 l 69 231 l 576 231 m 578 603 l 578 592 l 225 297 l 99 426 l 296 601 l 97 779 l 225 903 l 578 603 z "},"◊":{"ha":890,"x_min":39,"x_max":851,"o":"m 851 486 l 554 -1 l 340 -1 l 39 486 l 340 975 l 554 975 l 851 486 m 301 486 l 449 232 l 588 485 l 449 743 l 301 486 z "},"ﬁ":{"ha":979,"x_min":24,"x_max":921,"o":"m 633 863 q 676 958 633 924 q 778 992 719 992 q 878 958 836 992 q 921 863 921 924 q 878 769 921 803 q 778 735 835 735 q 676 769 719 735 q 633 863 633 803 m 649 0 l 906 0 l 906 675 l 649 675 l 649 0 m 542 781 l 590 957 q 436 988 533 988 q 228 917 317 988 q 140 707 140 847 l 140 674 l 24 674 l 24 479 l 140 479 l 140 0 l 396 0 l 396 479 l 561 479 l 561 674 l 396 674 l 396 707 q 417 770 396 749 q 472 792 439 792 q 542 781 515 792 z "},"ﬂ":{"ha":981,"x_min":24,"x_max":906,"o":"m 906 0 l 654 0 l 654 967 l 906 967 l 906 0 m 590 957 l 542 781 q 472 792 515 792 q 417 770 439 792 q 396 707 396 749 l 396 674 l 561 674 l 561 479 l 396 479 l 396 0 l 140 0 l 140 479 l 24 479 l 24 674 l 140 674 l 140 707 q 228 917 140 847 q 436 988 317 988 q 590 957 533 988 z "}}}
